<?xml version="1.0" encoding="UTF-8" ?>
<!DOCTYPE svg PUBLIC "-//W3C//DTD SVG 1.1//EN" "http://www.w3.org/Graphics/SVG/1.1/DTD/svg11.dtd">
<svg width="201pt" height="202pt" viewBox="0 0 201 202" version="1.1" xmlns="http://www.w3.org/2000/svg">
<g id="#e4c406f6">
<path fill="#e4c406" opacity="0.96" d=" M 82.72 10.72 C 87.65 6.37 92.11 -1.33 99.96 0.90 C 109.97 0.40 114.45 11.78 121.37 17.14 C 120.01 17.80 118.64 18.46 117.28 19.12 C 111.62 11.80 102.11 1.57 92.04 8.11 C 63.67 35.00 36.55 63.31 8.73 90.81 C 2.22 97.09 4.36 107.72 11.21 112.79 C 37.84 139.14 64.13 165.87 90.80 192.17 C 96.25 196.38 104.77 195.60 109.24 190.23 C 136.78 162.46 164.89 135.20 192.01 107.05 C 199.22 89.14 175.02 82.94 169.57 68.95 C 170.20 68.13 170.86 67.33 171.56 66.56 C 181.58 76.59 193.22 85.29 201.00 97.35 L 201.00 101.43 C 199.89 103.54 198.86 105.68 197.94 107.87 C 192.42 113.08 186.79 118.22 182.01 124.13 C 154.06 148.94 130.41 178.74 101.25 202.00 L 97.81 202.00 C 69.53 181.89 48.34 152.81 22.06 130.03 C 17.45 124.91 12.93 119.54 6.93 115.98 C -2.79 106.90 -1.00 90.16 9.22 82.22 C 34.05 58.75 58.99 35.40 82.72 10.72 Z" />
</g>
<g id="#1d171eff">
<path fill="#1d171e" opacity="1.00" d=" M 92.04 8.11 C 102.11 1.57 111.62 11.80 117.28 19.12 C 116.55 19.64 115.82 20.16 115.09 20.68 C 110.65 12.22 98.85 4.01 90.30 12.33 C 64.17 38.19 38.22 64.27 12.26 90.31 C -1.92 103.64 18.97 116.46 27.25 125.75 C 49.74 147.19 70.38 170.92 93.94 191.04 C 112.40 194.54 121.28 170.96 134.75 161.75 C 152.72 143.42 171.43 125.76 188.98 107.04 C 195.90 92.18 176.87 82.71 168.28 73.76 C 168.67 72.15 169.02 70.52 169.57 68.95 C 175.02 82.94 199.22 89.14 192.01 107.05 C 164.89 135.20 136.78 162.46 109.24 190.23 C 104.77 195.60 96.25 196.38 90.80 192.17 C 64.13 165.87 37.84 139.14 11.21 112.79 C 4.36 107.72 2.22 97.09 8.73 90.81 C 36.55 63.31 63.67 35.00 92.04 8.11 Z" />
</g>
<g id="#f8d303ff">
<path fill="#f8d303" opacity="1.00" d=" M 90.30 12.33 C 98.85 4.01 110.65 12.22 115.09 20.68 C 94.84 32.74 82.55 53.86 72.39 74.40 C 63.57 95.18 55.91 117.86 59.40 140.63 C 61.57 152.52 73.06 162.60 85.67 158.70 C 105.99 152.12 111.32 128.49 117.46 110.58 C 117.55 103.66 125.99 110.08 129.97 108.88 C 149.05 107.54 162.57 90.84 168.28 73.76 C 176.87 82.71 195.90 92.18 188.98 107.04 C 171.43 125.76 152.72 143.42 134.75 161.75 C 121.28 170.96 112.40 194.54 93.94 191.04 C 70.38 170.92 49.74 147.19 27.25 125.75 C 18.97 116.46 -1.92 103.64 12.26 90.31 C 38.22 64.27 64.17 38.19 90.30 12.33 Z" />
</g>
<g id="#090806fe">
<path fill="#090806" opacity="1.00" d=" M 121.37 17.14 C 136.43 10.77 157.20 10.98 166.92 26.04 C 175.57 38.02 172.39 52.98 171.56 66.56 C 170.86 67.33 170.20 68.13 169.57 68.95 C 169.02 70.52 168.67 72.15 168.28 73.76 C 162.57 90.84 149.05 107.54 129.97 108.88 C 125.99 110.08 117.55 103.66 117.46 110.58 C 111.32 128.49 105.99 152.12 85.67 158.70 C 73.06 162.60 61.57 152.52 59.40 140.63 C 55.91 117.86 63.57 95.18 72.39 74.40 C 82.55 53.86 94.84 32.74 115.09 20.68 C 115.82 20.16 116.55 19.64 117.28 19.12 C 118.64 18.46 120.01 17.80 121.37 17.14 M 144.13 19.78 C 154.92 21.68 163.39 29.74 165.36 40.64 C 166.88 57.39 161.16 73.61 153.95 87.99 C 162.59 88.21 165.03 74.93 166.66 68.50 C 173.22 52.11 172.39 28.26 155.01 19.04 C 152.18 17.71 142.43 13.71 144.13 19.78 M 133.82 34.03 C 136.07 39.58 142.01 42.81 145.97 47.12 C 147.46 40.51 140.25 33.14 133.82 34.03 M 129.36 36.28 C 121.57 39.91 115.40 46.53 110.06 53.07 C 110.42 54.89 117.44 49.83 119.60 52.29 C 128.79 60.73 121.56 76.60 122.99 88.04 C 136.89 87.21 142.99 71.24 145.55 59.46 C 149.09 48.86 136.93 40.11 129.36 36.28 M 101.26 52.24 C 95.07 62.30 87.79 72.61 85.08 84.20 C 78.79 101.35 69.92 120.06 75.72 138.26 C 81.22 144.14 85.67 137.73 79.03 133.94 C 76.34 116.04 84.37 98.53 90.30 81.94 C 94.56 73.21 98.47 64.12 104.02 56.01 C 106.64 53.84 103.53 48.62 101.26 52.24 M 117.24 55.09 C 114.27 66.59 116.16 80.37 115.06 92.74 C 117.69 97.59 127.53 93.21 120.00 90.86 C 116.52 81.83 127.79 59.84 117.24 55.09 M 98.36 71.38 C 90.22 90.96 77.43 113.80 83.00 134.26 C 95.76 117.33 98.62 89.43 98.36 71.38 M 112.25 102.97 C 109.35 110.61 107.32 118.56 104.20 126.13 C 104.45 131.84 92.02 141.53 100.75 142.85 C 106.35 130.97 118.82 115.14 112.25 102.97 Z" />
</g>
<g id="#8c8c8cff">
<path fill="#8c8c8c" opacity="1.00" d=" M 144.13 19.78 C 142.43 13.71 152.18 17.71 155.01 19.04 C 172.39 28.26 173.22 52.11 166.66 68.50 C 160.42 61.93 169.77 49.35 165.36 40.64 C 163.39 29.74 154.92 21.68 144.13 19.78 Z" />
</g>
<g id="#d8bb07fa">
<path fill="#d8bb07" opacity="0.98" d=" M 133.82 34.03 C 140.25 33.14 147.46 40.51 145.97 47.12 C 142.01 42.81 136.07 39.58 133.82 34.03 Z" />
</g>
<g id="#f7d303ff">
<path fill="#f7d303" opacity="1.00" d=" M 129.36 36.28 C 136.93 40.11 149.09 48.86 145.55 59.46 C 142.99 71.24 136.89 87.21 122.99 88.04 C 121.56 76.60 128.79 60.73 119.60 52.29 C 117.44 49.83 110.42 54.89 110.06 53.07 C 115.40 46.53 121.57 39.91 129.36 36.28 Z" />
</g>
<g id="#474747ff">
<path fill="#474747" opacity="1.00" d=" M 165.36 40.64 C 169.77 49.35 160.42 61.93 166.66 68.50 C 165.03 74.93 162.59 88.21 153.95 87.99 C 161.16 73.61 166.88 57.39 165.36 40.64 Z" />
</g>
<g id="#3b3b3bff">
<path fill="#3b3b3b" opacity="1.00" d=" M 101.26 52.24 C 103.53 48.62 106.64 53.84 104.02 56.01 C 98.47 64.12 94.56 73.21 90.30 81.94 C 89.05 77.47 86.53 82.41 85.08 84.20 C 87.79 72.61 95.07 62.30 101.26 52.24 Z" />
</g>
<g id="#818181ff">
<path fill="#818181" opacity="1.00" d=" M 117.24 55.09 C 127.79 59.84 116.52 81.83 120.00 90.86 C 127.53 93.21 117.69 97.59 115.06 92.74 C 116.16 80.37 114.27 66.59 117.24 55.09 Z" />
</g>
<g id="#f1ce03ff">
<path fill="#f1ce03" opacity="1.00" d=" M 98.36 71.38 C 98.62 89.43 95.76 117.33 83.00 134.26 C 77.43 113.80 90.22 90.96 98.36 71.38 Z" />
</g>
<g id="#6e6e6eff">
<path fill="#6e6e6e" opacity="1.00" d=" M 85.08 84.20 C 86.53 82.41 89.05 77.47 90.30 81.94 C 84.37 98.53 76.34 116.04 79.03 133.94 C 85.67 137.73 81.22 144.14 75.72 138.26 C 69.92 120.06 78.79 101.35 85.08 84.20 Z" />
</g>
<g id="#4e4e4eff">
<path fill="#4e4e4e" opacity="1.00" d=" M 112.25 102.97 C 118.82 115.14 106.35 130.97 100.75 142.85 C 92.02 141.53 104.45 131.84 104.20 126.13 C 107.32 118.56 109.35 110.61 112.25 102.97 Z" />
</g>
<g id="#7060078f">
<path fill="#706007" opacity="0.56" d=" M 182.01 124.13 C 186.79 118.22 192.42 113.08 197.94 107.87 C 194.72 114.86 187.88 119.48 182.01 124.13 Z" />
</g>
<g id="#6e5d0692">
<path fill="#6e5d06" opacity="0.57" d=" M 6.93 115.98 C 12.93 119.54 17.45 124.91 22.06 130.03 C 16.13 126.39 11.44 121.19 6.93 115.98 Z" />
</g>
</svg>
