<?xml version="1.0" encoding="UTF-8" ?>
<!DOCTYPE svg PUBLIC "-//W3C//DTD SVG 1.1//EN" "http://www.w3.org/Graphics/SVG/1.1/DTD/svg11.dtd">
<svg width="201pt" height="202pt" viewBox="0 0 201 202" version="1.1" xmlns="http://www.w3.org/2000/svg">
<g id="#fffffeff">
<path fill="#fffffe" opacity="1.00" d=" M 0.00 0.00 L 201.00 0.00 L 201.00 97.40 C 193.31 84.79 180.86 76.25 170.85 65.64 C 174.72 50.77 174.83 32.45 162.85 21.15 C 151.79 10.57 134.66 11.58 121.41 17.19 C 113.55 9.49 105.48 -4.39 92.26 2.28 C 67.99 23.17 47.74 48.60 22.74 68.73 C 15.48 76.83 5.89 83.17 1.13 93.24 C -4.11 115.36 19.66 125.69 31.90 139.11 C 54.05 159.76 72.90 184.58 97.74 202.00 L 0.00 202.00 L 0.00 0.00 Z" />
<path fill="#fffffe" opacity="1.00" d=" M 145.25 160.25 C 162.68 139.67 187.36 124.96 201.00 101.62 L 201.00 202.00 L 100.26 202.00 C 117.86 191.37 129.97 173.81 145.25 160.25 Z" />
</g>
<g id="#eccd10ff">
<path fill="#eccd10" opacity="1.00" d=" M 92.26 2.28 C 105.48 -4.39 113.55 9.49 121.41 17.19 C 114.45 22.11 111.11 9.14 104.67 7.30 C 99.24 4.87 92.64 6.24 88.76 10.77 C 62.06 37.42 35.36 64.08 8.74 90.81 C 2.22 97.10 4.36 107.70 11.21 112.79 C 37.84 139.14 64.12 165.87 90.80 192.17 C 96.26 196.38 104.78 195.60 109.24 190.23 C 136.78 162.46 164.89 135.20 192.00 107.04 C 201.27 87.62 168.33 82.48 170.85 65.64 C 180.86 76.25 193.31 84.79 201.00 97.40 L 201.00 101.62 C 187.36 124.96 162.68 139.67 145.25 160.25 C 129.97 173.81 117.86 191.37 100.26 202.00 L 97.74 202.00 C 72.90 184.58 54.05 159.76 31.90 139.11 C 19.66 125.69 -4.11 115.36 1.13 93.24 C 5.89 83.17 15.48 76.83 22.74 68.73 C 47.74 48.60 67.99 23.17 92.26 2.28 Z" />
</g>
<g id="#0c0b0aff">
<path fill="#0c0b0a" opacity="1.00" d=" M 88.76 10.77 C 92.64 6.24 99.24 4.87 104.67 7.30 C 111.11 9.14 114.45 22.11 121.41 17.19 C 134.66 11.58 151.79 10.57 162.85 21.15 C 174.83 32.45 174.72 50.77 170.85 65.64 C 168.33 82.48 201.27 87.62 192.00 107.04 C 164.89 135.20 136.78 162.46 109.24 190.23 C 104.78 195.60 96.26 196.38 90.80 192.17 C 64.12 165.87 37.84 139.14 11.21 112.79 C 4.36 107.70 2.22 97.10 8.74 90.81 C 35.36 64.08 62.06 37.42 88.76 10.77 M 95.42 9.35 C 69.58 29.41 48.44 55.92 24.25 78.25 C 17.28 86.19 0.75 96.03 10.04 107.97 C 35.11 134.49 61.69 159.66 87.21 185.79 C 91.90 192.15 101.64 194.78 107.71 188.72 C 134.74 161.45 162.50 134.77 188.93 106.97 C 196.31 91.97 176.54 83.57 169.01 73.75 C 162.34 86.82 154.99 102.10 139.66 106.66 C 132.25 112.52 117.39 102.28 116.40 114.38 C 110.28 130.83 105.09 152.21 86.41 158.44 C 74.75 162.53 62.76 154.31 60.04 142.91 C 54.88 119.85 63.37 96.36 72.08 75.10 C 82.12 53.92 95.20 33.01 115.22 20.05 C 110.40 14.18 103.95 6.74 95.42 9.35 M 144.70 19.30 C 154.60 22.68 163.63 29.43 165.36 40.65 C 166.79 57.39 161.20 73.55 153.93 88.01 C 162.55 88.23 165.13 74.87 166.61 68.55 C 172.60 53.23 172.58 32.39 158.77 21.23 C 156.34 18.87 142.91 13.41 144.70 19.30 M 133.78 34.01 C 136.13 39.56 141.96 42.83 145.99 47.12 C 147.65 39.93 141.67 31.67 133.78 34.01 M 129.36 36.29 C 121.38 40.07 114.87 46.81 109.67 53.78 C 130.80 45.03 122.54 76.24 122.99 88.05 C 136.90 87.19 142.99 71.25 145.55 59.46 C 149.08 48.86 136.93 40.08 129.36 36.29 M 101.23 52.07 C 94.41 63.95 85.85 75.59 83.16 89.22 C 78.37 104.77 69.50 122.75 76.26 138.76 C 85.12 142.63 82.84 137.32 78.78 133.16 C 76.49 115.30 84.98 98.49 89.79 81.71 C 95.06 74.24 97.61 64.12 103.84 56.81 C 106.05 54.99 104.10 50.89 101.23 52.07 M 117.24 55.09 C 114.27 66.61 116.15 80.36 115.06 92.74 C 117.68 97.52 127.49 93.32 120.03 90.84 C 116.49 81.69 127.79 59.83 117.24 55.09 M 98.37 71.38 C 90.01 89.23 82.12 108.13 80.94 127.97 C 78.18 131.85 83.28 136.37 85.28 132.25 C 95.16 114.30 98.73 88.91 98.37 71.38 M 112.17 104.05 C 108.02 116.84 102.76 129.55 97.92 142.02 C 104.56 142.70 105.06 133.25 108.09 129.04 C 109.81 121.47 119.65 108.68 112.17 104.05 Z" />
</g>
<g id="#f8d304ff">
<path fill="#f8d304" opacity="1.00" d=" M 95.42 9.35 C 103.95 6.74 110.40 14.18 115.22 20.05 C 95.20 33.01 82.12 53.92 72.08 75.10 C 63.37 96.36 54.88 119.85 60.04 142.91 C 62.76 154.31 74.75 162.53 86.41 158.44 C 105.09 152.21 110.28 130.83 116.40 114.38 C 117.39 102.28 132.25 112.52 139.66 106.66 C 154.99 102.10 162.34 86.82 169.01 73.75 C 176.54 83.57 196.31 91.97 188.93 106.97 C 162.50 134.77 134.74 161.45 107.71 188.72 C 101.64 194.78 91.90 192.15 87.21 185.79 C 61.69 159.66 35.11 134.49 10.04 107.97 C 0.75 96.03 17.28 86.19 24.25 78.25 C 48.44 55.92 69.58 29.41 95.42 9.35 Z" />
</g>
<g id="#8c8c8cff">
<path fill="#8c8c8c" opacity="1.00" d=" M 144.70 19.30 C 142.91 13.41 156.34 18.87 158.77 21.23 C 172.58 32.39 172.60 53.23 166.61 68.55 C 160.57 61.68 169.64 49.42 165.36 40.65 C 163.63 29.43 154.60 22.68 144.70 19.30 Z" />
</g>
<g id="#dec428ff">
<path fill="#dec428" opacity="1.00" d=" M 133.78 34.01 C 141.67 31.67 147.65 39.93 145.99 47.12 C 141.96 42.83 136.13 39.56 133.78 34.01 Z" />
</g>
<g id="#f7d303ff">
<path fill="#f7d303" opacity="1.00" d=" M 129.36 36.29 C 136.93 40.08 149.08 48.86 145.55 59.46 C 142.99 71.25 136.90 87.19 122.99 88.05 C 122.54 76.24 130.80 45.03 109.67 53.78 C 114.87 46.81 121.38 40.07 129.36 36.29 Z" />
</g>
<g id="#474747ff">
<path fill="#474747" opacity="1.00" d=" M 165.36 40.65 C 169.64 49.42 160.57 61.68 166.61 68.55 C 165.13 74.87 162.55 88.23 153.93 88.01 C 161.20 73.55 166.79 57.39 165.36 40.65 Z" />
</g>
<g id="#3d3d3dff">
<path fill="#3d3d3d" opacity="1.00" d=" M 101.23 52.07 C 104.10 50.89 106.05 54.99 103.84 56.81 C 97.61 64.12 95.06 74.24 89.79 81.71 C 86.08 82.36 84.99 86.46 83.16 89.22 C 85.85 75.59 94.41 63.95 101.23 52.07 Z" />
</g>
<g id="#818181ff">
<path fill="#818181" opacity="1.00" d=" M 117.24 55.09 C 127.79 59.83 116.49 81.69 120.03 90.84 C 127.49 93.32 117.68 97.52 115.06 92.74 C 116.15 80.36 114.27 66.61 117.24 55.09 Z" />
</g>
<g id="#f2cf03ff">
<path fill="#f2cf03" opacity="1.00" d=" M 98.37 71.38 C 98.73 88.91 95.16 114.30 85.28 132.25 C 83.28 136.37 78.18 131.85 80.94 127.97 C 82.12 108.13 90.01 89.23 98.37 71.38 Z" />
</g>
<g id="#707071ff">
<path fill="#707071" opacity="1.00" d=" M 83.16 89.22 C 84.99 86.46 86.08 82.36 89.79 81.71 C 84.98 98.49 76.49 115.30 78.78 133.16 C 82.84 137.32 85.12 142.63 76.26 138.76 C 69.50 122.75 78.37 104.77 83.16 89.22 Z" />
</g>
<g id="#505050ff">
<path fill="#505050" opacity="1.00" d=" M 112.17 104.05 C 119.65 108.68 109.81 121.47 108.09 129.04 C 105.06 133.25 104.56 142.70 97.92 142.02 C 102.76 129.55 108.02 116.84 112.17 104.05 Z" />
</g>
</svg>
