<?xml version="1.0" encoding="UTF-8" ?>
<!DOCTYPE svg PUBLIC "-//W3C//DTD SVG 1.1//EN" "http://www.w3.org/Graphics/SVG/1.1/DTD/svg11.dtd">
<svg width="500pt" height="500pt" viewBox="0 0 500 500" version="1.1" xmlns="http://www.w3.org/2000/svg">
<g id="#fffffeff">
<path fill="#fffffe" opacity="1.00" d=" M 0.00 0.00 L 500.00 0.00 L 500.00 500.00 L 0.00 500.00 L 0.00 0.00 M 228.32 8.31 C 221.23 7.72 210.81 8.00 207.19 15.32 C 205.80 16.50 204.55 17.83 203.47 19.29 C 189.61 31.32 168.46 25.83 153.96 35.12 C 149.65 36.32 145.54 38.17 141.97 40.87 C 129.86 48.50 108.45 34.69 101.03 51.05 C 97.74 57.71 102.12 66.41 98.15 73.13 C 90.94 84.36 89.19 100.16 93.97 112.08 C 94.07 116.73 94.06 121.48 96.24 125.71 C 96.39 131.81 96.51 139.17 100.06 144.12 C 101.68 148.31 102.08 152.85 103.94 156.94 C 104.70 166.79 103.47 176.57 101.06 186.11 C 99.32 186.45 99.57 189.12 98.78 190.46 C 97.27 200.83 78.34 196.59 71.12 204.55 C 66.81 210.86 57.72 211.39 54.26 218.15 C 54.14 228.49 43.43 238.82 49.02 247.75 C 50.09 258.62 54.01 268.70 57.25 278.82 C 53.26 291.09 51.44 304.91 58.07 316.81 C 70.20 332.26 86.67 346.07 101.33 359.76 C 133.38 390.85 164.76 422.83 197.27 453.53 C 206.19 465.04 217.68 475.88 229.02 485.00 C 234.43 489.71 240.45 494.32 247.01 497.05 C 264.05 495.72 273.54 478.08 285.96 468.12 C 297.78 459.60 307.97 447.54 317.74 436.66 C 326.72 427.03 337.46 419.20 345.94 409.10 C 356.97 401.17 366.61 389.98 375.77 379.75 C 376.03 379.52 376.53 379.07 376.78 378.85 C 388.32 371.94 396.98 359.45 407.78 350.78 C 419.89 336.78 436.43 325.60 445.96 309.96 C 451.42 304.82 451.48 291.17 446.23 286.76 C 431.35 265.90 411.63 247.86 392.66 231.17 C 395.65 211.04 400.11 187.98 391.88 168.92 C 387.49 155.67 379.33 142.67 366.65 135.98 C 366.77 134.87 366.07 134.00 364.54 133.38 C 366.76 124.68 359.24 110.57 370.93 107.85 C 367.12 100.82 357.58 98.23 355.22 89.85 C 355.40 82.02 352.03 73.57 345.61 69.25 C 343.87 66.71 342.70 63.57 340.00 61.87 C 335.18 52.98 337.78 41.83 331.20 33.89 C 318.37 18.52 293.75 21.46 275.70 18.25 C 267.30 16.05 260.71 9.23 252.15 7.91 C 247.00 4.40 232.39 4.37 228.32 8.31 Z" />
</g>
<g id="#f78686ff">
<path fill="#f78686" opacity="1.00" d=" M 228.32 8.31 C 232.39 4.37 247.00 4.40 252.15 7.91 C 244.19 7.50 236.20 6.42 228.32 8.31 Z" />
</g>
<g id="#d10606ff">
<path fill="#d10606" opacity="1.00" d=" M 228.32 8.31 C 236.20 6.42 244.19 7.50 252.15 7.91 C 260.71 9.23 267.30 16.05 275.70 18.25 C 292.38 24.20 311.70 19.49 326.53 31.02 C 324.52 33.64 322.01 36.92 318.34 36.79 C 295.18 37.46 271.97 28.85 249.10 35.59 C 242.19 36.37 235.08 39.91 228.97 34.89 C 220.72 37.53 233.33 44.17 238.01 43.31 C 242.44 42.74 253.65 52.38 245.46 51.64 C 242.48 47.34 233.83 45.22 231.54 49.79 C 235.17 61.52 222.79 55.82 216.66 57.25 C 212.96 54.34 202.47 58.74 208.08 62.83 C 215.03 63.56 220.01 73.03 214.73 78.33 C 218.17 69.25 209.54 67.26 204.21 62.81 C 199.94 59.32 210.63 56.85 207.44 52.64 C 205.64 46.36 192.69 52.05 195.97 43.02 C 199.31 32.51 207.85 24.61 212.87 14.86 C 213.01 13.62 212.42 12.88 211.11 12.66 C 216.37 9.57 222.46 9.27 228.32 8.31 Z" />
</g>
<g id="#ed7e7eff">
<path fill="#ed7e7e" opacity="1.00" d=" M 207.19 15.32 C 210.81 8.00 221.23 7.72 228.32 8.31 C 222.46 9.27 216.37 9.57 211.11 12.66 C 209.75 13.47 208.47 14.40 207.19 15.32 Z" />
</g>
<g id="#b70303ff">
<path fill="#b70303" opacity="1.00" d=" M 207.19 15.32 C 208.47 14.40 209.75 13.47 211.11 12.66 C 212.42 12.88 213.01 13.62 212.87 14.86 C 207.85 24.61 199.31 32.51 195.97 43.02 C 192.69 52.05 205.64 46.36 207.44 52.64 C 210.63 56.85 199.94 59.32 204.21 62.81 C 209.54 67.26 218.17 69.25 214.73 78.33 C 214.13 79.54 213.54 80.75 212.91 81.95 C 211.34 82.38 209.75 82.73 208.16 83.09 C 204.05 79.58 203.41 74.37 204.79 69.26 C 198.75 63.04 186.43 65.93 181.72 72.68 C 176.94 87.84 168.66 102.95 155.72 112.74 C 152.61 115.42 146.38 129.53 144.65 120.22 C 143.84 98.66 159.48 81.31 165.51 61.41 C 170.74 51.53 176.02 41.75 183.00 32.98 C 185.40 30.00 182.51 29.59 179.78 29.62 C 187.97 28.01 198.51 27.07 203.47 19.29 C 204.55 17.83 205.80 16.50 207.19 15.32 Z" />
</g>
<g id="#ef9697ff">
<path fill="#ef9697" opacity="1.00" d=" M 275.70 18.25 C 293.75 21.46 318.37 18.52 331.20 33.89 C 329.68 32.87 328.15 31.87 326.53 31.02 C 311.70 19.49 292.38 24.20 275.70 18.25 Z" />
</g>
<g id="#e08687ff">
<path fill="#e08687" opacity="1.00" d=" M 153.96 35.12 C 168.46 25.83 189.61 31.32 203.47 19.29 C 198.51 27.07 187.97 28.01 179.78 29.62 C 170.90 29.88 162.38 32.55 153.96 35.12 Z" />
</g>
<g id="#990606ff">
<path fill="#990606" opacity="1.00" d=" M 153.96 35.12 C 162.38 32.55 170.90 29.88 179.78 29.62 C 182.51 29.59 185.40 30.00 183.00 32.98 C 176.02 41.75 170.74 51.53 165.51 61.41 C 159.48 81.31 143.84 98.66 144.65 120.22 C 146.38 129.53 152.61 115.42 155.72 112.74 C 168.66 102.95 176.94 87.84 181.72 72.68 C 186.43 65.93 198.75 63.04 204.79 69.26 C 203.41 74.37 204.05 79.58 208.16 83.09 C 201.29 85.40 193.87 86.12 187.34 89.34 C 180.19 101.69 167.14 109.49 155.82 117.77 C 150.26 123.41 151.22 131.54 150.54 138.76 C 137.75 136.33 149.32 151.19 143.64 156.53 C 147.26 169.68 146.22 185.18 140.81 197.81 C 134.07 204.92 122.78 188.38 117.25 195.32 C 112.48 205.71 98.08 194.65 101.06 186.11 C 103.47 176.57 104.70 166.79 103.94 156.94 C 105.76 158.74 104.15 165.43 107.94 164.98 C 122.93 154.87 117.98 132.81 133.07 123.07 C 139.21 111.25 143.15 98.24 149.52 86.43 C 151.79 81.45 155.53 76.80 155.04 70.98 C 158.05 58.09 134.38 69.26 136.42 57.40 C 137.64 53.18 134.78 49.42 133.08 45.79 C 124.00 54.67 113.43 61.57 105.75 71.71 C 98.72 65.55 97.71 79.55 95.27 84.92 C 91.20 93.40 93.23 103.07 93.97 112.08 C 89.19 100.16 90.94 84.36 98.15 73.13 C 102.12 66.41 97.74 57.71 101.03 51.05 C 110.71 36.19 130.53 51.22 141.97 40.87 C 145.54 38.17 149.65 36.32 153.96 35.12 Z" />
</g>
<g id="#d91413ff">
<path fill="#d91413" opacity="1.00" d=" M 326.53 31.02 C 328.15 31.87 329.68 32.87 331.20 33.89 C 337.78 41.83 335.18 52.98 340.00 61.87 C 340.96 65.93 344.43 68.90 345.12 73.00 C 332.85 71.10 322.76 62.02 310.95 58.91 C 307.89 58.50 308.14 64.79 304.89 62.13 C 297.25 57.33 288.32 60.63 279.97 58.99 C 275.56 54.71 269.16 50.14 263.37 49.35 C 262.85 53.50 271.33 55.76 271.07 60.83 C 260.83 60.80 250.29 59.05 240.42 60.93 C 243.35 63.22 247.97 62.46 250.13 65.76 C 244.48 68.30 237.98 68.26 232.19 69.22 C 229.55 73.48 224.83 73.36 220.37 72.25 C 221.26 77.02 217.41 81.08 212.91 81.95 C 213.54 80.75 214.13 79.54 214.73 78.33 C 220.01 73.03 215.03 63.56 208.08 62.83 C 202.47 58.74 212.96 54.34 216.66 57.25 C 222.79 55.82 235.17 61.52 231.54 49.79 C 233.83 45.22 242.48 47.34 245.46 51.64 C 253.65 52.38 242.44 42.74 238.01 43.31 C 233.33 44.17 220.72 37.53 228.97 34.89 C 235.08 39.91 242.19 36.37 249.10 35.59 C 271.97 28.85 295.18 37.46 318.34 36.79 C 322.01 36.92 324.52 33.64 326.53 31.02 Z" />
</g>
<g id="#d36f71ff">
<path fill="#d36f71" opacity="1.00" d=" M 101.03 51.05 C 108.45 34.69 129.86 48.50 141.97 40.87 C 130.53 51.22 110.71 36.19 101.03 51.05 Z" />
</g>
<g id="#770202ff">
<path fill="#770202" opacity="1.00" d=" M 105.75 71.71 C 113.43 61.57 124.00 54.67 133.08 45.79 C 134.78 49.42 137.64 53.18 136.42 57.40 C 134.38 69.26 158.05 58.09 155.04 70.98 C 155.53 76.80 151.79 81.45 149.52 86.43 C 143.15 98.24 139.21 111.25 133.07 123.07 C 117.98 132.81 122.93 154.87 107.94 164.98 C 104.15 165.43 105.76 158.74 103.94 156.94 C 102.08 152.85 101.68 148.31 100.06 144.12 C 99.07 137.94 98.37 131.63 96.24 125.71 C 94.06 121.48 94.07 116.73 93.97 112.08 C 93.23 103.07 91.20 93.40 95.27 84.92 C 97.71 79.55 98.72 65.55 105.75 71.71 Z" />
</g>
<g id="#ba655aff">
<path fill="#ba655a" opacity="1.00" d=" M 263.37 49.35 C 269.16 50.14 275.56 54.71 279.97 58.99 C 276.39 57.09 273.04 54.40 268.91 53.85 C 271.61 57.17 274.45 60.45 277.99 62.89 C 283.58 69.43 273.30 66.43 270.39 63.60 C 257.50 66.08 243.45 66.53 232.17 73.03 C 227.03 72.81 222.43 74.49 224.73 79.90 C 215.89 82.63 207.48 87.32 198.15 88.09 C 189.08 87.30 188.54 97.97 180.99 100.95 C 170.84 112.25 148.43 119.18 154.08 137.97 C 157.11 143.23 145.13 138.12 147.18 143.84 C 148.91 157.17 145.44 165.62 149.92 178.98 C 145.30 185.67 147.44 201.06 137.24 201.69 C 134.15 200.94 130.99 200.47 127.85 200.07 C 124.52 197.74 120.06 192.24 117.70 198.54 C 113.29 210.32 101.10 197.34 98.78 190.46 C 99.57 189.12 99.32 186.45 101.06 186.11 C 98.08 194.65 112.48 205.71 117.25 195.32 C 122.78 188.38 134.07 204.92 140.81 197.81 C 146.22 185.18 147.26 169.68 143.64 156.53 C 149.32 151.19 137.75 136.33 150.54 138.76 C 151.22 131.54 150.26 123.41 155.82 117.77 C 167.14 109.49 180.19 101.69 187.34 89.34 C 193.87 86.12 201.29 85.40 208.16 83.09 C 209.75 82.73 211.34 82.38 212.91 81.95 C 217.41 81.08 221.26 77.02 220.37 72.25 C 224.83 73.36 229.55 73.48 232.19 69.22 C 237.98 68.26 244.48 68.30 250.13 65.76 C 247.97 62.46 243.35 63.22 240.42 60.93 C 250.29 59.05 260.83 60.80 271.07 60.83 C 271.33 55.76 262.85 53.50 263.37 49.35 Z" />
</g>
<g id="#e1dfd8ff">
<path fill="#e1dfd8" opacity="1.00" d=" M 268.91 53.85 C 273.04 54.40 276.39 57.09 279.97 58.99 C 290.15 63.31 302.42 61.83 312.96 66.09 C 307.60 55.68 323.88 66.26 328.16 68.82 C 320.21 71.41 312.76 68.81 305.25 66.60 C 285.25 74.35 263.64 72.86 242.53 75.59 C 237.92 89.50 255.69 91.57 262.66 99.20 C 266.18 103.78 256.64 97.72 254.13 100.21 C 253.18 107.65 261.66 111.22 264.64 117.14 C 265.07 125.13 254.25 116.46 251.52 122.05 C 256.09 124.04 261.36 124.99 264.62 129.13 C 263.17 131.96 259.90 136.09 264.96 137.08 C 283.65 141.33 303.22 133.05 322.15 138.71 C 329.70 139.01 342.54 133.38 344.62 144.51 C 345.92 148.42 350.64 148.25 354.02 149.19 C 343.34 152.27 332.72 148.12 322.23 147.33 C 303.23 157.99 278.05 140.12 261.18 155.14 C 260.68 155.22 259.66 155.39 259.16 155.47 C 250.88 146.14 236.34 150.33 224.90 148.85 C 225.09 144.42 229.28 141.69 231.16 137.94 C 228.04 134.59 223.84 132.11 224.31 126.71 C 209.62 129.42 207.24 108.64 218.93 103.92 C 221.05 101.55 226.10 100.17 224.86 96.29 C 222.04 94.81 218.89 95.34 215.89 95.70 C 216.24 89.34 223.31 83.22 229.75 85.76 C 232.35 81.68 234.36 76.83 236.45 72.30 C 253.48 73.11 267.31 64.80 284.08 69.01 C 284.80 65.22 280.81 63.87 277.99 62.89 C 274.45 60.45 271.61 57.17 268.91 53.85 Z" />
</g>
<g id="#e3837bff">
<path fill="#e3837b" opacity="1.00" d=" M 279.97 58.99 C 288.32 60.63 297.25 57.33 304.89 62.13 C 308.14 64.79 307.89 58.50 310.95 58.91 C 322.76 62.02 332.85 71.10 345.12 73.00 C 344.43 68.90 340.96 65.93 340.00 61.87 C 342.70 63.57 343.87 66.71 345.61 69.25 C 347.00 71.90 349.04 74.20 350.09 77.03 C 342.37 75.66 334.93 72.75 328.16 68.82 C 323.88 66.26 307.60 55.68 312.96 66.09 C 302.42 61.83 290.15 63.31 279.97 58.99 Z" />
</g>
<g id="#d3cfc4ff">
<path fill="#d3cfc4" opacity="1.00" d=" M 232.17 73.03 C 243.45 66.53 257.50 66.08 270.39 63.60 C 273.30 66.43 283.58 69.43 277.99 62.89 C 280.81 63.87 284.80 65.22 284.08 69.01 C 267.31 64.80 253.48 73.11 236.45 72.30 C 234.36 76.83 232.35 81.68 229.75 85.76 C 223.31 83.22 216.24 89.34 215.89 95.70 C 218.89 95.34 222.04 94.81 224.86 96.29 C 226.10 100.17 221.05 101.55 218.93 103.92 C 207.24 108.64 209.62 129.42 224.31 126.71 C 223.84 132.11 228.04 134.59 231.16 137.94 C 229.28 141.69 225.09 144.42 224.90 148.85 C 236.34 150.33 250.88 146.14 259.16 155.47 C 256.11 156.13 253.13 156.97 250.22 158.06 C 239.72 161.43 229.99 158.96 219.35 155.62 C 213.50 155.05 216.12 138.91 209.15 146.13 C 205.98 158.23 177.91 151.10 188.00 139.79 C 185.18 133.84 175.97 133.77 173.82 128.07 C 178.64 123.10 187.57 122.36 190.68 115.79 C 192.33 107.14 205.53 111.20 208.20 103.13 C 191.78 95.18 217.89 81.37 227.43 82.39 C 226.41 76.67 228.72 76.26 232.17 73.03 Z" />
</g>
<g id="#f5f5f2ff">
<path fill="#f5f5f2" opacity="1.00" d=" M 305.25 66.60 C 312.76 68.81 320.21 71.41 328.16 68.82 C 334.93 72.75 342.37 75.66 350.09 77.03 C 349.04 74.20 347.00 71.90 345.61 69.25 C 352.03 73.57 355.40 82.02 355.22 89.85 C 357.58 98.23 367.12 100.82 370.93 107.85 C 359.24 110.57 366.76 124.68 364.54 133.38 C 364.26 139.71 360.91 144.29 355.97 147.93 C 355.48 148.25 354.51 148.88 354.02 149.19 C 350.64 148.25 345.92 148.42 344.62 144.51 C 342.54 133.38 329.70 139.01 322.15 138.71 C 303.22 133.05 283.65 141.33 264.96 137.08 C 259.90 136.09 263.17 131.96 264.62 129.13 C 261.36 124.99 256.09 124.04 251.52 122.05 C 254.25 116.46 265.07 125.13 264.64 117.14 C 261.66 111.22 253.18 107.65 254.13 100.21 C 256.64 97.72 266.18 103.78 262.66 99.20 C 255.69 91.57 237.92 89.50 242.53 75.59 C 263.64 72.86 285.25 74.35 305.25 66.60 Z" />
</g>
<g id="#c6beb0ff">
<path fill="#c6beb0" opacity="1.00" d=" M 224.73 79.90 C 222.43 74.49 227.03 72.81 232.17 73.03 C 228.72 76.26 226.41 76.67 227.43 82.39 C 217.89 81.37 191.78 95.18 208.20 103.13 C 205.53 111.20 192.33 107.14 190.68 115.79 C 187.57 122.36 178.64 123.10 173.82 128.07 C 175.97 133.77 185.18 133.84 188.00 139.79 C 177.91 151.10 205.98 158.23 209.15 146.13 C 216.12 138.91 213.50 155.05 219.35 155.62 C 229.99 158.96 239.72 161.43 250.22 158.06 C 228.59 164.34 219.11 188.22 196.23 192.45 C 193.68 180.94 179.65 185.18 173.54 177.51 C 165.37 174.66 173.48 165.14 171.18 159.89 C 165.34 158.46 159.20 161.38 153.24 160.90 C 149.79 154.74 153.91 146.90 161.98 148.80 C 165.33 157.01 175.15 155.40 182.08 152.89 C 183.28 146.80 170.27 145.95 178.30 141.33 C 183.88 138.03 176.98 132.55 173.01 131.98 C 165.43 129.98 175.08 121.29 171.76 116.28 C 170.37 108.86 181.63 110.51 185.39 106.48 C 184.92 97.59 194.68 95.03 198.15 88.09 C 207.48 87.32 215.89 82.63 224.73 79.90 Z" />
</g>
<g id="#b3a390ff">
<path fill="#b3a390" opacity="1.00" d=" M 180.99 100.95 C 188.54 97.97 189.08 87.30 198.15 88.09 C 194.68 95.03 184.92 97.59 185.39 106.48 C 181.63 110.51 170.37 108.86 171.76 116.28 C 175.08 121.29 165.43 129.98 173.01 131.98 C 176.98 132.55 183.88 138.03 178.30 141.33 C 170.27 145.95 183.28 146.80 182.08 152.89 C 175.15 155.40 165.33 157.01 161.98 148.80 C 153.91 146.90 149.79 154.74 153.24 160.90 C 159.20 161.38 165.34 158.46 171.18 159.89 C 173.48 165.14 165.37 174.66 173.54 177.51 C 179.65 185.18 193.68 180.94 196.23 192.45 C 182.16 196.21 168.02 211.11 153.41 202.85 C 147.02 197.33 137.98 208.27 138.90 215.03 C 136.76 208.88 134.01 203.06 127.85 200.07 C 130.99 200.47 134.15 200.94 137.24 201.69 C 147.44 201.06 145.30 185.67 149.92 178.98 C 145.44 165.62 148.91 157.17 147.18 143.84 C 145.13 138.12 157.11 143.23 154.08 137.97 C 148.43 119.18 170.84 112.25 180.99 100.95 Z" />
</g>
<g id="#b87471ff">
<path fill="#b87471" opacity="1.00" d=" M 96.24 125.71 C 98.37 131.63 99.07 137.94 100.06 144.12 C 96.51 139.17 96.39 131.81 96.24 125.71 Z" />
</g>
<g id="#a1a1a1ff">
<path fill="#a1a1a1" opacity="1.00" d=" M 355.97 147.93 C 360.91 144.29 364.26 139.71 364.54 133.38 C 366.07 134.00 366.77 134.87 366.65 135.98 C 363.70 135.76 362.89 137.31 364.21 140.64 C 376.89 148.53 385.41 162.21 388.33 176.69 C 388.45 190.93 391.27 205.90 386.01 219.56 C 379.97 203.40 386.31 184.80 377.93 169.01 C 373.60 160.84 367.26 145.81 355.97 147.93 Z" />
</g>
<g id="#090806ff">
<path fill="#090806" opacity="1.00" d=" M 364.21 140.64 C 362.89 137.31 363.70 135.76 366.65 135.98 C 379.33 142.67 387.49 155.67 391.88 168.92 C 396.51 189.39 396.22 210.63 390.94 230.90 C 390.26 233.52 389.25 236.08 389.01 238.80 C 401.74 255.70 419.10 269.05 433.15 285.05 C 436.89 292.59 437.98 302.42 433.13 309.68 C 428.08 303.56 436.62 291.08 427.92 284.99 C 423.37 280.28 419.28 275.07 414.09 271.04 C 406.04 262.37 397.70 253.96 389.18 245.79 C 387.37 243.94 385.56 245.53 385.75 247.77 C 377.11 269.87 363.99 291.69 343.05 303.99 C 325.89 313.02 306.11 314.57 287.25 311.08 C 282.36 325.02 277.55 339.17 273.15 353.31 C 264.67 373.84 253.90 395.44 233.82 406.82 C 212.10 419.67 180.14 410.65 172.77 385.20 C 166.45 361.70 168.90 337.24 172.74 313.67 C 178.31 291.58 184.77 269.62 195.07 249.20 C 199.10 241.14 204.26 233.50 207.05 224.88 C 221.54 199.48 238.54 175.23 260.83 156.00 C 277.03 143.67 299.37 155.83 317.96 150.84 C 329.72 146.79 342.49 154.41 354.47 150.36 C 362.41 145.91 367.52 157.00 372.03 161.90 C 389.52 198.13 376.64 241.01 356.06 273.02 C 350.46 283.32 367.76 274.07 368.87 268.94 C 373.04 261.57 378.27 254.45 380.25 246.09 C 389.29 224.48 393.52 199.53 388.33 176.69 C 385.41 162.21 376.89 148.53 364.21 140.64 M 319.26 171.76 C 325.68 178.32 332.28 184.70 338.70 191.26 C 346.67 198.74 342.81 177.95 339.84 177.31 C 337.91 173.71 334.73 170.48 330.89 169.04 C 329.71 166.96 313.43 165.44 319.26 171.76 M 305.93 174.06 C 291.78 181.57 280.75 193.42 270.32 205.31 C 268.78 209.07 274.52 205.39 276.03 205.08 C 282.81 201.37 293.04 201.68 296.16 209.79 C 298.46 231.55 295.88 253.27 295.01 274.99 C 302.33 275.30 309.96 272.32 315.10 267.10 C 327.81 256.34 335.69 240.83 339.77 224.87 C 343.21 218.79 343.40 208.20 342.76 200.39 C 333.80 191.00 324.35 182.05 315.30 172.74 C 313.17 169.29 307.50 170.91 305.93 174.06 M 235.31 231.32 C 218.81 263.99 205.96 298.69 198.49 334.56 C 196.63 348.51 193.59 368.98 208.08 376.96 C 217.03 382.03 223.15 372.91 215.17 368.74 C 214.69 368.79 213.73 368.89 213.25 368.93 C 209.12 365.16 207.73 359.56 206.65 354.29 C 209.58 316.77 222.77 280.97 237.65 246.69 C 246.58 229.48 260.31 211.81 265.16 191.98 C 251.35 201.35 244.22 217.62 235.31 231.32 M 281.29 215.15 C 283.93 237.68 279.85 260.13 280.21 282.63 C 284.23 288.25 293.10 291.86 298.91 286.77 C 300.16 281.12 293.68 278.10 288.91 278.96 C 288.90 278.49 288.88 277.54 288.87 277.06 C 293.59 257.81 292.48 232.15 291.01 212.98 C 291.06 211.83 290.72 210.81 290.01 209.92 C 286.67 204.17 280.41 210.38 281.29 215.15 M 247.43 241.67 C 231.27 273.93 218.19 308.53 212.16 344.14 C 212.07 348.91 210.13 367.16 219.68 361.68 C 233.73 345.25 236.36 322.57 240.99 302.16 C 246.49 284.23 247.78 264.02 249.06 245.00 C 255.16 240.95 245.12 237.79 247.43 241.67 M 270.30 314.22 C 264.06 339.35 252.48 362.71 240.03 385.14 C 251.49 385.93 257.79 374.03 261.08 365.03 C 268.07 350.52 274.65 335.60 278.83 319.96 C 283.39 315.81 282.43 306.46 277.73 302.14 C 271.91 301.21 272.71 310.77 270.30 314.22 Z" />
</g>
<g id="#646362ff">
<path fill="#646362" opacity="1.00" d=" M 261.18 155.14 C 278.05 140.12 303.23 157.99 322.23 147.33 C 332.72 148.12 343.34 152.27 354.02 149.19 C 354.51 148.88 355.48 148.25 355.97 147.93 C 367.26 145.81 373.60 160.84 377.93 169.01 C 386.31 184.80 379.97 203.40 386.01 219.56 C 391.27 205.90 388.45 190.93 388.33 176.69 C 393.52 199.53 389.29 224.48 380.25 246.09 C 377.29 249.11 376.30 256.59 371.28 255.84 C 368.69 249.73 373.91 243.33 375.40 237.38 C 381.77 213.23 386.76 183.76 372.03 161.90 C 367.52 157.00 362.41 145.91 354.47 150.36 C 342.49 154.41 329.72 146.79 317.96 150.84 C 299.37 155.83 277.03 143.67 260.83 156.00 L 261.18 155.14 Z" />
</g>
<g id="#f9d504ff">
<path fill="#f9d504" opacity="1.00" d=" M 259.16 155.47 C 259.66 155.39 260.68 155.22 261.18 155.14 L 260.83 156.00 C 238.54 175.23 221.54 199.48 207.05 224.88 C 202.17 232.42 197.04 240.34 195.07 249.20 C 184.77 269.62 178.31 291.58 172.74 313.67 C 167.65 336.78 162.81 362.64 172.77 385.20 C 180.14 410.65 212.10 419.67 233.82 406.82 C 253.90 395.44 264.67 373.84 273.15 353.31 C 280.33 340.54 283.23 325.84 288.09 312.11 C 306.44 315.37 327.56 315.73 343.05 303.99 C 363.99 291.69 377.11 269.87 385.75 247.77 C 397.17 249.64 402.98 266.10 414.09 271.04 C 419.28 275.07 423.37 280.28 427.92 284.99 C 430.88 291.16 431.89 298.21 430.13 304.91 C 422.48 318.00 409.10 326.25 400.07 338.23 C 394.76 344.21 388.44 349.15 382.78 354.78 C 371.05 364.65 360.31 375.77 350.13 387.22 C 342.02 396.41 332.03 403.67 323.90 412.82 C 313.03 421.57 303.30 431.79 294.05 442.21 C 281.39 453.66 270.70 468.85 255.04 476.07 C 230.74 480.29 219.07 452.40 201.86 440.30 C 192.29 429.53 182.35 418.76 171.17 409.67 C 164.19 402.74 156.52 396.53 149.83 389.29 C 139.00 377.13 127.62 365.15 115.16 354.67 C 110.64 349.93 105.67 345.67 100.79 341.32 C 91.39 330.07 80.63 319.96 69.98 309.91 C 66.12 303.37 65.64 294.77 69.01 287.94 C 72.25 282.67 75.05 291.77 77.48 293.66 C 91.81 295.60 107.24 296.85 121.20 292.12 C 130.12 285.99 142.41 282.66 147.30 272.28 C 148.89 268.38 149.62 264.20 150.23 260.07 C 150.93 256.41 151.41 252.66 150.24 249.07 C 149.22 237.68 146.74 225.84 139.76 216.49 C 144.42 212.06 149.12 207.65 153.41 202.85 C 168.02 211.11 182.16 196.21 196.23 192.45 C 219.11 188.22 228.59 164.34 250.22 158.06 C 253.13 156.97 256.11 156.13 259.16 155.47 Z" />
</g>
<g id="#353535ff">
<path fill="#353535" opacity="1.00" d=" M 372.03 161.90 C 386.76 183.76 381.77 213.23 375.40 237.38 C 373.91 243.33 368.69 249.73 371.28 255.84 C 376.30 256.59 377.29 249.11 380.25 246.09 C 378.27 254.45 373.04 261.57 368.87 268.94 C 367.76 274.07 350.46 283.32 356.06 273.02 C 376.64 241.01 389.52 198.13 372.03 161.90 Z" />
</g>
<g id="#7f6e17ff">
<path fill="#7f6e17" opacity="1.00" d=" M 319.26 171.76 C 313.43 165.44 329.71 166.96 330.89 169.04 C 330.13 169.03 328.60 169.02 327.84 169.02 C 325.36 169.51 321.13 167.79 319.83 169.99 C 327.14 177.01 333.39 185.84 341.97 191.26 C 342.50 187.40 341.28 183.78 339.82 180.33 C 339.82 179.57 339.84 178.06 339.84 177.31 C 342.81 177.95 346.67 198.74 338.70 191.26 C 332.28 184.70 325.68 178.32 319.26 171.76 Z" />
</g>
<g id="#f4d608ff">
<path fill="#f4d608" opacity="1.00" d=" M 319.83 169.99 C 321.13 167.79 325.36 169.51 327.84 169.02 C 331.59 173.01 335.15 177.35 339.82 180.33 C 341.28 183.78 342.50 187.40 341.97 191.26 C 333.39 185.84 327.14 177.01 319.83 169.99 Z" />
</g>
<g id="#e0dcafff">
<path fill="#e0dcaf" opacity="1.00" d=" M 327.84 169.02 C 328.60 169.02 330.13 169.03 330.89 169.04 C 334.73 170.48 337.91 173.71 339.84 177.31 C 339.84 178.06 339.82 179.57 339.82 180.33 C 335.15 177.35 331.59 173.01 327.84 169.02 Z" />
</g>
<g id="#6f6f6eff">
<path fill="#6f6f6e" opacity="1.00" d=" M 391.88 168.92 C 400.11 187.98 395.65 211.04 392.66 231.17 C 392.23 231.10 391.37 230.97 390.94 230.90 C 396.22 210.63 396.51 189.39 391.88 168.92 Z" />
</g>
<g id="#7b670dff">
<path fill="#7b670d" opacity="1.00" d=" M 305.93 174.06 C 307.50 170.91 313.17 169.29 315.30 172.74 C 324.35 182.05 333.80 191.00 342.76 200.39 C 343.40 208.20 343.21 218.79 339.77 224.87 C 340.24 217.26 342.65 209.80 341.96 202.13 C 333.28 191.88 323.08 182.92 313.74 173.25 C 311.57 170.65 308.44 173.47 305.93 174.06 Z" />
</g>
<g id="#f7d303ff">
<path fill="#f7d303" opacity="1.00" d=" M 305.93 174.06 C 308.44 173.47 311.57 170.65 313.74 173.25 C 323.08 182.92 333.28 191.88 341.96 202.13 C 342.65 209.80 340.24 217.26 339.77 224.87 C 335.69 240.83 327.81 256.34 315.10 267.10 C 309.20 270.46 302.92 273.34 296.07 273.89 C 296.77 252.76 301.49 230.34 296.16 209.79 C 293.04 201.68 282.81 201.37 276.03 205.08 C 274.52 205.39 268.78 209.07 270.32 205.31 C 280.75 193.42 291.78 181.57 305.93 174.06 Z" />
</g>
<g id="#d9d4c8ff">
<path fill="#d9d4c8" opacity="1.00" d=" M 71.12 204.55 C 78.34 196.59 97.27 200.83 98.78 190.46 C 101.10 197.34 113.29 210.32 117.70 198.54 C 120.06 192.24 124.52 197.74 127.85 200.07 C 134.01 203.06 136.76 208.88 138.90 215.03 C 139.12 215.39 139.55 216.12 139.76 216.49 C 146.74 225.84 149.22 237.68 150.24 249.07 C 141.43 245.94 145.19 233.37 139.87 227.11 C 134.79 220.81 130.84 206.25 120.29 211.19 C 113.56 217.52 99.18 202.68 100.22 217.24 C 93.92 216.06 87.71 221.63 89.08 228.31 C 84.11 226.61 73.59 227.19 75.92 236.05 C 73.73 250.52 88.48 254.86 99.35 257.69 C 108.63 260.76 118.35 262.17 127.76 264.76 C 133.94 259.18 143.60 265.92 150.23 260.07 C 149.62 264.20 148.89 268.38 147.30 272.28 C 144.34 276.52 137.88 273.08 134.86 276.73 C 134.89 282.01 130.04 285.65 125.09 286.11 C 117.10 279.62 111.48 269.08 100.38 267.59 C 85.18 264.96 70.79 252.90 68.70 237.31 C 65.54 232.69 67.68 227.79 71.88 224.83 C 77.02 219.85 78.33 208.18 71.12 204.55 Z" />
</g>
<g id="#313131ff">
<path fill="#313131" opacity="1.00" d=" M 235.31 231.32 C 244.22 217.62 251.35 201.35 265.16 191.98 C 260.31 211.81 246.58 229.48 237.65 246.69 C 238.04 242.92 240.89 237.28 238.97 234.84 C 221.56 255.00 216.01 282.45 206.80 306.89 C 202.41 327.13 191.61 351.09 203.22 370.71 C 206.20 376.61 219.39 378.19 215.17 368.74 C 223.15 372.91 217.03 382.03 208.08 376.96 C 193.59 368.98 196.63 348.51 198.49 334.56 C 205.96 298.69 218.81 263.99 235.31 231.32 Z" />
</g>
<g id="#342d19ff">
<path fill="#342d19" opacity="1.00" d=" M 138.90 215.03 C 137.98 208.27 147.02 197.33 153.41 202.85 C 149.12 207.65 144.42 212.06 139.76 216.49 C 139.55 216.12 139.12 215.39 138.90 215.03 Z" />
</g>
<g id="#c5bdaeff">
<path fill="#c5bdae" opacity="1.00" d=" M 54.26 218.15 C 57.72 211.39 66.81 210.86 71.12 204.55 C 78.33 208.18 77.02 219.85 71.88 224.83 C 67.68 227.79 65.54 232.69 68.70 237.31 C 70.79 252.90 85.18 264.96 100.38 267.59 C 111.48 269.08 117.10 279.62 125.09 286.11 C 130.04 285.65 134.89 282.01 134.86 276.73 C 137.88 273.08 144.34 276.52 147.30 272.28 C 142.41 282.66 130.12 285.99 121.20 292.12 C 108.67 280.19 93.31 272.02 80.04 260.90 C 71.56 254.24 54.91 252.31 55.75 239.94 C 52.02 240.87 47.90 243.26 49.02 247.75 C 43.43 238.82 54.14 228.49 54.26 218.15 Z" />
</g>
<g id="#49494aff">
<path fill="#49494a" opacity="1.00" d=" M 281.29 215.15 C 280.41 210.38 286.67 204.17 290.01 209.92 C 287.44 208.76 283.41 209.13 283.73 212.82 C 283.70 233.23 285.07 253.76 282.14 274.08 C 280.27 279.60 285.41 287.40 291.76 284.90 C 295.25 282.41 290.49 280.67 288.91 278.96 C 293.68 278.10 300.16 281.12 298.91 286.77 C 293.10 291.86 284.23 288.25 280.21 282.63 C 279.85 260.13 283.93 237.68 281.29 215.15 Z" />
</g>
<g id="#929292ff">
<path fill="#929292" opacity="1.00" d=" M 283.73 212.82 C 283.41 209.13 287.44 208.76 290.01 209.92 C 290.72 210.81 291.06 211.83 291.01 212.98 C 291.65 234.39 290.64 255.74 288.87 277.06 C 288.88 277.54 288.90 278.49 288.91 278.96 C 290.49 280.67 295.25 282.41 291.76 284.90 C 285.41 287.40 280.27 279.60 282.14 274.08 C 285.07 253.76 283.70 233.23 283.73 212.82 Z" />
</g>
<g id="#e9e9e3ff">
<path fill="#e9e9e3" opacity="1.00" d=" M 100.22 217.24 C 99.18 202.68 113.56 217.52 120.29 211.19 C 130.84 206.25 134.79 220.81 139.87 227.11 C 145.19 233.37 141.43 245.94 150.24 249.07 C 151.41 252.66 150.93 256.41 150.23 260.07 C 143.60 265.92 133.94 259.18 127.76 264.76 C 118.35 262.17 108.63 260.76 99.35 257.69 C 88.48 254.86 73.73 250.52 75.92 236.05 C 73.59 227.19 84.11 226.61 89.08 228.31 C 87.71 221.63 93.92 216.06 100.22 217.24 Z" />
</g>
<g id="#826e02ff">
<path fill="#826e02" opacity="1.00" d=" M 296.16 209.79 C 301.49 230.34 296.77 252.76 296.07 273.89 C 302.92 273.34 309.20 270.46 315.10 267.10 C 309.96 272.32 302.33 275.30 295.01 274.99 C 295.88 253.27 298.46 231.55 296.16 209.79 Z" />
</g>
<g id="#575657ff">
<path fill="#575657" opacity="1.00" d=" M 291.01 212.98 C 292.48 232.15 293.59 257.81 288.87 277.06 C 290.64 255.74 291.65 234.39 291.01 212.98 Z" />
</g>
<g id="#887402ff">
<path fill="#887402" opacity="1.00" d=" M 195.07 249.20 C 197.04 240.34 202.17 232.42 207.05 224.88 C 204.26 233.50 199.10 241.14 195.07 249.20 Z" />
</g>
<g id="#f5d40eff">
<path fill="#f5d40e" opacity="1.00" d=" M 390.94 230.90 C 391.37 230.97 392.23 231.10 392.66 231.17 C 411.63 247.86 431.35 265.90 446.23 286.76 C 448.43 294.32 448.76 302.52 445.96 309.96 C 423.50 333.50 399.91 355.95 376.78 378.85 C 376.53 379.07 376.03 379.52 375.77 379.75 C 365.05 388.65 355.38 398.86 345.94 409.10 C 337.46 419.20 326.72 427.03 317.74 436.66 C 306.55 446.47 295.89 457.03 285.96 468.12 C 273.54 478.08 264.05 495.72 247.01 497.05 C 240.45 494.32 234.43 489.71 229.02 485.00 C 218.67 474.32 208.66 463.11 197.27 453.53 C 164.76 422.83 133.38 390.85 101.33 359.76 C 88.26 344.14 73.27 330.33 58.07 316.81 C 51.44 304.91 53.26 291.09 57.25 278.82 C 60.54 277.56 63.87 280.94 65.39 283.60 C 50.63 308.28 79.10 326.76 94.17 341.72 C 104.11 352.75 114.23 364.03 125.85 373.31 C 134.24 382.19 143.90 389.76 152.19 398.75 C 160.96 408.96 170.44 418.71 180.83 427.28 C 187.85 434.86 196.03 441.25 203.18 448.71 C 211.00 457.87 219.39 466.78 228.76 474.36 C 240.70 485.39 260.35 484.39 271.15 472.26 C 281.07 463.88 290.60 454.78 298.92 444.79 C 306.97 435.56 316.97 428.30 325.13 419.18 C 335.65 410.77 344.98 400.87 353.89 390.80 C 376.23 368.46 398.15 345.80 421.28 324.28 C 425.79 319.90 430.66 315.64 433.13 309.68 C 437.98 302.42 436.89 292.59 433.15 285.05 C 421.11 267.65 403.59 254.23 389.01 238.80 C 389.25 236.08 390.26 233.52 390.94 230.90 Z" />
</g>
<g id="#5b5b5bff">
<path fill="#5b5b5b" opacity="1.00" d=" M 206.80 306.89 C 216.01 282.45 221.56 255.00 238.97 234.84 C 240.89 237.28 238.04 242.92 237.65 246.69 C 222.77 280.97 209.58 316.77 206.65 354.29 C 204.51 342.98 208.45 331.90 209.88 320.81 C 197.51 332.90 194.38 359.10 206.96 372.08 C 210.06 374.32 215.63 373.17 213.25 368.93 C 213.73 368.89 214.69 368.79 215.17 368.74 C 219.39 378.19 206.20 376.61 203.22 370.71 C 191.61 351.09 202.41 327.13 206.80 306.89 Z" />
</g>
<g id="#6b5a18ff">
<path fill="#6b5a18" opacity="1.00" d=" M 389.01 238.80 C 403.59 254.23 421.11 267.65 433.15 285.05 C 419.10 269.05 401.74 255.70 389.01 238.80 Z" />
</g>
<g id="#9d917cff">
<path fill="#9d917c" opacity="1.00" d=" M 49.02 247.75 C 47.90 243.26 52.02 240.87 55.75 239.94 C 54.91 252.31 71.56 254.24 80.04 260.90 C 93.31 272.02 108.67 280.19 121.20 292.12 C 107.24 296.85 91.81 295.60 77.48 293.66 C 75.05 291.77 72.25 282.67 69.01 287.94 C 69.58 285.07 68.32 283.47 65.39 283.60 C 63.87 280.94 60.54 277.56 57.25 278.82 C 54.01 268.70 50.09 258.62 49.02 247.75 Z" />
</g>
<g id="#826f02ff">
<path fill="#826f02" opacity="1.00" d=" M 247.43 241.67 C 245.12 237.79 255.16 240.95 249.06 245.00 C 247.78 264.02 246.49 284.23 240.99 302.16 C 242.88 282.00 248.39 261.96 247.43 241.67 Z" />
</g>
<g id="#f2d003ff">
<path fill="#f2d003" opacity="1.00" d=" M 247.43 241.67 C 248.39 261.96 242.88 282.00 240.99 302.16 C 236.36 322.57 233.73 345.25 219.68 361.68 C 210.13 367.16 212.07 348.91 212.16 344.14 C 218.19 308.53 231.27 273.93 247.43 241.67 Z" />
</g>
<g id="#947d13ff">
<path fill="#947d13" opacity="1.00" d=" M 385.75 247.77 C 385.56 245.53 387.37 243.94 389.18 245.79 C 397.70 253.96 406.04 262.37 414.09 271.04 C 402.98 266.10 397.17 249.64 385.75 247.77 Z" />
</g>
<g id="#2a221dff">
<path fill="#2a221d" opacity="1.00" d=" M 65.39 283.60 C 68.32 283.47 69.58 285.07 69.01 287.94 C 65.64 294.77 66.12 303.37 69.98 309.91 C 78.86 321.45 89.67 331.88 100.79 341.32 C 105.67 345.67 110.64 349.93 115.16 354.67 C 125.97 366.85 137.35 378.85 149.83 389.29 C 156.52 396.53 164.19 402.74 171.17 409.67 C 180.69 420.47 190.63 431.28 201.86 440.30 C 219.07 452.40 230.74 480.29 255.04 476.07 C 270.70 468.85 281.39 453.66 294.05 442.21 C 304.93 433.49 314.67 423.26 323.90 412.82 C 332.03 403.67 342.02 396.41 350.13 387.22 C 361.92 377.44 372.68 366.29 382.78 354.78 C 388.44 349.15 394.76 344.21 400.07 338.23 C 410.36 327.89 425.27 319.15 430.13 304.91 C 431.89 298.21 430.88 291.16 427.92 284.99 C 436.62 291.08 428.08 303.56 433.13 309.68 C 430.66 315.64 425.79 319.90 421.28 324.28 C 398.15 345.80 376.23 368.46 353.89 390.80 C 343.37 399.21 334.03 409.10 325.13 419.18 C 316.97 428.30 306.97 435.56 298.92 444.79 C 288.94 453.08 279.31 462.16 271.15 472.26 C 260.35 484.39 240.70 485.39 228.76 474.36 C 221.04 465.12 212.67 456.14 203.18 448.71 C 196.03 441.25 187.85 434.86 180.83 427.28 C 172.07 417.06 162.58 407.31 152.19 398.75 C 143.90 389.76 134.24 382.19 125.85 373.31 C 115.91 362.27 105.79 350.98 94.17 341.72 C 79.10 326.76 50.63 308.28 65.39 283.60 Z" />
</g>
<g id="#fbe98dff">
<path fill="#fbe98d" opacity="1.00" d=" M 446.23 286.76 C 451.48 291.17 451.42 304.82 445.96 309.96 C 448.76 302.52 448.43 294.32 446.23 286.76 Z" />
</g>
<g id="#303030ff">
<path fill="#303030" opacity="1.00" d=" M 270.30 314.22 C 272.71 310.77 271.91 301.21 277.73 302.14 C 282.43 306.46 283.39 315.81 278.83 319.96 C 280.30 315.22 283.06 305.78 275.21 306.09 C 268.61 325.24 262.28 344.57 254.30 363.25 C 250.60 372.56 258.31 368.14 261.08 365.03 C 257.79 374.03 251.49 385.93 240.03 385.14 C 252.48 362.71 264.06 339.35 270.30 314.22 Z" />
</g>
<g id="#857202ff">
<path fill="#857202" opacity="1.00" d=" M 287.25 311.08 C 306.11 314.57 325.89 313.02 343.05 303.99 C 327.56 315.73 306.44 315.37 288.09 312.11 C 283.23 325.84 280.33 340.54 273.15 353.31 C 277.55 339.17 282.36 325.02 287.25 311.08 Z" />
</g>
<g id="#8b7516ff">
<path fill="#8b7516" opacity="1.00" d=" M 400.07 338.23 C 409.10 326.25 422.48 318.00 430.13 304.91 C 425.27 319.15 410.36 327.89 400.07 338.23 Z" />
</g>
<g id="#585858ff">
<path fill="#585858" opacity="1.00" d=" M 275.21 306.09 C 283.06 305.78 280.30 315.22 278.83 319.96 C 274.65 335.60 268.07 350.52 261.08 365.03 C 258.31 368.14 250.60 372.56 254.30 363.25 C 262.28 344.57 268.61 325.24 275.21 306.09 Z" />
</g>
<g id="#867212ff">
<path fill="#867212" opacity="1.00" d=" M 69.98 309.91 C 80.63 319.96 91.39 330.07 100.79 341.32 C 89.67 331.88 78.86 321.45 69.98 309.91 Z" />
</g>
<g id="#fae786ff">
<path fill="#fae786" opacity="1.00" d=" M 376.78 378.85 C 399.91 355.95 423.50 333.50 445.96 309.96 C 436.43 325.60 419.89 336.78 407.78 350.78 C 396.98 359.45 388.32 371.94 376.78 378.85 Z" />
</g>
<g id="#877302ff">
<path fill="#877302" opacity="1.00" d=" M 172.77 385.20 C 162.81 362.64 167.65 336.78 172.74 313.67 C 168.90 337.24 166.45 361.70 172.77 385.20 Z" />
</g>
<g id="#f1e183ff">
<path fill="#f1e183" opacity="1.00" d=" M 58.07 316.81 C 73.27 330.33 88.26 344.14 101.33 359.76 C 86.67 346.07 70.20 332.26 58.07 316.81 Z" />
</g>
<g id="#919191ff">
<path fill="#919191" opacity="1.00" d=" M 206.96 372.08 C 194.38 359.10 197.51 332.90 209.88 320.81 C 208.45 331.90 204.51 342.98 206.65 354.29 C 207.73 359.56 209.12 365.16 213.25 368.93 C 215.63 373.17 210.06 374.32 206.96 372.08 Z" />
</g>
<g id="#8e7c14ff">
<path fill="#8e7c14" opacity="1.00" d=" M 94.17 341.72 C 105.79 350.98 115.91 362.27 125.85 373.31 C 114.23 364.03 104.11 352.75 94.17 341.72 Z" />
</g>
<g id="#937d11ff">
<path fill="#937d11" opacity="1.00" d=" M 115.16 354.67 C 127.62 365.15 139.00 377.13 149.83 389.29 C 137.35 378.85 125.97 366.85 115.16 354.67 Z" />
</g>
<g id="#957e12ff">
<path fill="#957e12" opacity="1.00" d=" M 350.13 387.22 C 360.31 375.77 371.05 364.65 382.78 354.78 C 372.68 366.29 361.92 377.44 350.13 387.22 Z" />
</g>
<g id="#fbeb83ff">
<path fill="#fbeb83" opacity="1.00" d=" M 345.94 409.10 C 355.38 398.86 365.05 388.65 375.77 379.75 C 366.61 389.98 356.97 401.17 345.94 409.10 Z" />
</g>
<g id="#907c10ff">
<path fill="#907c10" opacity="1.00" d=" M 325.13 419.18 C 334.03 409.10 343.37 399.21 353.89 390.80 C 344.98 400.87 335.65 410.77 325.13 419.18 Z" />
</g>
<g id="#8f7e14ff">
<path fill="#8f7e14" opacity="1.00" d=" M 152.19 398.75 C 162.58 407.31 172.07 417.06 180.83 427.28 C 170.44 418.71 160.96 408.96 152.19 398.75 Z" />
</g>
<g id="#957f10ff">
<path fill="#957f10" opacity="1.00" d=" M 171.17 409.67 C 182.35 418.76 192.29 429.53 201.86 440.30 C 190.63 431.28 180.69 420.47 171.17 409.67 Z" />
</g>
<g id="#937d12ff">
<path fill="#937d12" opacity="1.00" d=" M 294.05 442.21 C 303.30 431.79 313.03 421.57 323.90 412.82 C 314.67 423.26 304.93 433.49 294.05 442.21 Z" />
</g>
<g id="#faeb88ff">
<path fill="#faeb88" opacity="1.00" d=" M 285.96 468.12 C 295.89 457.03 306.55 446.47 317.74 436.66 C 307.97 447.54 297.78 459.60 285.96 468.12 Z" />
</g>
<g id="#8f7910ff">
<path fill="#8f7910" opacity="1.00" d=" M 271.15 472.26 C 279.31 462.16 288.94 453.08 298.92 444.79 C 290.60 454.78 281.07 463.88 271.15 472.26 Z" />
</g>
<g id="#897715ff">
<path fill="#897715" opacity="1.00" d=" M 203.18 448.71 C 212.67 456.14 221.04 465.12 228.76 474.36 C 219.39 466.78 211.00 457.87 203.18 448.71 Z" />
</g>
<g id="#fbeb88ff">
<path fill="#fbeb88" opacity="1.00" d=" M 197.27 453.53 C 208.66 463.11 218.67 474.32 229.02 485.00 C 217.68 475.88 206.19 465.04 197.27 453.53 Z" />
</g>
</svg>
