<?xml version="1.0" encoding="UTF-8" ?>
<!DOCTYPE svg PUBLIC "-//W3C//DTD SVG 1.1//EN" "http://www.w3.org/Graphics/SVG/1.1/DTD/svg11.dtd">
<svg width="582pt" height="335pt" viewBox="0 0 582 335" version="1.1" xmlns="http://www.w3.org/2000/svg">
<g id="#fffffeff">
<path fill="#fffffe" opacity="1.00" d=" M 0.00 0.00 L 582.00 0.00 L 582.00 335.00 L 0.00 335.00 L 0.00 0.00 M 99.44 15.64 C 90.02 27.17 72.85 22.16 62.05 31.74 C 56.42 30.90 48.88 28.75 45.18 34.16 C 42.80 47.37 37.29 60.20 41.98 74.01 C 45.99 85.09 46.37 96.38 44.16 107.84 C 33.23 113.78 18.71 115.72 17.84 132.01 C 18.20 144.81 28.71 164.26 42.99 159.05 C 50.18 163.22 63.24 158.27 65.19 148.76 C 65.98 148.92 67.56 149.23 68.35 149.39 C 63.62 165.33 60.16 182.39 65.06 198.78 C 58.02 206.73 48.97 213.61 44.27 223.31 C 43.11 233.73 54.00 239.88 60.26 246.78 C 86.40 271.54 110.48 298.65 137.17 322.78 C 151.83 331.43 161.10 313.68 170.63 305.63 C 185.09 291.08 199.84 276.79 214.04 261.98 C 308.86 261.38 405.50 263.28 499.18 261.03 L 500.15 261.02 C 507.83 259.85 515.61 256.31 521.13 250.97 C 529.52 242.03 534.02 229.14 535.78 217.10 C 537.71 209.58 537.03 201.74 536.96 194.07 C 537.88 191.21 537.51 188.90 535.84 187.16 C 544.59 190.86 548.64 174.61 543.32 171.70 C 531.62 172.84 537.43 161.96 539.28 155.69 C 546.30 162.16 561.77 168.98 567.21 157.99 C 570.73 154.49 565.83 148.25 563.26 144.71 C 562.19 131.79 570.54 117.52 562.57 105.41 C 555.73 94.81 542.00 84.01 530.11 88.85 C 525.32 89.97 520.78 92.03 516.78 94.87 C 511.95 101.13 497.92 107.34 502.19 116.70 C 485.13 124.90 473.38 143.98 471.41 162.56 C 475.37 174.47 454.44 173.86 449.23 166.70 C 448.73 154.77 455.05 143.79 457.38 132.16 C 462.33 130.44 470.36 134.94 473.67 129.67 C 479.81 121.15 472.05 113.50 461.94 117.92 C 464.66 106.25 472.69 95.55 471.86 83.33 C 465.21 75.87 450.68 77.87 448.10 88.09 C 442.22 98.12 446.37 121.47 430.10 118.12 C 424.85 123.14 424.27 135.68 435.08 132.19 C 431.82 143.90 429.53 156.38 422.63 166.63 C 418.34 171.33 408.02 173.40 404.00 168.90 C 408.14 152.58 414.33 136.67 419.67 120.65 C 422.46 108.69 404.88 110.08 398.73 115.79 C 391.22 126.77 392.37 141.37 386.14 153.13 C 382.68 164.78 372.10 176.15 359.03 169.79 C 360.82 158.79 368.05 149.45 370.67 138.65 C 373.63 126.41 359.94 122.29 352.21 116.71 C 354.01 109.53 349.88 99.28 341.00 100.97 C 329.62 99.79 324.88 114.81 329.48 123.47 C 327.16 139.03 318.81 154.50 308.33 166.33 C 305.16 171.11 291.65 174.55 291.39 166.36 C 297.66 135.23 312.74 106.95 324.82 77.86 C 328.02 66.08 309.58 64.92 303.70 70.73 C 294.65 83.35 291.94 99.53 285.83 113.75 C 253.19 102.85 223.82 138.89 226.83 169.76 C 221.72 172.22 198.89 172.63 210.18 165.14 C 222.31 153.10 234.93 130.49 220.79 115.23 C 198.54 102.73 173.78 123.72 171.32 146.23 C 169.86 143.93 167.78 142.11 165.61 140.50 C 175.35 124.27 181.21 100.48 173.12 84.37 C 173.04 75.00 178.75 63.41 170.33 56.68 C 170.37 53.98 171.70 47.55 168.34 46.41 C 164.64 41.22 162.37 35.36 162.02 28.94 C 155.08 16.18 138.40 22.80 127.83 16.12 C 119.80 10.40 107.10 11.41 99.44 15.64 M 413.38 68.28 C 398.74 73.03 402.18 100.36 419.59 94.65 C 435.90 91.10 432.05 60.83 413.38 68.28 Z" />
</g>
<g id="#d5110fff">
<path fill="#d5110f" opacity="1.00" d=" M 99.44 15.64 C 107.10 11.41 119.80 10.40 127.83 16.12 C 138.40 22.80 155.08 16.18 162.02 28.94 C 162.37 35.36 164.64 41.22 168.34 46.41 C 162.15 47.45 157.43 40.30 151.30 40.38 C 146.20 43.01 140.33 38.61 134.90 39.39 C 129.60 34.98 123.86 33.31 131.59 40.36 C 126.36 39.26 123.71 43.27 117.05 39.78 C 126.12 47.75 100.56 42.31 106.43 49.84 C 104.75 50.34 103.04 50.74 101.37 51.25 C 104.81 44.79 94.27 42.77 97.64 36.24 C 86.77 31.11 100.44 23.38 99.44 15.64 Z" />
</g>
<g id="#ac0706ff">
<path fill="#ac0706" opacity="1.00" d=" M 62.05 31.74 C 72.85 22.16 90.02 27.17 99.44 15.64 C 100.44 23.38 86.77 31.11 97.64 36.24 C 94.27 42.77 104.81 44.79 101.37 51.25 C 98.61 52.24 95.75 52.95 92.93 53.73 C 85.27 56.05 81.90 65.19 74.22 68.15 C 69.81 70.80 70.72 76.30 69.83 80.58 C 66.71 79.60 66.96 82.10 67.12 84.40 C 55.26 85.86 65.95 71.04 65.49 65.38 C 68.45 54.29 76.25 44.64 77.06 32.92 C 71.38 36.78 66.49 38.16 62.05 31.74 Z" />
</g>
<g id="#850504ff">
<path fill="#850504" opacity="1.00" d=" M 45.18 34.16 C 48.88 28.75 56.42 30.90 62.05 31.74 C 66.49 38.16 71.38 36.78 77.06 32.92 C 76.25 44.64 68.45 54.29 65.49 65.38 C 65.95 71.04 55.26 85.86 67.12 84.40 C 67.16 87.03 67.34 89.67 67.76 92.27 C 66.49 98.78 68.77 107.30 63.20 112.22 C 59.23 112.02 54.48 105.72 51.87 110.93 C 49.38 114.05 46.34 109.24 44.16 107.84 C 46.37 96.38 45.99 85.09 41.98 74.01 C 37.29 60.20 42.80 47.37 45.18 34.16 Z" />
</g>
<g id="#cac2b6ff">
<path fill="#cac2b6" opacity="1.00" d=" M 131.59 40.36 C 123.86 33.31 129.60 34.98 134.90 39.39 C 139.60 47.45 130.10 41.50 124.86 43.82 C 121.38 47.40 114.87 43.18 112.06 48.02 C 110.29 51.53 105.98 52.55 104.11 55.84 C 109.80 61.31 94.75 67.12 102.67 72.25 C 108.18 73.74 110.84 79.49 109.05 84.72 C 114.91 84.65 120.51 86.37 126.23 87.35 C 113.61 89.26 106.73 101.51 96.16 107.31 C 90.62 105.95 84.70 101.60 79.28 98.69 C 81.82 90.28 73.47 90.32 67.76 92.27 C 69.21 84.38 76.84 86.24 82.78 87.96 C 84.16 83.86 85.06 76.38 79.35 74.76 C 76.84 63.66 90.38 63.55 92.93 53.73 C 95.75 52.95 98.61 52.24 101.37 51.25 C 103.04 50.74 104.75 50.34 106.43 49.84 C 100.56 42.31 126.12 47.75 117.05 39.78 C 123.71 43.27 126.36 39.26 131.59 40.36 Z" />
</g>
<g id="#edece8ff">
<path fill="#edece8" opacity="1.00" d=" M 124.86 43.82 C 130.10 41.50 139.60 47.45 134.90 39.39 C 140.33 38.61 146.20 43.01 151.30 40.38 C 157.43 40.30 162.15 47.45 168.34 46.41 C 171.70 47.55 170.37 53.98 170.33 56.68 C 178.75 63.41 173.04 75.00 173.12 84.37 C 158.94 89.71 141.53 82.75 126.23 87.35 C 120.51 86.37 114.91 84.65 109.05 84.72 C 110.84 79.49 108.18 73.74 102.67 72.25 C 94.75 67.12 109.80 61.31 104.11 55.84 C 105.98 52.55 110.29 51.53 112.06 48.02 C 114.87 43.18 121.38 47.40 124.86 43.82 Z" />
</g>
<g id="#b59c8dff">
<path fill="#b59c8d" opacity="1.00" d=" M 74.22 68.15 C 81.90 65.19 85.27 56.05 92.93 53.73 C 90.38 63.55 76.84 63.66 79.35 74.76 C 85.06 76.38 84.16 83.86 82.78 87.96 C 76.84 86.24 69.21 84.38 67.76 92.27 C 67.34 89.67 67.16 87.03 67.12 84.40 C 66.96 82.10 66.71 79.60 69.83 80.58 C 70.72 76.30 69.81 70.80 74.22 68.15 Z" />
</g>
<g id="#0b0a0aff">
<path fill="#0b0a0a" opacity="1.00" d=" M 303.70 70.73 C 309.58 64.92 328.02 66.08 324.82 77.86 C 312.74 106.95 297.66 135.23 291.39 166.36 C 291.65 174.55 305.16 171.11 308.33 166.33 C 318.81 154.50 327.16 139.03 329.48 123.47 C 324.88 114.81 329.62 99.79 341.00 100.97 C 349.88 99.28 354.01 109.53 352.21 116.71 C 359.94 122.29 373.63 126.41 370.67 138.65 C 368.05 149.45 360.82 158.79 359.03 169.79 C 372.10 176.15 382.68 164.78 386.14 153.13 C 392.37 141.37 391.22 126.77 398.73 115.79 C 404.88 110.08 422.46 108.69 419.67 120.65 C 414.33 136.67 408.14 152.58 404.00 168.90 C 408.02 173.40 418.34 171.33 422.63 166.63 C 429.53 156.38 431.82 143.90 435.08 132.19 C 424.27 135.68 424.85 123.14 430.10 118.12 C 446.37 121.47 442.22 98.12 448.10 88.09 C 450.68 77.87 465.21 75.87 471.86 83.33 C 472.69 95.55 464.66 106.25 461.94 117.92 C 472.05 113.50 479.81 121.15 473.67 129.67 C 470.36 134.94 462.33 130.44 457.38 132.16 C 455.05 143.79 448.73 154.77 449.23 166.70 C 454.44 173.86 475.37 174.47 471.41 162.56 C 473.38 143.98 485.13 124.90 502.19 116.70 C 502.48 117.00 503.06 117.59 503.35 117.89 C 488.50 127.36 473.87 145.23 475.99 162.02 C 483.20 148.39 489.84 126.58 507.93 122.88 C 510.23 125.71 512.38 128.72 515.08 131.21 C 504.18 140.18 491.68 154.35 495.29 168.85 C 510.13 166.82 515.04 149.11 523.21 138.46 C 523.51 138.81 524.10 139.51 524.40 139.86 C 518.54 153.86 508.78 168.65 494.07 173.13 C 502.31 180.59 513.02 164.92 518.80 157.87 C 522.49 153.55 525.17 148.51 528.05 143.64 C 531.79 147.65 535.30 151.89 539.28 155.69 C 537.43 161.96 531.62 172.84 543.32 171.70 C 548.64 174.61 544.59 190.86 535.84 187.16 C 533.66 186.90 531.49 186.61 529.32 186.35 C 522.25 185.69 516.74 180.59 515.15 173.75 C 510.52 180.33 503.32 183.64 496.42 187.17 C 492.32 187.02 488.24 186.93 484.17 186.83 C 477.37 180.97 469.46 186.10 461.93 187.53 L 461.23 187.60 C 456.54 187.22 451.88 186.83 447.21 186.59 C 441.30 185.15 435.56 183.20 430.68 179.52 C 425.18 182.36 419.60 185.09 413.64 186.86 C 411.96 186.88 408.60 186.94 406.93 186.96 C 405.35 186.98 403.78 187.04 402.21 187.12 C 400.96 187.11 399.72 187.11 398.48 187.09 C 393.91 184.99 388.77 183.62 385.50 179.56 C 380.68 182.29 375.84 185.03 370.62 186.97 C 365.19 186.40 366.22 187.51 370.18 189.75 C 365.92 192.60 360.75 188.79 358.74 194.35 C 356.11 190.30 359.49 187.90 363.33 187.15 C 359.91 187.02 356.58 186.86 353.20 186.60 C 336.30 186.45 333.36 168.12 340.29 156.29 C 341.71 149.69 351.17 140.25 343.92 134.59 C 334.99 154.88 326.35 180.59 301.99 186.38 C 300.26 186.70 298.53 187.01 296.79 187.26 C 292.82 186.93 288.89 186.53 284.94 186.11 C 277.82 185.48 272.10 180.90 271.13 173.69 C 265.94 180.17 258.82 184.07 251.55 187.71 C 253.40 187.78 257.10 187.92 258.96 187.99 C 264.01 192.54 256.72 192.35 252.96 193.05 C 248.14 194.86 244.93 187.17 240.04 190.16 C 237.37 191.52 228.88 190.99 234.13 187.57 C 236.82 188.00 254.93 188.68 242.27 186.61 C 235.17 182.95 228.02 184.15 220.72 186.75 C 216.11 186.90 211.50 186.85 206.90 187.12 C 216.49 201.93 241.93 211.00 238.04 231.06 C 217.84 254.54 194.25 275.31 172.75 297.75 C 164.82 304.38 159.06 313.96 149.93 318.98 C 143.78 321.62 137.20 318.64 133.22 313.78 C 106.21 286.14 77.99 259.52 51.60 231.37 C 41.99 215.77 70.99 211.35 65.06 198.78 C 60.16 182.39 63.62 165.33 68.35 149.39 C 72.55 136.08 78.41 123.33 85.08 111.08 C 85.80 111.02 87.24 110.88 87.96 110.81 C 83.14 121.21 77.41 131.22 73.57 142.06 C 68.29 156.01 65.02 170.98 66.06 185.97 C 68.69 185.93 73.47 187.21 69.96 181.00 C 69.70 163.12 77.18 146.46 82.96 129.90 C 87.15 122.28 90.49 114.01 96.16 107.31 C 106.73 101.51 113.61 89.26 126.23 87.35 C 141.53 82.75 158.94 89.71 173.12 84.37 C 181.21 100.48 175.35 124.27 165.61 140.50 C 160.02 144.61 173.76 156.22 171.32 146.23 C 173.78 123.72 198.54 102.73 220.79 115.23 C 234.93 130.49 222.31 153.10 210.18 165.14 C 198.89 172.63 221.72 172.22 226.83 169.76 C 223.82 138.89 253.19 102.85 285.83 113.75 C 291.94 99.53 294.65 83.35 303.70 70.73 M 308.44 70.32 C 294.73 80.97 296.08 103.81 286.99 116.72 C 263.60 106.59 239.33 126.65 232.41 148.35 C 231.68 152.71 227.36 159.63 233.79 160.97 C 236.16 137.93 258.20 112.95 283.28 119.75 C 286.03 121.54 289.62 121.43 291.23 118.23 C 297.07 105.06 300.84 90.90 306.76 77.77 C 309.26 72.47 316.99 77.46 319.19 72.01 C 317.69 67.60 311.56 70.99 308.44 70.32 M 455.35 82.16 C 445.82 92.11 448.25 108.61 440.77 119.81 C 436.19 120.05 428.54 119.06 429.96 125.90 C 436.92 124.99 446.39 125.31 447.18 116.13 C 453.26 106.53 448.67 85.32 464.68 85.65 C 469.04 80.23 457.99 82.16 455.35 82.16 M 113.90 107.01 C 118.12 105.99 124.58 102.79 126.40 108.62 C 128.26 117.82 126.22 127.62 127.03 137.01 C 125.50 139.16 125.47 144.06 129.03 141.04 C 133.71 135.01 142.67 133.36 144.94 125.80 C 150.88 115.36 156.07 95.28 143.87 87.06 C 130.89 86.02 120.60 97.70 113.90 107.01 M 152.35 115.69 C 149.14 131.34 137.34 143.12 122.80 146.99 C 136.51 153.65 150.52 135.76 154.01 123.14 C 158.06 115.75 158.84 104.95 156.90 97.02 C 149.61 99.45 153.11 109.62 152.35 115.69 M 338.39 103.34 C 333.55 104.71 329.43 109.74 331.01 115.03 C 335.94 116.35 334.53 108.41 339.41 108.50 C 347.38 110.04 345.44 99.62 338.39 103.34 M 118.30 108.29 C 101.67 111.95 107.25 130.28 104.42 142.53 C 101.68 158.52 99.97 177.36 88.38 189.32 C 79.21 189.50 84.87 198.16 91.69 192.68 C 108.63 173.42 107.13 144.97 110.92 120.96 C 111.57 115.68 128.58 109.12 118.30 108.29 M 202.46 114.46 C 188.56 116.46 178.11 128.83 175.00 142.01 C 169.88 146.90 177.91 148.70 178.58 145.64 C 180.73 128.71 197.87 115.27 215.00 118.93 C 216.68 112.12 206.25 114.38 202.46 114.46 M 407.44 114.39 C 403.35 115.18 399.15 117.69 397.91 121.88 C 393.17 138.82 391.03 158.97 376.99 170.98 C 371.61 176.69 362.28 170.56 357.85 175.01 C 367.18 183.26 383.23 175.22 388.15 165.13 C 397.40 151.69 395.62 132.81 405.32 120.31 C 412.73 121.28 419.64 110.87 407.44 114.39 M 461.31 120.14 C 454.91 124.23 465.51 127.29 468.69 123.68 C 475.30 119.15 465.01 119.44 461.31 120.14 M 85.09 179.20 C 82.80 192.36 96.37 174.87 95.90 168.85 C 101.65 154.68 101.81 138.76 103.74 123.74 C 93.34 139.58 86.63 159.94 85.09 179.20 M 333.20 126.09 C 324.09 144.13 317.76 176.58 292.23 173.15 C 288.41 178.98 300.66 178.63 303.37 177.42 C 321.08 170.58 327.20 150.17 334.31 134.32 C 335.32 131.62 338.50 124.28 333.20 126.09 M 206.34 129.28 C 196.01 132.75 193.05 147.06 195.69 156.39 C 202.26 153.90 216.72 133.80 206.34 129.28 M 274.43 130.37 C 261.06 136.89 246.97 153.89 251.28 168.89 C 265.14 165.92 269.57 148.98 276.04 138.02 C 277.07 135.13 283.11 126.75 274.43 130.37 M 283.22 130.11 C 273.88 144.37 268.99 168.57 249.92 172.00 C 246.67 176.28 256.40 175.03 257.65 174.76 C 270.77 165.39 278.46 150.21 284.76 135.72 C 285.98 133.52 287.46 128.50 283.22 130.11 M 438.22 133.14 C 432.76 149.41 429.30 179.43 404.23 173.13 C 399.33 179.95 414.28 178.51 417.37 177.40 C 435.56 171.76 436.55 149.79 441.52 134.47 C 442.92 131.93 439.61 133.12 438.22 133.14 M 213.20 134.24 C 211.72 146.37 201.63 155.30 193.99 163.04 C 202.14 166.82 208.14 153.58 212.70 147.69 C 214.29 143.96 220.75 134.23 213.20 134.24 M 352.32 138.32 C 346.50 143.28 345.99 153.16 341.61 159.62 C 340.55 162.84 336.82 172.32 342.81 170.91 C 344.46 160.09 355.99 146.11 352.32 138.32 M 162.30 146.18 C 152.93 157.94 137.10 165.12 122.20 160.27 C 120.99 168.53 116.64 175.90 114.82 183.98 C 121.67 177.20 130.02 184.73 137.82 185.06 C 134.53 177.84 141.68 170.39 148.93 174.06 C 157.48 177.69 153.12 190.70 143.88 189.27 C 148.18 195.55 148.57 203.31 144.95 210.01 C 149.30 218.93 155.07 227.24 165.00 231.05 C 168.52 226.89 173.20 221.54 178.60 221.27 C 185.31 233.00 191.99 244.83 197.94 256.98 C 183.33 257.10 168.73 256.91 154.12 257.08 C 155.48 249.36 158.47 242.10 161.83 235.08 C 158.94 232.93 155.93 230.87 152.67 229.34 C 144.86 230.73 142.22 220.41 134.86 218.98 C 143.45 230.96 131.65 251.62 146.01 256.86 C 141.55 260.42 135.28 259.08 130.15 257.80 C 129.73 245.75 131.19 231.27 122.18 221.86 C 126.14 237.95 103.07 240.50 102.49 252.45 C 108.43 263.57 86.50 247.71 94.31 243.28 C 102.45 237.61 115.15 228.11 109.00 217.00 C 108.82 213.16 116.80 202.16 109.18 206.20 C 105.84 209.82 105.00 200.63 102.29 204.34 C 93.40 213.67 77.07 215.46 68.20 205.22 C 61.52 212.40 48.41 220.59 54.99 232.04 C 72.58 250.70 91.25 268.44 109.25 286.75 C 123.06 295.90 132.82 322.31 151.98 315.00 C 174.09 294.18 195.05 272.05 216.75 250.75 C 224.94 241.44 246.17 228.48 231.76 215.30 C 217.58 202.28 205.70 183.24 185.24 181.27 C 177.36 184.30 149.37 195.05 158.04 176.07 C 159.05 168.15 169.32 171.33 174.79 168.87 C 172.13 160.41 170.97 150.87 162.30 146.18 M 231.27 168.21 C 225.38 176.65 213.58 173.19 204.96 173.03 C 205.69 181.60 219.84 177.11 225.37 177.40 C 229.78 177.40 238.59 170.51 231.27 168.21 M 474.39 168.17 C 471.18 176.65 457.93 173.83 451.07 172.25 C 446.99 178.53 460.66 178.30 463.99 178.00 C 470.14 180.33 485.11 169.40 474.39 168.17 M 179.44 169.51 C 173.30 174.64 159.72 169.74 160.06 180.09 C 166.04 178.78 185.67 175.09 179.44 169.51 M 123.39 189.32 C 118.20 190.45 114.28 195.85 113.97 201.02 C 119.27 201.58 123.95 191.47 123.39 189.32 M 137.28 200.29 C 135.34 203.77 133.70 207.48 131.22 210.69 C 134.37 212.65 137.52 214.64 140.88 216.25 C 137.89 211.40 139.30 203.27 137.28 200.29 Z" />
</g>
<g id="#0b0b0bff">
<path fill="#0b0b0b" opacity="1.00" d=" M 413.38 68.28 C 432.05 60.83 435.90 91.10 419.59 94.65 C 402.18 100.36 398.74 73.03 413.38 68.28 M 415.43 70.37 C 410.14 71.11 406.72 77.00 406.99 82.00 C 411.99 83.51 411.76 77.05 415.28 75.24 C 424.40 79.43 423.86 66.02 415.43 70.37 Z" />
</g>
<g id="#828282ff">
<path fill="#828282" opacity="1.00" d=" M 308.44 70.32 C 311.56 70.99 317.69 67.60 319.19 72.01 C 316.99 77.46 309.26 72.47 306.76 77.77 C 300.84 90.90 297.07 105.06 291.23 118.23 C 289.62 121.43 286.03 121.54 283.28 119.75 C 258.20 112.95 236.16 137.93 233.79 160.97 C 227.36 159.63 231.68 152.71 232.41 148.35 C 239.33 126.65 263.60 106.59 286.99 116.72 C 296.08 103.81 294.73 80.97 308.44 70.32 Z" />
<path fill="#828282" opacity="1.00" d=" M 338.39 103.34 C 345.44 99.62 347.38 110.04 339.41 108.50 C 334.53 108.41 335.94 116.35 331.01 115.03 C 329.43 109.74 333.55 104.71 338.39 103.34 Z" />
<path fill="#828282" opacity="1.00" d=" M 231.27 168.21 C 238.59 170.51 229.78 177.40 225.37 177.40 C 219.84 177.11 205.69 181.60 204.96 173.03 C 213.58 173.19 225.38 176.65 231.27 168.21 Z" />
</g>
<g id="#848484ff">
<path fill="#848484" opacity="1.00" d=" M 415.43 70.37 C 423.86 66.02 424.40 79.43 415.28 75.24 C 411.76 77.05 411.99 83.51 406.99 82.00 C 406.72 77.00 410.14 71.11 415.43 70.37 Z" />
</g>
<g id="#7c7c7cff">
<path fill="#7c7c7c" opacity="1.00" d=" M 455.35 82.16 C 457.99 82.16 469.04 80.23 464.68 85.65 C 448.67 85.32 453.26 106.53 447.18 116.13 C 446.39 125.31 436.92 124.99 429.96 125.90 C 428.54 119.06 436.19 120.05 440.77 119.81 C 448.25 108.61 445.82 92.11 455.35 82.16 Z" />
</g>
<g id="#fbfbfbff">
<path fill="#fbfbfb" opacity="1.00" d=" M 113.90 107.01 C 120.60 97.70 130.89 86.02 143.87 87.06 C 156.07 95.28 150.88 115.36 144.94 125.80 C 137.38 126.04 132.47 132.59 127.03 137.01 C 126.22 127.62 128.26 117.82 126.40 108.62 C 124.58 102.79 118.12 105.99 113.90 107.01 Z" />
<path fill="#fbfbfb" opacity="1.00" d=" M 274.43 130.37 C 283.11 126.75 277.07 135.13 276.04 138.02 C 269.57 148.98 265.14 165.92 251.28 168.89 C 246.97 153.89 261.06 136.89 274.43 130.37 Z" />
</g>
<g id="#edcf2aff">
<path fill="#edcf2a" opacity="1.00" d=" M 530.11 88.85 C 542.00 84.01 555.73 94.81 562.57 105.41 C 570.54 117.52 562.19 131.79 563.26 144.71 C 565.83 148.25 570.73 154.49 567.21 157.99 C 567.49 151.29 560.11 147.11 561.83 139.94 C 560.57 142.04 556.89 148.02 558.17 142.18 C 565.67 129.89 565.75 112.79 555.91 102.02 C 553.76 99.99 550.80 91.93 547.90 94.87 C 551.15 101.05 561.53 108.77 553.91 115.25 C 546.63 106.18 544.17 90.48 530.11 88.85 Z" />
</g>
<g id="#d5ac07ff">
<path fill="#d5ac07" opacity="1.00" d=" M 516.78 94.87 C 520.78 92.03 525.32 89.97 530.11 88.85 C 544.17 90.48 546.63 106.18 553.91 115.25 C 561.53 108.77 551.15 101.05 547.90 94.87 C 550.80 91.93 553.76 99.99 555.91 102.02 C 565.75 112.79 565.67 129.89 558.17 142.18 C 556.89 148.02 560.57 142.04 561.83 139.94 C 560.11 147.11 567.49 151.29 567.21 157.99 C 561.77 168.98 546.30 162.16 539.28 155.69 C 535.30 151.89 531.79 147.65 528.05 143.64 C 526.86 142.35 525.61 141.13 524.40 139.86 C 524.10 139.51 523.51 138.81 523.21 138.46 C 521.04 135.49 518.36 132.90 515.08 131.21 C 512.38 128.72 510.23 125.71 507.93 122.88 C 506.53 121.10 504.99 119.44 503.35 117.89 C 503.06 117.59 502.48 117.00 502.19 116.70 C 497.92 107.34 511.95 101.13 516.78 94.87 Z" />
</g>
<g id="#a2968aff">
<path fill="#a2968a" opacity="1.00" d=" M 67.76 92.27 C 73.47 90.32 81.82 90.28 79.28 98.69 C 84.70 101.60 90.62 105.95 96.16 107.31 C 90.49 114.01 87.15 122.28 82.96 129.90 C 79.21 132.75 79.57 144.67 73.57 142.06 C 77.41 131.22 83.14 121.21 87.96 110.81 C 87.24 110.88 85.80 111.02 85.08 111.08 C 78.51 116.80 69.44 109.57 63.60 114.04 C 61.67 114.18 62.30 113.22 63.20 112.22 C 68.77 107.30 66.49 98.78 67.76 92.27 Z" />
</g>
<g id="#424242ff">
<path fill="#424242" opacity="1.00" d=" M 152.35 115.69 C 153.11 109.62 149.61 99.45 156.90 97.02 C 158.84 104.95 158.06 115.75 154.01 123.14 C 154.85 120.30 155.53 117.22 152.35 115.69 Z" />
</g>
<g id="#d2cbbfff">
<path fill="#d2cbbf" opacity="1.00" d=" M 17.84 132.01 C 18.71 115.72 33.23 113.78 44.16 107.84 C 46.34 109.24 49.38 114.05 51.87 110.93 C 54.48 105.72 59.23 112.02 63.20 112.22 C 62.30 113.22 61.67 114.18 63.60 114.04 C 67.75 124.41 62.31 122.11 57.66 116.38 C 49.46 118.16 36.16 108.35 36.84 122.87 C 28.69 127.55 31.82 139.71 41.29 140.70 C 47.85 146.31 62.80 139.95 65.19 148.76 C 63.24 158.27 50.18 163.22 42.99 159.05 C 45.82 158.98 51.48 158.83 54.31 158.76 C 47.14 146.01 27.75 144.93 23.49 130.14 C 21.42 129.88 19.64 131.20 17.84 132.01 Z" />
</g>
<g id="#6d6d6dff">
<path fill="#6d6d6d" opacity="1.00" d=" M 118.30 108.29 C 128.58 109.12 111.57 115.68 110.92 120.96 C 107.13 144.97 108.63 173.42 91.69 192.68 C 84.87 198.16 79.21 189.50 88.38 189.32 C 99.97 177.36 101.68 158.52 104.42 142.53 C 107.25 130.28 101.67 111.95 118.30 108.29 Z" />
</g>
<g id="#ecede8ff">
<path fill="#ecede8" opacity="1.00" d=" M 63.60 114.04 C 69.44 109.57 78.51 116.80 85.08 111.08 C 78.41 123.33 72.55 136.08 68.35 149.39 C 67.56 149.23 65.98 148.92 65.19 148.76 C 62.80 139.95 47.85 146.31 41.29 140.70 C 31.82 139.71 28.69 127.55 36.84 122.87 C 36.16 108.35 49.46 118.16 57.66 116.38 C 62.31 122.11 67.75 124.41 63.60 114.04 Z" />
</g>
<g id="#878787ff">
<path fill="#878787" opacity="1.00" d=" M 202.46 114.46 C 206.25 114.38 216.68 112.12 215.00 118.93 C 197.87 115.27 180.73 128.71 178.58 145.64 C 177.91 148.70 169.88 146.90 175.00 142.01 C 178.11 128.83 188.56 116.46 202.46 114.46 Z" />
</g>
<g id="#7f7f7fff">
<path fill="#7f7f7f" opacity="1.00" d=" M 407.44 114.39 C 419.64 110.87 412.73 121.28 405.32 120.31 C 395.62 132.81 397.40 151.69 388.15 165.13 C 383.23 175.22 367.18 183.26 357.85 175.01 C 362.28 170.56 371.61 176.69 376.99 170.98 C 391.03 158.97 393.17 138.82 397.91 121.88 C 399.15 117.69 403.35 115.18 407.44 114.39 Z" />
</g>
<g id="#888989ff">
<path fill="#888989" opacity="1.00" d=" M 152.35 115.69 C 155.53 117.22 154.85 120.30 154.01 123.14 C 150.52 135.76 136.51 153.65 122.80 146.99 C 137.34 143.12 149.14 131.34 152.35 115.69 Z" />
</g>
<g id="#888887ff">
<path fill="#888887" opacity="1.00" d=" M 503.35 117.89 C 504.99 119.44 506.53 121.10 507.93 122.88 C 489.84 126.58 483.20 148.39 475.99 162.02 C 473.87 145.23 488.50 127.36 503.35 117.89 Z" />
</g>
<g id="#717171ff">
<path fill="#717171" opacity="1.00" d=" M 461.31 120.14 C 465.01 119.44 475.30 119.15 468.69 123.68 C 465.51 127.29 454.91 124.23 461.31 120.14 Z" />
</g>
<g id="#f7f7f7ff">
<path fill="#f7f7f7" opacity="1.00" d=" M 85.09 179.20 C 86.63 159.94 93.34 139.58 103.74 123.74 C 101.81 138.76 101.65 154.68 95.90 168.85 C 92.31 172.32 88.66 175.72 85.09 179.20 Z" />
</g>
<g id="#e7c914ff">
<path fill="#e7c914" opacity="1.00" d=" M 127.03 137.01 C 132.47 132.59 137.38 126.04 144.94 125.80 C 142.67 133.36 133.71 135.01 129.03 141.04 C 125.47 144.06 125.50 139.16 127.03 137.01 Z" />
</g>
<g id="#858585ff">
<path fill="#858585" opacity="1.00" d=" M 333.20 126.09 C 338.50 124.28 335.32 131.62 334.31 134.32 C 327.20 150.17 321.08 170.58 303.37 177.42 C 300.66 178.63 288.41 178.98 292.23 173.15 C 317.76 176.58 324.09 144.13 333.20 126.09 Z" />
</g>
<g id="#f9f9f9ff">
<path fill="#f9f9f9" opacity="1.00" d=" M 206.34 129.28 C 216.72 133.80 202.26 153.90 195.69 156.39 C 193.05 147.06 196.01 132.75 206.34 129.28 Z" />
</g>
<g id="#9f9382ff">
<path fill="#9f9382" opacity="1.00" d=" M 17.84 132.01 C 19.64 131.20 21.42 129.88 23.49 130.14 C 27.75 144.93 47.14 146.01 54.31 158.76 C 51.48 158.83 45.82 158.98 42.99 159.05 C 28.71 164.26 18.20 144.81 17.84 132.01 Z" />
</g>
<g id="#575757ff">
<path fill="#575757" opacity="1.00" d=" M 73.57 142.06 C 79.57 144.67 79.21 132.75 82.96 129.90 C 77.18 146.46 69.70 163.12 69.96 181.00 C 73.47 187.21 68.69 185.93 66.06 185.97 C 65.02 170.98 68.29 156.01 73.57 142.06 Z" />
</g>
<g id="#888888ff">
<path fill="#888888" opacity="1.00" d=" M 283.22 130.11 C 287.46 128.50 285.98 133.52 284.76 135.72 C 278.46 150.21 270.77 165.39 257.65 174.76 C 256.40 175.03 246.67 176.28 249.92 172.00 C 268.99 168.57 273.88 144.37 283.22 130.11 Z" />
</g>
<g id="#fafaf9ff">
<path fill="#fafaf9" opacity="1.00" d=" M 515.08 131.21 C 518.36 132.90 521.04 135.49 523.21 138.46 C 515.04 149.11 510.13 166.82 495.29 168.85 C 491.68 154.35 504.18 140.18 515.08 131.21 Z" />
</g>
<g id="#7b7b7bff">
<path fill="#7b7b7b" opacity="1.00" d=" M 438.22 133.14 C 439.61 133.12 442.92 131.93 441.52 134.47 C 436.55 149.79 435.56 171.76 417.37 177.40 C 414.28 178.51 399.33 179.95 404.23 173.13 C 429.30 179.43 432.76 149.41 438.22 133.14 Z" />
</g>
<g id="#868686ff">
<path fill="#868686" opacity="1.00" d=" M 213.20 134.24 C 220.75 134.23 214.29 143.96 212.70 147.69 C 208.14 153.58 202.14 166.82 193.99 163.04 C 201.63 155.30 211.72 146.37 213.20 134.24 Z" />
</g>
<g id="#f8f8f5ff">
<path fill="#f8f8f5" opacity="1.00" d=" M 301.99 186.38 C 326.35 180.59 334.99 154.88 343.92 134.59 C 351.17 140.25 341.71 149.69 340.29 156.29 C 333.36 168.12 336.30 186.45 353.20 186.60 C 340.50 189.77 326.96 187.23 313.95 187.97 C 310.30 187.95 306.69 188.00 303.06 188.12 C 302.79 187.68 302.26 186.81 301.99 186.38 Z" />
</g>
<g id="#6b6b6bff">
<path fill="#6b6b6b" opacity="1.00" d=" M 352.32 138.32 C 355.99 146.11 344.46 160.09 342.81 170.91 C 336.82 172.32 340.55 162.84 341.61 159.62 C 345.99 153.16 346.50 143.28 352.32 138.32 Z" />
</g>
<g id="#929291ff">
<path fill="#929291" opacity="1.00" d=" M 524.40 139.86 C 525.61 141.13 526.86 142.35 528.05 143.64 C 525.17 148.51 522.49 153.55 518.80 157.87 C 513.02 164.92 502.31 180.59 494.07 173.13 C 508.78 168.65 518.54 153.86 524.40 139.86 Z" />
</g>
<g id="#e6cb19ff">
<path fill="#e6cb19" opacity="1.00" d=" M 171.32 146.23 C 173.76 156.22 160.02 144.61 165.61 140.50 C 167.78 142.11 169.86 143.93 171.32 146.23 Z" />
</g>
<g id="#f8d404ff">
<path fill="#f8d404" opacity="1.00" d=" M 162.30 146.18 C 170.97 150.87 172.13 160.41 174.79 168.87 C 169.32 171.33 159.05 168.15 158.04 176.07 C 149.37 195.05 177.36 184.30 185.24 181.27 C 205.70 183.24 217.58 202.28 231.76 215.30 C 246.17 228.48 224.94 241.44 216.75 250.75 C 195.05 272.05 174.09 294.18 151.98 315.00 C 132.82 322.31 123.06 295.90 109.25 286.75 C 91.25 268.44 72.58 250.70 54.99 232.04 C 48.41 220.59 61.52 212.40 68.20 205.22 C 77.07 215.46 93.40 213.67 102.29 204.34 C 105.00 200.63 105.84 209.82 109.18 206.20 C 116.80 202.16 108.82 213.16 109.00 217.00 C 115.15 228.11 102.45 237.61 94.31 243.28 C 86.50 247.71 108.43 263.57 102.49 252.45 C 103.07 240.50 126.14 237.95 122.18 221.86 C 131.19 231.27 129.73 245.75 130.15 257.80 C 135.28 259.08 141.55 260.42 146.01 256.86 C 131.65 251.62 143.45 230.96 134.86 218.98 C 142.22 220.41 144.86 230.73 152.67 229.34 C 155.93 230.87 158.94 232.93 161.83 235.08 C 158.47 242.10 155.48 249.36 154.12 257.08 C 168.73 256.91 183.33 257.10 197.94 256.98 C 191.99 244.83 185.31 233.00 178.60 221.27 C 173.20 221.54 168.52 226.89 165.00 231.05 C 155.07 227.24 149.30 218.93 144.95 210.01 C 148.57 203.31 148.18 195.55 143.88 189.27 C 153.12 190.70 157.48 177.69 148.93 174.06 C 141.68 170.39 134.53 177.84 137.82 185.06 C 130.02 184.73 121.67 177.20 114.82 183.98 C 116.64 175.90 120.99 168.53 122.20 160.27 C 137.10 165.12 152.93 157.94 162.30 146.18 Z" />
</g>
<g id="#808080ff">
<path fill="#808080" opacity="1.00" d=" M 474.39 168.17 C 485.11 169.40 470.14 180.33 463.99 178.00 C 460.66 178.30 446.99 178.53 451.07 172.25 C 457.93 173.83 471.18 176.65 474.39 168.17 Z" />
</g>
<g id="#e8cb1cff">
<path fill="#e8cb1c" opacity="1.00" d=" M 85.09 179.20 C 88.66 175.72 92.31 172.32 95.90 168.85 C 96.37 174.87 82.80 192.36 85.09 179.20 Z" />
</g>
<g id="#949494ff">
<path fill="#949494" opacity="1.00" d=" M 179.44 169.51 C 185.67 175.09 166.04 178.78 160.06 180.09 C 159.72 169.74 173.30 174.64 179.44 169.51 Z" />
</g>
<g id="#f6f4ecff">
<path fill="#f6f4ec" opacity="1.00" d=" M 251.55 187.71 C 258.82 184.07 265.94 180.17 271.13 173.69 C 272.10 180.90 277.82 185.48 284.94 186.11 L 285.47 186.80 C 276.76 188.74 267.80 187.94 258.96 187.99 C 257.10 187.92 253.40 187.78 251.55 187.71 Z" />
</g>
<g id="#f5f5f0ff">
<path fill="#f5f5f0" opacity="1.00" d=" M 496.42 187.17 C 503.32 183.64 510.52 180.33 515.15 173.75 C 516.74 180.59 522.25 185.69 529.32 186.35 C 527.80 188.84 524.46 187.57 522.01 188.01 C 516.90 188.02 511.83 187.98 506.73 188.13 C 503.24 188.16 499.78 188.15 496.42 187.17 Z" />
</g>
<g id="#f5f3e7ff">
<path fill="#f5f3e7" opacity="1.00" d=" M 370.62 186.97 C 375.84 185.03 380.68 182.29 385.50 179.56 C 388.77 183.62 393.91 184.99 398.48 187.09 C 389.27 188.06 379.74 189.08 370.62 186.97 Z" />
</g>
<g id="#f7f5e9ff">
<path fill="#f7f5e9" opacity="1.00" d=" M 413.64 186.86 C 419.60 185.09 425.18 182.36 430.68 179.52 C 435.56 183.20 441.30 185.15 447.21 186.59 C 440.14 189.29 432.21 187.49 424.84 188.10 C 422.28 188.09 419.73 188.11 417.19 188.13 C 416.00 187.71 414.81 187.29 413.64 186.86 Z" />
</g>
<g id="#d1cfc7ff">
<path fill="#d1cfc7" opacity="1.00" d=" M 220.72 186.75 C 228.02 184.15 235.17 182.95 242.27 186.61 C 254.93 188.68 236.82 188.00 234.13 187.57 C 229.66 187.25 225.20 186.93 220.72 186.75 Z" />
</g>
<g id="#c0bfbcff">
<path fill="#c0bfbc" opacity="1.00" d=" M 461.93 187.53 C 469.46 186.10 477.37 180.97 484.17 186.83 C 482.63 187.07 481.12 187.38 479.62 187.69 C 473.71 188.11 467.81 188.06 461.93 187.53 Z" />
</g>
<g id="#252117ff">
<path fill="#252117" opacity="1.00" d=" M 284.94 186.11 C 288.89 186.53 292.82 186.93 296.79 187.26 C 305.28 189.88 290.75 186.69 293.05 192.79 C 297.70 193.59 302.47 193.37 306.97 195.07 C 309.86 187.94 294.83 193.32 303.06 188.12 C 306.69 188.00 310.30 187.95 313.95 187.97 C 317.50 192.19 317.13 194.14 311.82 191.13 C 315.21 194.73 313.05 195.29 309.10 194.42 C 308.53 198.05 318.28 194.50 318.10 198.79 C 312.97 199.00 306.36 196.67 301.87 199.74 C 305.42 201.21 309.40 202.56 310.25 206.84 C 315.95 209.90 328.84 202.14 329.48 213.06 C 335.20 217.79 343.62 214.98 350.06 215.90 C 356.37 220.43 349.99 228.42 348.95 234.13 C 357.97 230.66 358.33 217.60 361.15 213.00 C 353.76 210.84 368.41 212.68 369.75 212.22 C 370.26 216.93 378.27 219.23 379.47 214.41 C 382.37 208.89 373.34 211.53 380.07 206.67 C 388.12 201.83 396.46 208.06 390.13 216.07 C 395.10 224.92 393.36 211.17 399.98 211.07 C 405.63 212.03 406.12 218.70 410.62 221.39 C 414.93 225.50 407.81 230.49 409.98 234.56 C 414.76 227.60 416.22 218.04 414.79 211.27 C 406.75 208.52 402.29 198.45 400.16 191.58 C 394.84 191.26 398.79 187.32 402.21 187.12 C 403.78 187.04 405.35 186.98 406.93 186.96 C 411.83 193.39 410.11 190.52 417.19 188.13 C 419.73 188.11 422.28 188.09 424.84 188.10 C 429.10 196.19 434.77 203.38 439.92 210.88 C 433.55 216.11 424.59 210.96 416.93 212.04 C 417.16 217.32 425.62 213.11 427.91 217.81 C 431.22 214.16 436.45 214.43 439.95 217.66 C 443.80 216.33 447.70 215.00 451.86 215.09 C 455.84 215.22 457.77 222.19 461.54 217.91 C 456.74 212.52 467.99 208.26 461.59 203.35 C 460.88 198.39 454.17 194.25 452.04 188.17 C 455.10 188.06 458.37 189.02 461.23 187.60 L 461.93 187.53 C 467.81 188.06 473.71 188.11 479.62 187.69 C 480.64 191.24 486.23 195.24 483.32 198.69 C 486.04 200.73 489.77 201.65 491.26 205.05 C 487.88 207.31 483.38 206.54 479.50 206.58 C 481.12 208.09 487.40 208.87 483.00 211.01 C 479.04 209.19 478.12 214.82 476.09 217.10 C 477.30 223.11 481.91 216.45 484.98 215.28 C 481.16 215.38 480.28 213.66 483.00 211.01 C 486.32 214.59 503.48 210.47 492.32 215.23 C 494.58 217.65 500.19 214.12 501.68 220.98 C 501.13 214.79 509.02 209.38 513.75 214.28 C 517.40 226.05 513.15 240.48 521.13 250.97 C 515.61 256.31 507.83 259.85 500.15 261.02 C 494.55 255.35 496.44 253.75 503.78 252.87 C 501.52 252.35 492.72 252.35 490.96 247.08 C 494.72 246.69 498.81 246.74 500.98 243.03 C 486.27 242.36 471.11 241.01 456.66 243.71 C 453.97 247.64 457.70 247.22 460.34 248.41 C 455.55 247.42 453.77 251.67 452.35 254.96 C 457.26 255.53 463.72 257.32 467.46 253.23 C 470.77 254.83 470.29 256.92 466.85 257.82 C 470.14 256.44 471.68 259.10 473.29 260.91 C 463.91 259.95 454.53 261.01 445.16 261.01 C 441.85 256.15 432.62 249.35 440.54 244.52 C 444.91 240.31 436.16 242.55 434.15 244.25 C 421.05 237.43 408.09 246.36 395.04 245.71 C 388.70 242.28 380.00 251.26 377.04 242.05 C 370.40 241.26 362.33 245.21 355.34 242.68 C 352.49 241.52 348.43 242.59 349.15 246.30 C 345.84 248.93 341.83 250.34 337.65 250.70 C 340.71 255.36 345.20 250.41 348.57 248.79 C 347.64 254.35 355.02 248.36 349.84 246.02 C 356.29 245.08 357.91 257.22 363.17 260.96 C 353.38 260.45 343.58 260.56 333.79 260.90 C 337.83 257.56 343.03 256.99 348.05 257.77 C 352.77 258.04 346.47 254.40 345.51 252.47 C 341.76 255.10 337.59 257.26 333.04 258.00 C 328.00 253.75 326.76 245.65 320.86 242.08 C 313.88 243.01 304.96 241.17 298.66 244.70 C 298.20 250.95 304.50 256.05 308.13 260.94 C 298.48 260.18 288.82 261.30 279.16 260.94 C 274.06 255.73 273.16 247.77 267.51 243.36 C 265.32 240.37 271.21 241.16 272.35 239.06 C 271.11 235.89 267.75 237.65 265.24 237.65 C 261.06 233.41 273.71 238.03 270.90 233.05 C 266.00 234.44 259.21 236.27 258.96 229.03 C 263.54 231.04 271.01 235.08 274.05 229.05 C 276.33 225.57 270.18 225.74 268.01 225.08 C 268.80 223.89 269.75 222.64 269.19 221.14 C 280.30 225.66 281.52 210.83 289.19 206.22 C 292.76 201.87 301.02 202.10 301.94 195.75 C 299.26 197.23 296.78 199.10 293.89 200.18 C 291.61 195.35 288.00 191.45 285.47 186.80 L 284.94 186.11 M 418.26 196.31 C 410.08 198.11 414.19 202.89 421.19 202.64 C 427.34 202.26 418.72 198.38 418.26 196.31 M 467.40 198.32 C 464.69 199.27 463.17 201.08 466.28 202.82 C 470.30 205.14 471.56 197.05 467.40 198.32 M 300.34 203.31 C 283.81 209.32 273.55 228.67 275.08 245.72 C 284.03 252.61 293.24 244.89 299.23 237.96 C 294.37 232.23 291.90 246.55 285.67 245.72 C 274.82 246.19 279.23 231.56 282.42 225.37 C 287.05 217.53 292.29 205.58 303.00 207.00 C 308.47 215.17 292.47 215.57 296.10 220.99 C 303.62 220.33 312.49 202.79 300.34 203.31 M 376.60 221.59 C 380.93 223.66 377.71 237.34 369.68 237.67 C 368.68 232.61 372.35 224.78 365.88 221.89 C 367.93 218.00 370.05 212.64 363.31 216.29 C 361.38 224.60 356.18 236.74 345.78 237.25 C 348.01 239.19 351.01 238.66 353.57 237.83 C 363.54 242.68 378.24 237.06 386.79 239.35 C 395.04 237.77 396.38 227.96 400.99 222.80 C 407.01 226.18 397.14 233.12 400.00 238.12 C 407.25 237.33 403.15 227.12 407.94 222.90 C 403.21 221.60 403.07 210.46 397.72 215.71 C 397.98 223.72 394.42 236.10 385.01 237.07 C 379.80 234.33 383.13 227.87 384.68 223.67 C 388.47 225.85 396.05 216.44 385.95 219.81 C 386.01 216.20 388.56 213.23 388.83 209.66 C 381.18 202.56 383.96 221.06 376.60 221.59 M 475.47 209.52 C 471.33 212.54 463.57 207.80 462.93 215.08 C 466.60 212.70 479.60 211.98 475.47 209.52 M 508.32 215.25 C 502.19 221.63 501.30 238.28 487.73 237.32 C 491.83 241.32 496.78 236.19 501.35 237.59 C 510.52 242.11 514.42 229.19 510.27 223.73 C 505.34 220.31 516.79 214.62 508.32 215.25 M 315.35 218.32 C 304.73 221.35 307.24 234.76 301.88 239.97 C 308.54 234.35 320.53 241.58 321.81 229.88 C 326.08 222.00 322.88 217.62 315.35 218.32 M 333.23 218.04 C 330.19 222.48 331.03 228.58 328.23 233.23 C 325.83 235.76 319.17 241.51 326.66 238.64 C 332.83 235.47 342.66 217.01 333.23 218.04 M 345.95 218.15 C 339.43 218.47 334.79 228.44 343.41 223.41 C 344.56 225.94 337.89 233.42 340.00 238.13 C 347.78 237.55 342.79 226.41 347.32 222.30 C 349.57 220.44 349.84 216.49 345.95 218.15 M 419.37 218.15 C 414.00 224.74 418.22 239.88 405.71 237.32 C 411.75 240.85 421.64 237.08 426.65 234.65 C 429.50 238.02 435.30 240.14 439.16 237.13 C 443.70 233.40 447.99 241.58 444.14 244.83 C 451.94 244.50 447.55 250.85 441.09 247.35 C 436.11 254.13 456.89 248.45 450.67 243.37 C 441.98 240.06 456.85 237.81 460.81 237.25 C 470.81 243.47 481.20 218.06 469.40 218.48 C 460.60 216.78 455.74 228.94 456.36 236.38 C 448.96 240.44 437.43 231.54 444.02 224.03 C 445.60 218.59 459.46 223.40 452.72 218.19 C 442.92 215.37 435.26 227.37 438.67 235.94 C 424.89 241.11 431.51 223.38 436.19 218.05 C 426.83 216.23 430.15 230.64 423.34 234.32 C 419.20 239.67 416.78 231.28 419.04 228.08 C 418.24 222.72 430.87 217.01 419.37 218.15 M 485.38 218.25 C 479.37 220.67 476.36 228.28 478.69 234.33 C 479.80 238.45 472.19 235.36 473.89 239.96 C 478.35 238.83 481.66 234.80 486.70 235.62 C 491.25 231.41 498.60 214.03 485.38 218.25 M 291.46 220.36 C 288.17 224.16 285.70 229.11 288.56 233.64 C 288.58 242.85 296.32 228.48 300.34 234.51 C 305.40 233.02 302.87 223.80 307.20 219.97 C 303.46 221.22 300.41 225.36 296.31 224.77 C 293.67 224.64 293.43 219.27 291.46 220.36 M 393.57 222.53 C 392.20 226.64 385.56 224.91 386.15 229.80 C 390.17 232.84 395.20 223.24 393.57 222.53 M 448.25 227.11 C 445.16 229.60 447.78 235.73 452.00 234.12 C 451.37 231.99 442.56 231.92 453.97 231.82 C 455.33 228.05 451.40 226.31 448.25 227.11 Z" />
</g>
<g id="#c1a918ff">
<path fill="#c1a918" opacity="1.00" d=" M 296.79 187.26 C 298.53 187.01 300.26 186.70 301.99 186.38 C 302.26 186.81 302.79 187.68 303.06 188.12 C 294.83 193.32 309.86 187.94 306.97 195.07 C 302.47 193.37 297.70 193.59 293.05 192.79 C 290.75 186.69 305.28 189.88 296.79 187.26 Z" />
</g>
<g id="#f3d006ff">
<path fill="#f3d006" opacity="1.00" d=" M 353.20 186.60 C 356.58 186.86 359.91 187.02 363.33 187.15 C 359.49 187.90 356.11 190.30 358.74 194.35 C 360.75 188.79 365.92 192.60 370.18 189.75 C 366.22 187.51 365.19 186.40 370.62 186.97 C 379.74 189.08 389.27 188.06 398.48 187.09 C 399.72 187.11 400.96 187.11 402.21 187.12 C 398.79 187.32 394.84 191.26 400.16 191.58 C 402.29 198.45 406.75 208.52 414.79 211.27 C 416.22 218.04 414.76 227.60 409.98 234.56 C 407.81 230.49 414.93 225.50 410.62 221.39 C 406.12 218.70 405.63 212.03 399.98 211.07 C 393.36 211.17 395.10 224.92 390.13 216.07 C 396.46 208.06 388.12 201.83 380.07 206.67 C 374.84 201.33 363.45 209.93 357.00 203.97 C 350.23 207.95 357.40 212.79 362.31 209.47 C 367.25 209.49 371.82 206.08 376.75 208.07 C 375.89 211.25 372.79 212.32 369.75 212.22 C 368.41 212.68 353.76 210.84 361.15 213.00 C 358.33 217.60 357.97 230.66 348.95 234.13 C 349.99 228.42 356.37 220.43 350.06 215.90 C 343.62 214.98 335.20 217.79 329.48 213.06 C 328.84 202.14 315.95 209.90 310.25 206.84 C 309.40 202.56 305.42 201.21 301.87 199.74 C 306.36 196.67 312.97 199.00 318.10 198.79 C 318.28 194.50 308.53 198.05 309.10 194.42 C 313.05 195.29 315.21 194.73 311.82 191.13 C 317.13 194.14 317.50 192.19 313.95 187.97 C 326.96 187.23 340.50 189.77 353.20 186.60 M 370.54 196.54 C 359.80 200.01 372.96 202.71 378.03 200.93 C 376.14 198.52 374.94 193.64 370.54 196.54 Z" />
</g>
<g id="#f3d007ff">
<path fill="#f3d007" opacity="1.00" d=" M 447.21 186.59 C 451.88 186.83 456.54 187.22 461.23 187.60 C 458.37 189.02 455.10 188.06 452.04 188.17 C 454.17 194.25 460.88 198.39 461.59 203.35 C 467.99 208.26 456.74 212.52 461.54 217.91 C 457.77 222.19 455.84 215.22 451.86 215.09 C 447.70 215.00 443.80 216.33 439.95 217.66 C 436.45 214.43 431.22 214.16 427.91 217.81 C 425.62 213.11 417.16 217.32 416.93 212.04 C 424.59 210.96 433.55 216.11 439.92 210.88 C 434.77 203.38 429.10 196.19 424.84 188.10 C 432.21 187.49 440.14 189.29 447.21 186.59 Z" />
</g>
<g id="#bca41dff">
<path fill="#bca41d" opacity="1.00" d=" M 529.32 186.35 C 531.49 186.61 533.66 186.90 535.84 187.16 C 537.51 188.90 537.88 191.21 536.96 194.07 C 531.68 193.38 523.13 190.74 522.01 188.01 C 524.46 187.57 527.80 188.84 529.32 186.35 Z" />
</g>
<g id="#f1d00aff">
<path fill="#f1d00a" opacity="1.00" d=" M 206.90 187.12 C 211.50 186.85 216.11 186.90 220.72 186.75 C 225.20 186.93 229.66 187.25 234.13 187.57 C 228.88 190.99 237.37 191.52 240.04 190.16 C 244.93 187.17 248.14 194.86 252.96 193.05 C 256.72 192.35 264.01 192.54 258.96 187.99 C 267.80 187.94 276.76 188.74 285.47 186.80 C 288.00 191.45 291.61 195.35 293.89 200.18 C 296.78 199.10 299.26 197.23 301.94 195.75 C 301.02 202.10 292.76 201.87 289.19 206.22 C 281.52 210.83 280.30 225.66 269.19 221.14 C 260.50 219.51 273.19 211.79 277.27 215.72 C 272.87 209.33 268.76 202.73 264.53 196.22 C 261.83 203.67 250.60 198.71 247.01 203.89 C 253.03 204.57 260.27 202.64 265.51 208.24 C 258.87 208.01 252.44 212.02 245.83 209.10 C 247.33 216.27 253.55 221.11 259.65 224.46 C 252.75 228.50 263.12 228.89 263.24 224.16 C 264.68 221.85 266.46 224.23 268.01 225.08 C 270.18 225.74 276.33 225.57 274.05 229.05 C 271.01 235.08 263.54 231.04 258.96 229.03 C 259.21 236.27 266.00 234.44 270.90 233.05 C 273.71 238.03 261.06 233.41 265.24 237.65 C 267.75 237.65 271.11 235.89 272.35 239.06 C 271.21 241.16 265.32 240.37 267.51 243.36 C 273.16 247.77 274.06 255.73 279.16 260.94 C 270.16 261.00 261.16 261.06 252.16 260.92 C 247.84 253.97 243.69 246.88 238.93 240.21 C 233.08 245.56 216.27 252.06 224.13 260.94 C 220.95 261.54 216.79 259.79 214.04 261.98 C 199.84 276.79 185.09 291.08 170.63 305.63 C 161.10 313.68 151.83 331.43 137.17 322.78 C 110.48 298.65 86.40 271.54 60.26 246.78 C 54.00 239.88 43.11 233.73 44.27 223.31 C 48.97 213.61 58.02 206.73 65.06 198.78 C 70.99 211.35 41.99 215.77 51.60 231.37 C 77.99 259.52 106.21 286.14 133.22 313.78 C 137.20 318.64 143.78 321.62 149.93 318.98 C 159.06 313.96 164.82 304.38 172.75 297.75 C 194.25 275.31 217.84 254.54 238.04 231.06 C 241.93 211.00 216.49 201.93 206.90 187.12 M 259.20 195.45 C 246.97 199.51 271.11 198.66 259.20 195.45 M 244.37 200.34 C 235.51 200.21 244.09 209.26 249.15 207.97 C 244.69 206.67 246.51 200.33 244.37 200.34 Z" />
</g>
<g id="#e2c726ff">
<path fill="#e2c726" opacity="1.00" d=" M 406.93 186.96 C 408.60 186.94 411.96 186.88 413.64 186.86 C 414.81 187.29 416.00 187.71 417.19 188.13 C 410.11 190.52 411.83 193.39 406.93 186.96 Z" />
</g>
<g id="#f2cf07ff">
<path fill="#f2cf07" opacity="1.00" d=" M 479.62 187.69 C 481.12 187.38 482.63 187.07 484.17 186.83 C 488.24 186.93 492.32 187.02 496.42 187.17 C 499.78 188.15 503.24 188.16 506.73 188.13 C 511.01 193.51 512.86 202.83 522.01 200.00 C 526.73 203.48 511.43 199.68 517.73 205.25 C 519.07 208.59 529.60 209.04 522.31 209.61 C 518.68 209.72 526.89 216.91 527.45 219.03 C 527.64 214.22 532.80 217.22 535.78 217.10 C 534.02 229.14 529.52 242.03 521.13 250.97 C 513.15 240.48 517.40 226.05 513.75 214.28 C 509.02 209.38 501.13 214.79 501.68 220.98 C 500.19 214.12 494.58 217.65 492.32 215.23 C 503.48 210.47 486.32 214.59 483.00 211.01 C 487.40 208.87 481.12 208.09 479.50 206.58 C 483.38 206.54 487.88 207.31 491.26 205.05 C 489.77 201.65 486.04 200.73 483.32 198.69 C 486.23 195.24 480.64 191.24 479.62 187.69 Z" />
</g>
<g id="#463b1dff">
<path fill="#463b1d" opacity="1.00" d=" M 506.73 188.13 C 511.83 187.98 516.90 188.02 522.01 188.01 C 523.13 190.74 531.68 193.38 536.96 194.07 C 537.03 201.74 537.71 209.58 535.78 217.10 C 532.80 217.22 527.64 214.22 527.45 219.03 C 526.89 216.91 518.68 209.72 522.31 209.61 C 529.60 209.04 519.07 208.59 517.73 205.25 C 511.43 199.68 526.73 203.48 522.01 200.00 C 512.86 202.83 511.01 193.51 506.73 188.13 Z" />
</g>
<g id="#e4c805ff">
<path fill="#e4c805" opacity="1.00" d=" M 123.39 189.32 C 123.95 191.47 119.27 201.58 113.97 201.02 C 114.28 195.85 118.20 190.45 123.39 189.32 Z" />
</g>
<g id="#4c4119ff">
<path fill="#4c4119" opacity="1.00" d=" M 259.20 195.45 C 271.11 198.66 246.97 199.51 259.20 195.45 Z" />
</g>
<g id="#4d401bff">
<path fill="#4d401b" opacity="1.00" d=" M 264.53 196.22 C 268.76 202.73 272.87 209.33 277.27 215.72 C 273.19 211.79 260.50 219.51 269.19 221.14 C 269.75 222.64 268.80 223.89 268.01 225.08 C 266.46 224.23 264.68 221.85 263.24 224.16 C 263.12 228.89 252.75 228.50 259.65 224.46 C 253.55 221.11 247.33 216.27 245.83 209.10 C 252.44 212.02 258.87 208.01 265.51 208.24 C 260.27 202.64 253.03 204.57 247.01 203.89 C 250.60 198.71 261.83 203.67 264.53 196.22 M 258.38 212.29 C 251.06 214.74 261.81 215.59 256.87 218.12 C 260.80 219.86 262.59 211.17 258.38 212.29 Z" />
</g>
<g id="#382e1bff">
<path fill="#382e1b" opacity="1.00" d=" M 370.54 196.54 C 374.94 193.64 376.14 198.52 378.03 200.93 C 372.96 202.71 359.80 200.01 370.54 196.54 Z" />
</g>
<g id="#e0c209ff">
<path fill="#e0c209" opacity="1.00" d=" M 418.26 196.31 C 418.72 198.38 427.34 202.26 421.19 202.64 C 414.19 202.89 410.08 198.11 418.26 196.31 Z" />
</g>
<g id="#e3c409ff">
<path fill="#e3c409" opacity="1.00" d=" M 467.40 198.32 C 471.56 197.05 470.30 205.14 466.28 202.82 C 463.17 201.08 464.69 199.27 467.40 198.32 Z" />
</g>
<g id="#e8ca06ff">
<path fill="#e8ca06" opacity="1.00" d=" M 137.28 200.29 C 139.30 203.27 137.89 211.40 140.88 216.25 C 137.52 214.64 134.37 212.65 131.22 210.69 C 133.70 207.48 135.34 203.77 137.28 200.29 Z" />
</g>
<g id="#53441bff">
<path fill="#53441b" opacity="1.00" d=" M 244.37 200.34 C 246.51 200.33 244.69 206.67 249.15 207.97 C 244.09 209.26 235.51 200.21 244.37 200.34 Z" />
</g>
<g id="#e5e1e1ff">
<path fill="#e5e1e1" opacity="1.00" d=" M 300.34 203.31 C 312.49 202.79 303.62 220.33 296.10 220.99 C 292.47 215.57 308.47 215.17 303.00 207.00 C 292.29 205.58 287.05 217.53 282.42 225.37 C 279.23 231.56 274.82 246.19 285.67 245.72 C 291.90 246.55 294.37 232.23 299.23 237.96 C 293.24 244.89 284.03 252.61 275.08 245.72 C 273.55 228.67 283.81 209.32 300.34 203.31 Z" />
</g>
<g id="#7c6917ff">
<path fill="#7c6917" opacity="1.00" d=" M 362.31 209.47 C 357.40 212.79 350.23 207.95 357.00 203.97 C 363.45 209.93 374.84 201.33 380.07 206.67 C 373.34 211.53 382.37 208.89 379.47 214.41 C 378.27 219.23 370.26 216.93 369.75 212.22 C 372.79 212.32 375.89 211.25 376.75 208.07 C 371.82 206.08 367.25 209.49 362.31 209.47 Z" />
</g>
<g id="#ece9e8ff">
<path fill="#ece9e8" opacity="1.00" d=" M 376.60 221.59 C 383.96 221.06 381.18 202.56 388.83 209.66 C 379.52 217.42 386.36 240.60 369.68 237.67 C 377.71 237.34 380.93 223.66 376.60 221.59 Z" />
</g>
<g id="#d8d5d4ff">
<path fill="#d8d5d4" opacity="1.00" d=" M 475.47 209.52 C 479.60 211.98 466.60 212.70 462.93 215.08 C 463.57 207.80 471.33 212.54 475.47 209.52 Z" />
</g>
<g id="#545353ff">
<path fill="#545353" opacity="1.00" d=" M 369.68 237.67 C 386.36 240.60 379.52 217.42 388.83 209.66 C 388.56 213.23 386.01 216.20 385.95 219.81 C 396.05 216.44 388.47 225.85 384.68 223.67 C 383.13 227.87 379.80 234.33 385.01 237.07 C 380.75 236.92 385.38 238.49 386.79 239.35 C 378.24 237.06 363.54 242.68 353.57 237.83 C 366.15 242.68 371.36 231.30 365.88 221.89 C 372.35 224.78 368.68 232.61 369.68 237.67 Z" />
</g>
<g id="#ddbe07ff">
<path fill="#ddbe07" opacity="1.00" d=" M 476.09 217.10 C 478.12 214.82 479.04 209.19 483.00 211.01 C 480.28 213.66 481.16 215.38 484.98 215.28 C 481.91 216.45 477.30 223.11 476.09 217.10 Z" />
</g>
<g id="#dbbe0bff">
<path fill="#dbbe0b" opacity="1.00" d=" M 258.38 212.29 C 262.59 211.17 260.80 219.86 256.87 218.12 C 261.81 215.59 251.06 214.74 258.38 212.29 Z" />
</g>
<g id="#dad6d6ff">
<path fill="#dad6d6" opacity="1.00" d=" M 397.72 215.71 C 403.07 210.46 403.21 221.60 407.94 222.90 C 403.15 227.12 407.25 237.33 400.00 238.12 C 397.14 233.12 407.01 226.18 400.99 222.80 C 396.38 227.96 395.04 237.77 386.79 239.35 C 385.38 238.49 380.75 236.92 385.01 237.07 C 394.42 236.10 397.98 223.72 397.72 215.71 Z" />
<path fill="#dad6d6" opacity="1.00" d=" M 508.32 215.25 C 516.79 214.62 505.34 220.31 510.27 223.73 C 514.42 229.19 510.52 242.11 501.35 237.59 C 496.78 236.19 491.83 241.32 487.73 237.32 C 501.30 238.28 502.19 221.63 508.32 215.25 M 506.27 226.34 C 504.45 229.38 498.04 233.96 503.33 236.77 C 507.29 237.69 510.04 226.73 506.27 226.34 Z" />
</g>
<g id="#e1ddddff">
<path fill="#e1dddd" opacity="1.00" d=" M 363.31 216.29 C 370.05 212.64 367.93 218.00 365.88 221.89 C 371.36 231.30 366.15 242.68 353.57 237.83 C 351.01 238.66 348.01 239.19 345.78 237.25 C 356.18 236.74 361.38 224.60 363.31 216.29 M 363.27 226.34 C 361.45 229.38 355.04 233.96 360.33 236.77 C 364.29 237.69 367.04 226.73 363.27 226.34 Z" />
</g>
<g id="#dfdcdbff">
<path fill="#dfdcdb" opacity="1.00" d=" M 315.35 218.32 C 322.88 217.62 326.08 222.00 321.81 229.88 C 320.53 241.58 308.54 234.35 301.88 239.97 C 307.24 234.76 304.73 221.35 315.35 218.32 M 317.13 221.38 C 310.39 222.39 305.66 233.82 313.08 237.03 C 319.55 235.78 321.79 225.00 317.13 221.38 Z" />
</g>
<g id="#e5e2e2ff">
<path fill="#e5e2e2" opacity="1.00" d=" M 333.23 218.04 C 342.66 217.01 332.83 235.47 326.66 238.64 C 319.17 241.51 325.83 235.76 328.23 233.23 C 331.03 228.58 330.19 222.48 333.23 218.04 Z" />
</g>
<g id="#dedbdbff">
<path fill="#dedbdb" opacity="1.00" d=" M 345.95 218.15 C 349.84 216.49 349.57 220.44 347.32 222.30 C 342.79 226.41 347.78 237.55 340.00 238.13 C 337.89 233.42 344.56 225.94 343.41 223.41 C 334.79 228.44 339.43 218.47 345.95 218.15 Z" />
</g>
<g id="#dcd8d8ff">
<path fill="#dcd8d8" opacity="1.00" d=" M 419.37 218.15 C 430.87 217.01 418.24 222.72 419.04 228.08 C 416.78 231.28 419.20 239.67 423.34 234.32 C 430.15 230.64 426.83 216.23 436.19 218.05 C 431.51 223.38 424.89 241.11 438.67 235.94 C 435.26 227.37 442.92 215.37 452.72 218.19 C 459.46 223.40 445.60 218.59 444.02 224.03 C 437.43 231.54 448.96 240.44 456.36 236.38 C 455.74 228.94 460.60 216.78 469.40 218.48 C 481.20 218.06 470.81 243.47 460.81 237.25 C 456.85 237.81 441.98 240.06 450.67 243.37 C 456.89 248.45 436.11 254.13 441.09 247.35 C 447.55 250.85 451.94 244.50 444.14 244.83 C 447.99 241.58 443.70 233.40 439.16 237.13 C 435.30 240.14 429.50 238.02 426.65 234.65 C 421.64 237.08 411.75 240.85 405.71 237.32 C 418.22 239.88 414.00 224.74 419.37 218.15 M 468.13 221.38 C 461.39 222.39 456.66 233.82 464.08 237.03 C 470.55 235.78 472.79 225.00 468.13 221.38 Z" />
<path fill="#dcd8d8" opacity="1.00" d=" M 485.38 218.25 C 498.60 214.03 491.25 231.41 486.70 235.62 C 481.66 234.80 478.35 238.83 473.89 239.96 C 472.19 235.36 479.80 238.45 478.69 234.33 C 476.36 228.28 479.37 220.67 485.38 218.25 M 487.18 221.27 C 482.27 222.38 479.32 231.46 485.87 232.01 C 488.63 229.67 493.85 221.88 487.18 221.27 Z" />
</g>
<g id="#eecc04ff">
<path fill="#eecc04" opacity="1.00" d=" M 291.46 220.36 C 293.43 219.27 293.67 224.64 296.31 224.77 C 300.41 225.36 303.46 221.22 307.20 219.97 C 302.87 223.80 305.40 233.02 300.34 234.51 C 296.32 228.48 288.58 242.85 288.56 233.64 C 285.70 229.11 288.17 224.16 291.46 220.36 Z" />
<path fill="#eecc04" opacity="1.00" d=" M 448.25 227.11 C 451.40 226.31 455.33 228.05 453.97 231.82 C 442.56 231.92 451.37 231.99 452.00 234.12 C 447.78 235.73 445.16 229.60 448.25 227.11 Z" />
</g>
<g id="#1f1e1aff">
<path fill="#1f1e1a" opacity="1.00" d=" M 317.13 221.38 C 321.79 225.00 319.55 235.78 313.08 237.03 C 305.66 233.82 310.39 222.39 317.13 221.38 Z" />
</g>
<g id="#2a2719ff">
<path fill="#2a2719" opacity="1.00" d=" M 468.13 221.38 C 472.79 225.00 470.55 235.78 464.08 237.03 C 456.66 233.82 461.39 222.39 468.13 221.38 Z" />
</g>
<g id="#1a191aff">
<path fill="#1a191a" opacity="1.00" d=" M 487.18 221.27 C 493.85 221.88 488.63 229.67 485.87 232.01 C 479.32 231.46 482.27 222.38 487.18 221.27 Z" />
</g>
<g id="#dcbf05ff">
<path fill="#dcbf05" opacity="1.00" d=" M 393.57 222.53 C 395.20 223.24 390.17 232.84 386.15 229.80 C 385.56 224.91 392.20 226.64 393.57 222.53 Z" />
</g>
<g id="#1f1f1eff">
<path fill="#1f1f1e" opacity="1.00" d=" M 363.27 226.34 C 367.04 226.73 364.29 237.69 360.33 236.77 C 355.04 233.96 361.45 229.38 363.27 226.34 Z" />
</g>
<g id="#201f1fff">
<path fill="#201f1f" opacity="1.00" d=" M 506.27 226.34 C 510.04 226.73 507.29 237.69 503.33 236.77 C 498.04 233.96 504.45 229.38 506.27 226.34 Z" />
</g>
<g id="#352c1cff">
<path fill="#352c1c" opacity="1.00" d=" M 224.13 260.94 C 216.27 252.06 233.08 245.56 238.93 240.21 C 243.69 246.88 247.84 253.97 252.16 260.92 C 242.82 260.99 233.47 261.11 224.13 260.94 Z" />
</g>
<g id="#f4d105ff">
<path fill="#f4d105" opacity="1.00" d=" M 298.66 244.70 C 304.96 241.17 313.88 243.01 320.86 242.08 C 326.76 245.65 328.00 253.75 333.04 258.00 C 337.59 257.26 341.76 255.10 345.51 252.47 C 346.47 254.40 352.77 258.04 348.05 257.77 C 343.03 256.99 337.83 257.56 333.79 260.90 C 325.23 261.03 316.68 261.20 308.13 260.94 C 304.50 256.05 298.20 250.95 298.66 244.70 Z" />
</g>
<g id="#f5d104ff">
<path fill="#f5d104" opacity="1.00" d=" M 355.34 242.68 C 362.33 245.21 370.40 241.26 377.04 242.05 C 380.00 251.26 388.70 242.28 395.04 245.71 C 408.09 246.36 421.05 237.43 434.15 244.25 C 436.16 242.55 444.91 240.31 440.54 244.52 C 432.62 249.35 441.85 256.15 445.16 261.01 C 435.53 260.97 425.91 261.18 416.30 260.79 C 410.84 258.54 404.96 258.86 399.23 258.10 C 404.89 252.78 389.37 260.68 396.11 255.19 C 405.48 253.63 388.49 250.03 400.01 250.87 C 402.18 254.18 412.14 255.93 409.33 250.76 C 407.53 246.39 403.10 250.32 400.01 250.87 C 395.45 246.83 392.50 252.45 387.60 252.62 C 400.40 252.64 389.97 257.35 384.96 253.88 C 386.61 256.51 388.55 259.01 391.08 260.86 C 381.77 260.98 372.47 261.18 363.17 260.96 C 357.91 257.22 356.29 245.08 349.84 246.02 L 349.15 246.30 C 348.43 242.59 352.49 241.52 355.34 242.68 Z" />
</g>
<g id="#f4d104ff">
<path fill="#f4d104" opacity="1.00" d=" M 456.66 243.71 C 471.11 241.01 486.27 242.36 500.98 243.03 C 498.81 246.74 494.72 246.69 490.96 247.08 C 492.72 252.35 501.52 252.35 503.78 252.87 C 496.44 253.75 494.55 255.35 500.15 261.02 L 499.18 261.03 C 490.54 260.82 481.91 261.27 473.29 260.91 C 471.68 259.10 470.14 256.44 466.85 257.82 C 470.29 256.92 470.77 254.83 467.46 253.23 C 463.72 257.32 457.26 255.53 452.35 254.96 C 453.77 251.67 455.55 247.42 460.34 248.41 C 457.70 247.22 453.97 247.64 456.66 243.71 Z" />
</g>
<g id="#ab9512ff">
<path fill="#ab9512" opacity="1.00" d=" M 349.15 246.30 L 349.84 246.02 C 355.02 248.36 347.64 254.35 348.57 248.79 C 345.20 250.41 340.71 255.36 337.65 250.70 C 341.83 250.34 345.84 248.93 349.15 246.30 Z" />
</g>
<g id="#4a3f1cff">
<path fill="#4a3f1c" opacity="1.00" d=" M 400.01 250.87 C 403.10 250.32 407.53 246.39 409.33 250.76 C 412.14 255.93 402.18 254.18 400.01 250.87 Z" />
</g>
<g id="#493d1cff">
<path fill="#493d1c" opacity="1.00" d=" M 387.60 252.62 C 392.50 252.45 395.45 246.83 400.01 250.87 C 388.49 250.03 405.48 253.63 396.11 255.19 C 389.37 260.68 404.89 252.78 399.23 258.10 C 404.96 258.86 410.84 258.54 416.30 260.79 C 407.88 260.53 399.50 260.56 391.08 260.86 C 388.55 259.01 386.61 256.51 384.96 253.88 C 389.97 257.35 400.40 252.64 387.60 252.62 Z" />
</g>
<g id="#e1d69fff">
<path fill="#e1d69f" opacity="1.00" d=" M 279.16 260.94 C 288.82 261.30 298.48 260.18 308.13 260.94 C 316.68 261.20 325.23 261.03 333.79 260.90 C 343.58 260.56 353.38 260.45 363.17 260.96 C 372.47 261.18 381.77 260.98 391.08 260.86 C 399.50 260.56 407.88 260.53 416.30 260.79 C 425.91 261.18 435.53 260.97 445.16 261.01 C 454.53 261.01 463.91 259.95 473.29 260.91 C 481.91 261.27 490.54 260.82 499.18 261.03 C 405.50 263.28 308.86 261.38 214.04 261.98 C 216.79 259.79 220.95 261.54 224.13 260.94 C 233.47 261.11 242.82 260.99 252.16 260.92 C 261.16 261.06 270.16 261.00 279.16 260.94 Z" />
</g>
</svg>
