<?xml version="1.0" encoding="UTF-8" ?>
<!DOCTYPE svg PUBLIC "-//W3C//DTD SVG 1.1//EN" "http://www.w3.org/Graphics/SVG/1.1/DTD/svg11.dtd">
<svg width="534pt" height="264pt" viewBox="0 0 534 264" version="1.1" xmlns="http://www.w3.org/2000/svg">
<g id="#080808fc">
<path fill="#080808" opacity="1.00" d=" M 60.02 27.01 C 73.92 10.34 98.86 -2.48 120.03 7.96 C 144.16 22.88 137.41 57.89 124.61 78.49 C 119.01 82.61 132.78 94.22 130.32 84.23 C 131.98 67.45 145.51 51.61 162.60 49.52 C 171.63 47.70 183.03 52.11 185.14 61.86 C 189.44 77.69 179.04 92.70 168.82 103.75 C 159.02 110.24 181.10 111.23 185.88 106.76 C 182.86 76.04 212.73 41.34 244.84 50.94 C 251.67 37.26 252.92 20.75 262.66 8.66 C 268.88 1.95 287.19 3.75 283.90 15.88 C 272.93 42.14 259.96 67.79 252.42 95.37 C 250.50 101.43 248.40 112.14 259.00 109.03 C 275.44 102.86 280.25 83.64 287.03 69.01 C 292.17 61.88 283.02 54.39 287.89 46.87 C 290.76 37.05 307.18 35.40 310.66 45.37 C 306.10 60.36 326.82 58.30 329.96 70.10 C 331.61 83.83 319.18 94.39 319.05 107.80 C 330.76 114.02 340.74 103.41 344.17 93.13 C 350.38 81.46 349.86 67.51 355.99 55.98 C 360.12 47.56 381.88 45.43 378.86 58.87 C 373.70 75.17 366.56 91.04 363.06 107.78 C 386.56 115.76 389.36 85.55 393.94 70.20 C 379.47 74.71 385.14 50.05 396.93 55.91 C 403.59 45.94 403.60 31.08 410.07 20.07 C 416.02 15.39 425.62 15.80 430.89 21.32 C 431.68 33.54 423.69 44.27 421.01 55.93 C 427.13 54.62 439.69 55.08 434.04 65.05 C 432.19 73.80 422.04 67.83 416.76 70.74 C 413.34 79.42 411.18 88.67 408.61 97.66 C 403.70 109.89 422.98 111.89 429.83 106.75 C 429.73 84.59 443.86 61.49 464.27 53.19 C 454.58 63.25 440.46 71.44 436.53 86.61 C 436.13 89.69 429.93 101.35 436.75 99.89 C 440.85 84.07 449.96 65.45 466.75 60.95 C 469.06 64.06 471.78 66.95 473.38 70.53 C 462.71 77.68 455.23 89.49 453.04 102.10 C 452.62 104.17 453.89 108.28 456.66 106.74 C 469.67 101.29 475.41 87.30 481.80 75.76 C 482.21 76.28 483.03 77.34 483.44 77.87 C 477.34 92.70 467.20 106.96 451.43 112.02 C 460.95 117.55 469.41 106.29 474.74 99.73 C 479.72 94.32 483.45 88.02 487.04 81.65 C 490.78 85.65 494.29 89.88 498.28 93.66 C 496.78 99.37 491.73 111.27 502.66 109.38 C 507.46 112.09 504.20 127.60 495.98 125.03 C 493.38 124.77 490.87 124.51 488.31 124.31 C 481.37 123.63 475.33 118.74 474.13 111.74 C 469.42 118.13 462.50 121.97 455.45 125.23 C 451.34 125.05 447.26 124.94 443.17 124.83 C 436.35 118.98 428.48 124.09 420.93 125.52 L 420.23 125.60 C 415.25 125.19 410.30 124.93 405.35 124.37 C 399.40 123.34 394.07 120.87 389.22 117.45 C 384.35 120.24 379.47 123.24 373.90 124.40 C 371.24 124.60 368.60 124.81 365.96 124.97 C 364.37 125.04 362.78 125.12 361.20 125.20 C 359.52 124.98 357.87 124.71 356.20 124.45 C 351.89 122.90 347.07 121.67 344.57 117.49 C 340.06 119.98 335.92 123.34 330.75 124.40 C 324.10 124.20 324.57 125.26 329.20 127.74 C 325.51 130.97 319.58 126.34 318.51 132.06 C 314.25 128.51 318.69 125.96 322.33 125.16 C 318.64 125.10 315.01 124.85 311.36 124.39 C 301.56 123.38 291.87 114.60 295.94 104.00 C 295.56 93.59 311.07 81.49 302.92 72.59 C 294.28 92.77 285.20 119.11 260.92 124.37 C 259.21 124.70 257.50 125.01 255.79 125.27 C 251.92 124.96 248.09 124.45 244.22 124.15 L 243.37 124.08 C 235.83 123.87 231.71 118.43 230.10 111.69 C 225.24 117.08 219.76 121.99 212.80 124.45 C 209.58 124.68 206.38 125.09 203.18 125.35 C 193.59 119.82 183.81 123.99 173.70 125.44 C 171.09 125.25 168.49 125.12 165.89 125.04 C 175.41 139.95 200.95 148.96 197.04 169.07 C 176.83 192.54 153.25 213.31 131.75 235.75 C 123.82 242.37 118.06 251.98 108.93 256.98 C 102.77 259.63 96.20 256.63 92.22 251.78 C 65.21 224.14 36.99 197.52 10.60 169.37 C 1.02 153.77 29.95 149.33 24.09 136.78 C 15.89 97.31 36.08 57.30 60.02 27.01 M 65.70 24.70 C 46.55 44.42 34.80 70.13 27.67 96.35 C 26.70 103.01 19.24 123.19 28.88 126.05 C 27.20 111.07 33.75 97.14 35.90 82.82 C 45.03 59.42 57.28 36.14 77.75 20.69 C 88.98 11.77 103.33 10.22 117.03 12.99 C 118.24 7.78 111.17 8.07 107.94 7.06 C 91.91 5.50 76.61 13.48 65.70 24.70 M 267.45 8.31 C 253.58 18.92 255.09 41.76 245.99 54.72 C 222.84 44.66 198.88 64.28 191.61 85.62 C 190.39 90.00 186.27 97.53 192.79 98.98 C 194.86 73.77 220.97 48.72 246.89 59.02 C 258.45 47.55 257.29 27.30 267.19 14.18 C 270.30 11.33 276.35 14.84 278.23 10.01 C 276.59 5.63 270.66 8.96 267.45 8.31 M 414.36 20.15 C 404.82 30.10 407.25 46.60 399.78 57.82 C 395.20 58.04 387.53 57.06 388.96 63.90 C 395.92 62.99 405.39 63.31 406.18 54.13 C 412.15 44.23 408.27 23.12 424.29 23.23 C 427.37 18.27 416.74 20.16 414.36 20.15 M 74.75 41.71 C 69.03 48.52 80.09 40.79 82.62 43.17 C 91.44 50.71 82.98 65.38 86.22 75.29 C 83.05 79.42 86.64 81.46 89.72 77.75 C 93.18 71.61 102.88 71.17 103.87 63.76 C 110.29 53.68 110.71 39.77 107.25 28.76 C 96.56 18.35 82.31 33.85 74.75 41.71 M 111.44 53.60 C 107.30 66.46 99.93 81.56 84.67 82.69 C 81.81 82.95 80.96 86.59 84.38 86.71 C 99.08 87.62 108.93 73.52 113.03 61.09 C 117.30 53.88 117.20 43.48 116.95 34.93 C 108.49 35.44 111.95 47.75 111.44 53.60 M 297.39 41.34 C 287.39 42.04 289.56 61.92 296.27 47.27 C 303.66 48.22 307.37 38.98 297.39 41.34 M 77.30 46.29 C 70.71 48.72 63.78 53.48 65.51 61.57 C 62.29 83.71 62.58 109.90 47.38 127.32 C 35.29 129.20 49.28 136.12 53.32 128.32 C 66.91 107.92 66.75 81.66 70.11 58.11 C 71.76 53.75 87.23 46.77 77.30 46.29 M 134.83 76.95 C 132.57 81.96 129.46 94.99 137.88 95.04 C 137.52 88.14 139.01 81.54 139.98 74.84 C 145.49 64.32 156.48 55.17 169.00 56.96 C 174.05 62.17 176.04 52.43 172.16 52.75 C 155.53 48.70 139.50 61.50 134.83 76.95 M 366.44 52.39 C 362.06 53.19 357.69 56.09 356.67 60.64 C 353.05 75.82 349.78 91.74 340.70 104.74 C 335.65 114.47 323.26 109.69 316.79 113.01 C 327.98 122.15 345.08 111.21 349.27 99.31 C 356.62 86.54 355.17 69.53 364.32 58.30 C 371.78 59.24 378.63 48.87 366.44 52.39 M 420.33 58.13 C 413.90 62.22 424.49 65.28 427.68 61.69 C 434.30 57.15 424.04 57.43 420.33 58.13 M 44.08 117.20 C 41.79 130.37 55.36 112.88 54.90 106.86 C 59.65 92.47 61.76 76.88 61.90 61.69 C 53.13 78.96 45.85 97.79 44.08 117.20 M 292.20 64.08 C 283.11 82.14 276.75 114.60 251.21 111.14 C 247.52 117.70 259.57 116.56 263.15 115.20 C 280.27 107.75 286.30 88.07 293.32 72.32 C 294.32 69.62 297.50 62.30 292.20 64.08 M 163.37 68.27 C 157.66 71.02 154.98 78.06 153.93 83.97 C 148.90 112.81 181.82 66.40 163.37 68.27 M 233.42 68.35 C 219.90 74.86 206.49 92.01 210.30 106.86 C 224.11 103.97 228.59 86.97 234.99 76.00 C 235.61 73.22 242.12 64.66 233.42 68.35 M 242.26 68.16 C 233.54 81.78 229.26 100.63 213.89 108.79 C 205.21 106.64 207.61 115.77 213.66 113.71 C 228.89 106.85 236.21 89.36 243.14 75.13 C 244.30 72.83 247.20 66.53 242.26 68.16 M 399.30 69.26 C 389.63 80.54 393.87 100.83 379.36 109.37 C 375.88 115.05 359.71 106.80 362.86 115.12 C 389.15 122.80 396.20 91.56 400.65 72.66 C 400.86 71.18 401.96 67.80 399.30 69.26 M 172.30 72.00 C 170.75 84.21 160.74 93.27 152.99 101.04 C 161.33 104.79 167.53 91.13 172.01 85.02 C 173.66 81.29 179.54 72.35 172.30 72.00 M 310.21 76.11 C 306.03 83.63 303.30 91.98 299.80 99.86 C 298.60 102.95 297.32 111.97 302.23 108.29 C 304.50 99.81 308.16 91.73 311.66 83.66 C 312.45 80.94 315.24 74.28 310.21 76.11 M 121.31 84.17 C 111.79 95.57 96.16 103.49 81.28 98.12 C 79.97 106.42 75.68 113.85 73.82 121.99 C 80.71 115.11 89.13 122.91 96.99 123.02 C 92.43 115.97 100.76 108.99 107.17 111.77 C 116.46 114.65 112.61 128.83 102.88 127.27 C 107.17 133.55 107.60 141.31 103.93 148.01 C 108.35 156.72 113.78 165.22 123.75 168.78 C 127.78 165.12 132.13 159.53 137.57 159.26 C 144.12 171.11 151.11 182.75 156.94 194.98 C 142.33 195.10 127.73 194.91 113.12 195.08 C 114.47 187.36 117.48 180.10 120.84 173.08 C 117.94 170.93 114.93 168.88 111.67 167.34 C 103.86 168.73 101.22 158.41 93.86 156.98 C 102.75 168.39 89.84 190.14 104.98 194.10 C 101.99 199.06 94.12 196.92 89.15 195.80 C 88.73 183.75 90.19 169.26 81.17 159.86 C 85.14 175.96 62.10 178.49 61.48 190.44 C 67.46 201.57 45.49 185.73 53.31 181.28 C 61.45 175.62 74.16 166.10 67.99 155.00 C 67.83 151.17 75.79 140.14 68.17 144.20 C 64.84 147.83 64.00 138.61 61.28 142.33 C 52.41 151.68 36.07 153.46 27.20 143.22 C 20.52 150.40 7.41 158.59 13.99 170.05 C 39.56 196.72 66.30 222.39 92.21 248.79 C 96.86 255.15 106.63 257.77 112.68 251.75 C 137.81 226.86 162.66 201.68 187.79 176.79 C 193.63 172.02 199.38 162.75 192.97 156.03 C 178.80 141.63 165.89 123.43 145.62 118.65 C 136.34 121.41 124.90 128.08 115.61 123.29 C 112.56 110.89 123.86 106.85 133.79 106.87 C 131.13 98.41 129.97 88.89 121.31 84.17 M 190.27 106.21 C 184.29 116.15 169.86 108.21 162.88 112.98 C 168.82 117.95 178.74 116.40 185.90 114.87 C 190.23 114.98 196.93 107.78 190.27 106.21 M 433.38 106.17 C 430.19 114.65 416.92 111.85 410.07 110.24 C 406.00 116.54 419.65 116.29 422.99 116.00 C 429.14 118.33 444.11 107.41 433.38 106.17 M 138.44 107.50 C 132.31 112.65 118.72 107.74 119.06 118.09 C 125.03 116.77 144.66 113.11 138.44 107.50 M 82.39 127.32 C 77.20 128.44 73.28 133.85 72.97 139.02 C 78.27 139.58 82.95 129.47 82.39 127.32 M 96.28 138.28 C 94.35 141.79 92.69 145.47 90.22 148.69 C 93.37 150.65 96.52 152.65 99.88 154.25 C 96.89 149.40 98.28 141.23 96.28 138.28 Z" />
</g>
<g id="#070707f8">
<path fill="#070707" opacity="0.97" d=" M 375.40 5.38 C 395.19 2.10 391.91 36.87 372.97 33.08 C 357.13 32.03 361.31 6.08 375.40 5.38 M 374.44 8.37 C 369.26 8.52 362.19 18.81 368.86 20.90 C 371.03 18.35 371.90 13.04 375.99 13.04 C 385.04 17.27 380.68 2.74 374.44 8.37 Z" />
</g>
<g id="#888888ff">
<path fill="#888888" opacity="1.00" d=" M 65.70 24.70 C 76.61 13.48 91.91 5.50 107.94 7.06 C 111.17 8.07 118.24 7.78 117.03 12.99 C 103.33 10.22 88.98 11.77 77.75 20.69 C 57.28 36.14 45.03 59.42 35.90 82.82 C 32.67 86.62 34.20 98.43 27.67 96.35 C 34.80 70.13 46.55 44.42 65.70 24.70 Z" />
<path fill="#888888" opacity="1.00" d=" M 111.44 53.60 C 114.99 54.77 113.50 58.36 113.03 61.09 C 108.93 73.52 99.08 87.62 84.38 86.71 C 80.96 86.59 81.81 82.95 84.67 82.69 C 99.93 81.56 107.30 66.46 111.44 53.60 Z" />
</g>
<g id="#828282ff">
<path fill="#828282" opacity="1.00" d=" M 267.45 8.31 C 270.66 8.96 276.59 5.63 278.23 10.01 C 276.35 14.84 270.30 11.33 267.19 14.18 C 257.29 27.30 258.45 47.55 246.89 59.02 C 220.97 48.72 194.86 73.77 192.79 98.98 C 186.27 97.53 190.39 90.00 191.61 85.62 C 198.88 64.28 222.84 44.66 245.99 54.72 C 255.09 41.76 253.58 18.92 267.45 8.31 Z" />
</g>
<g id="#838383ff">
<path fill="#838383" opacity="1.00" d=" M 374.44 8.37 C 380.68 2.74 385.04 17.27 375.99 13.04 C 371.90 13.04 371.03 18.35 368.86 20.90 C 362.19 18.81 369.26 8.52 374.44 8.37 Z" />
</g>
<g id="#7c7c7cff">
<path fill="#7c7c7c" opacity="1.00" d=" M 414.36 20.15 C 416.74 20.16 427.37 18.27 424.29 23.23 C 408.27 23.12 412.15 44.23 406.18 54.13 C 405.39 63.31 395.92 62.99 388.96 63.90 C 387.53 57.06 395.20 58.04 399.78 57.82 C 407.25 46.60 404.82 30.10 414.36 20.15 Z" />
</g>
<g id="#debb0cfd">
<path fill="#debb0c" opacity="1.00" d=" M 478.98 32.98 C 488.78 20.02 509.64 28.35 518.09 38.95 C 528.11 51.50 521.57 67.61 522.07 81.90 C 524.28 86.63 528.27 91.02 526.87 96.78 C 522.95 101.35 513.88 102.57 509.99 100.11 C 519.47 100.43 505.42 92.32 502.29 91.83 C 496.01 87.78 505.65 85.99 508.91 88.58 C 514.52 84.51 520.03 76.24 516.66 69.34 C 505.86 59.40 512.99 34.79 494.92 30.94 C 496.79 38.96 506.47 44.45 504.02 54.07 C 495.19 54.00 490.86 39.70 481.91 46.93 C 474.58 48.93 468.58 50.66 465.54 58.12 C 465.14 56.46 465.01 54.75 464.90 53.05 C 471.62 48.78 471.89 38.17 478.98 32.98 Z" />
</g>
<g id="#cea003ff">
<path fill="#cea003" opacity="1.00" d=" M 494.92 30.94 C 512.99 34.79 505.86 59.40 516.66 69.34 C 520.03 76.24 514.52 84.51 508.91 88.58 C 505.65 85.99 496.01 87.78 502.29 91.83 C 505.42 92.32 519.47 100.43 509.99 100.11 C 505.04 100.73 502.00 96.07 498.28 93.66 C 494.29 89.88 490.78 85.65 487.04 81.65 C 485.86 80.36 484.62 79.14 483.44 77.87 C 483.03 77.34 482.21 76.28 481.80 75.76 C 480.09 72.47 476.85 71.05 473.38 70.53 C 471.78 66.95 469.06 64.06 466.75 60.95 C 466.30 60.02 465.90 59.08 465.54 58.12 C 468.58 50.66 474.58 48.93 481.91 46.93 C 490.86 39.70 495.19 54.00 504.02 54.07 C 506.47 44.45 496.79 38.96 494.92 30.94 Z" />
</g>
<g id="#414141ff">
<path fill="#414141" opacity="1.00" d=" M 111.44 53.60 C 111.95 47.75 108.49 35.44 116.95 34.93 C 117.20 43.48 117.30 53.88 113.03 61.09 C 113.50 58.36 114.99 54.77 111.44 53.60 Z" />
</g>
<g id="#818181ff">
<path fill="#818181" opacity="1.00" d=" M 297.39 41.34 C 307.37 38.98 303.66 48.22 296.27 47.27 C 289.56 61.92 287.39 42.04 297.39 41.34 Z" />
<path fill="#818181" opacity="1.00" d=" M 190.27 106.21 C 196.93 107.78 190.23 114.98 185.90 114.87 C 178.74 116.40 168.82 117.95 162.88 112.98 C 169.86 108.21 184.29 116.15 190.27 106.21 Z" />
</g>
<g id="#6d6d6dff">
<path fill="#6d6d6d" opacity="1.00" d=" M 77.30 46.29 C 87.23 46.77 71.76 53.75 70.11 58.11 C 66.75 81.66 66.91 107.92 53.32 128.32 C 49.28 136.12 35.29 129.20 47.38 127.32 C 62.58 109.90 62.29 83.71 65.51 61.57 C 63.78 53.48 70.71 48.72 77.30 46.29 Z" />
</g>
<g id="#8c8c8cff">
<path fill="#8c8c8c" opacity="1.00" d=" M 134.83 76.95 C 139.50 61.50 155.53 48.70 172.16 52.75 C 176.04 52.43 174.05 62.17 169.00 56.96 C 156.48 55.17 145.49 64.32 139.98 74.84 C 139.50 78.10 134.69 83.17 134.83 76.95 Z" />
</g>
<g id="#7e7e7eff">
<path fill="#7e7e7e" opacity="1.00" d=" M 366.44 52.39 C 378.63 48.87 371.78 59.24 364.32 58.30 C 355.17 69.53 356.62 86.54 349.27 99.31 C 345.08 111.21 327.98 122.15 316.79 113.01 C 323.26 109.69 335.65 114.47 340.70 104.74 C 349.78 91.74 353.05 75.82 356.67 60.64 C 357.69 56.09 362.06 53.19 366.44 52.39 Z" />
</g>
<g id="#898886ff">
<path fill="#898886" opacity="1.00" d=" M 464.27 53.19 L 464.90 53.05 C 465.01 54.75 465.14 56.46 465.54 58.12 C 465.90 59.08 466.30 60.02 466.75 60.95 C 449.96 65.45 440.85 84.07 436.75 99.89 C 429.93 101.35 436.13 89.69 436.53 86.61 C 440.46 71.44 454.58 63.25 464.27 53.19 Z" />
</g>
<g id="#717171ff">
<path fill="#717171" opacity="1.00" d=" M 420.33 58.13 C 424.04 57.43 434.30 57.15 427.68 61.69 C 424.49 65.28 413.90 62.22 420.33 58.13 Z" />
</g>
<g id="#dabc09f1">
<path fill="#dabc09" opacity="0.95" d=" M 86.22 75.29 C 91.19 70.23 96.11 63.76 103.87 63.76 C 102.88 71.17 93.18 71.61 89.72 77.75 C 86.64 81.46 83.05 79.42 86.22 75.29 Z" />
</g>
<g id="#848484ff">
<path fill="#848484" opacity="1.00" d=" M 292.20 64.08 C 297.50 62.30 294.32 69.62 293.32 72.32 C 286.30 88.07 280.27 107.75 263.15 115.20 C 259.57 116.56 247.52 117.70 251.21 111.14 C 276.75 114.60 283.11 82.14 292.20 64.08 Z" />
</g>
<g id="#868686ff">
<path fill="#868686" opacity="1.00" d=" M 242.26 68.16 C 247.20 66.53 244.30 72.83 243.14 75.13 C 236.21 89.36 228.89 106.85 213.66 113.71 C 207.61 115.77 205.21 106.64 213.89 108.79 C 229.26 100.63 233.54 81.78 242.26 68.16 Z" />
</g>
<g id="#7a7a7aff">
<path fill="#7a7a7a" opacity="1.00" d=" M 399.30 69.26 C 401.96 67.80 400.86 71.18 400.65 72.66 C 396.20 91.56 389.15 122.80 362.86 115.12 C 359.71 106.80 375.88 115.05 379.36 109.37 C 393.87 100.83 389.63 80.54 399.30 69.26 Z" />
</g>
<g id="#858585ff">
<path fill="#858585" opacity="1.00" d=" M 172.30 72.00 C 179.54 72.35 173.66 81.29 172.01 85.02 C 167.53 91.13 161.33 104.79 152.99 101.04 C 160.74 93.27 170.75 84.21 172.30 72.00 Z" />
</g>
<g id="#3d3d3dff">
<path fill="#3d3d3d" opacity="1.00" d=" M 134.83 76.95 C 134.69 83.17 139.50 78.10 139.98 74.84 C 139.01 81.54 137.52 88.14 137.88 95.04 C 129.46 94.99 132.57 81.96 134.83 76.95 Z" />
</g>
<g id="#696969ff">
<path fill="#696969" opacity="1.00" d=" M 310.21 76.11 C 315.24 74.28 312.45 80.94 311.66 83.66 C 308.16 91.73 304.50 99.81 302.23 108.29 C 297.32 111.97 298.60 102.95 299.80 99.86 C 303.30 91.98 306.03 83.63 310.21 76.11 Z" />
</g>
<g id="#90908fff">
<path fill="#90908f" opacity="1.00" d=" M 483.44 77.87 C 484.62 79.14 485.86 80.36 487.04 81.65 C 483.45 88.02 479.72 94.32 474.74 99.73 C 469.41 106.29 460.95 117.55 451.43 112.02 C 467.20 106.96 477.34 92.70 483.44 77.87 Z" />
</g>
<g id="#d6bb09ef">
<path fill="#d6bb09" opacity="0.94" d=" M 130.32 84.23 C 132.78 94.22 119.01 82.61 124.61 78.49 C 126.77 80.11 128.87 81.92 130.32 84.23 Z" />
</g>
<g id="#494949ff">
<path fill="#494949" opacity="1.00" d=" M 27.67 96.35 C 34.20 98.43 32.67 86.62 35.90 82.82 C 33.75 97.14 27.20 111.07 28.88 126.05 C 19.24 123.19 26.70 103.01 27.67 96.35 Z" />
</g>
<g id="#f8d403ff">
<path fill="#f8d403" opacity="1.00" d=" M 121.31 84.17 C 129.97 88.89 131.13 98.41 133.79 106.87 C 123.86 106.85 112.56 110.89 115.61 123.29 C 124.90 128.08 136.34 121.41 145.62 118.65 C 165.89 123.43 178.80 141.63 192.97 156.03 C 199.38 162.75 193.63 172.02 187.79 176.79 C 162.66 201.68 137.81 226.86 112.68 251.75 C 106.63 257.77 96.86 255.15 92.21 248.79 C 66.30 222.39 39.56 196.72 13.99 170.05 C 7.41 158.59 20.52 150.40 27.20 143.22 C 36.07 153.46 52.41 151.68 61.28 142.33 C 64.00 138.61 64.84 147.83 68.17 144.20 C 75.79 140.14 67.83 151.17 67.99 155.00 C 74.16 166.10 61.45 175.62 53.31 181.28 C 45.49 185.73 67.46 201.57 61.48 190.44 C 62.10 178.49 85.14 175.96 81.17 159.86 C 90.19 169.26 88.73 183.75 89.15 195.80 C 94.12 196.92 101.99 199.06 104.98 194.10 C 89.84 190.14 102.75 168.39 93.86 156.98 C 101.22 158.41 103.86 168.73 111.67 167.34 C 114.93 168.88 117.94 170.93 120.84 173.08 C 117.48 180.10 114.47 187.36 113.12 195.08 C 127.73 194.91 142.33 195.10 156.94 194.98 C 151.11 182.75 144.12 171.11 137.57 159.26 C 132.13 159.53 127.78 165.12 123.75 168.78 C 113.78 165.22 108.35 156.72 103.93 148.01 C 107.60 141.31 107.17 133.55 102.88 127.27 C 112.61 128.83 116.46 114.65 107.17 111.77 C 100.76 108.99 92.43 115.97 96.99 123.02 C 89.13 122.91 80.71 115.11 73.82 121.99 C 75.68 113.85 79.97 106.42 81.28 98.12 C 96.16 103.49 111.79 95.57 121.31 84.17 Z" />
</g>
<g id="#808080ff">
<path fill="#808080" opacity="1.00" d=" M 433.38 106.17 C 444.11 107.41 429.14 118.33 422.99 116.00 C 419.65 116.29 406.00 116.54 410.07 110.24 C 416.92 111.85 430.19 114.65 433.38 106.17 Z" />
</g>
<g id="#d7ba0bee">
<path fill="#d7ba0b" opacity="0.93" d=" M 44.08 117.20 C 47.66 113.72 51.31 110.32 54.90 106.86 C 55.36 112.88 41.79 130.37 44.08 117.20 Z" />
</g>
<g id="#949494ff">
<path fill="#949494" opacity="1.00" d=" M 138.44 107.50 C 144.66 113.11 125.03 116.77 119.06 118.09 C 118.72 107.74 132.31 112.65 138.44 107.50 Z" />
</g>
<g id="#11110c1a">
<path fill="#11110c" opacity="0.10" d=" M 455.45 125.23 C 462.50 121.97 469.42 118.13 474.13 111.74 C 475.33 118.74 481.37 123.63 488.31 124.31 C 486.87 126.90 483.46 125.56 481.01 126.01 C 475.90 126.01 470.82 125.98 465.73 126.13 C 462.25 126.14 458.81 126.11 455.45 125.23 Z" />
</g>
<g id="#0606060b">
<path fill="#060606" opacity="0.04" d=" M 330.75 124.40 C 335.92 123.34 340.06 119.98 344.57 117.49 C 347.07 121.67 351.89 122.90 356.20 124.45 L 355.72 125.03 C 347.56 124.98 339.42 125.07 331.27 124.99 L 330.75 124.40 Z" />
</g>
<g id="#0707060b">
<path fill="#070706" opacity="0.04" d=" M 389.22 117.45 C 394.07 120.87 399.40 123.34 405.35 124.37 L 404.80 124.96 C 394.64 124.16 384.46 126.70 374.39 124.89 L 373.90 124.40 C 379.47 123.24 384.35 120.24 389.22 117.45 Z" />
</g>
<g id="#e1dab0ff">
<path fill="#e1dab0" opacity="1.00" d=" M 173.70 125.44 C 183.81 123.99 193.59 119.82 203.18 125.35 C 199.36 125.87 195.54 125.77 191.71 125.81 C 185.70 126.02 179.67 126.19 173.70 125.44 Z" />
</g>
<g id="#c0bfbcff">
<path fill="#c0bfbc" opacity="1.00" d=" M 420.93 125.52 C 428.48 124.09 436.35 118.98 443.17 124.83 C 441.64 125.08 440.13 125.38 438.62 125.69 C 432.71 126.11 426.81 126.08 420.93 125.52 Z" />
</g>
<g id="#433a28e1">
<path fill="#433a28" opacity="0.88" d=" M 203.18 125.35 C 206.38 125.09 209.58 124.68 212.80 124.45 C 222.73 125.82 232.83 124.74 242.83 124.91 C 238.04 130.29 215.12 119.68 219.78 129.72 C 213.47 131.88 207.65 131.71 202.43 127.55 C 199.28 127.44 189.98 131.79 191.71 125.81 C 195.54 125.77 199.36 125.87 203.18 125.35 Z" />
</g>
<g id="#eccb06fa">
<path fill="#eccb06" opacity="0.98" d=" M 243.37 124.08 L 244.22 124.15 C 246.04 128.67 250.00 131.78 251.69 136.37 C 253.50 141.78 263.17 129.13 259.94 136.77 C 250.91 142.08 241.77 148.14 237.09 158.03 C 235.60 161.68 231.16 158.90 228.19 159.14 C 219.50 157.46 232.18 149.83 236.28 153.73 C 231.87 147.32 227.75 140.72 223.51 134.20 C 222.02 142.11 205.14 136.22 207.13 142.85 C 213.36 139.91 219.45 142.48 224.52 146.24 C 217.87 145.99 211.44 150.06 204.82 147.08 C 206.35 154.27 212.56 159.16 218.71 162.48 C 213.47 165.95 217.97 165.86 220.99 164.92 C 221.48 161.27 224.66 160.16 227.01 163.08 C 231.88 162.71 236.35 166.50 230.59 169.87 C 227.06 173.32 214.33 163.09 219.36 170.67 C 221.27 176.27 230.30 167.21 230.16 173.46 C 226.67 172.25 219.58 175.59 226.38 175.42 C 233.01 173.79 230.89 179.92 225.66 179.98 C 231.29 185.31 233.87 192.75 238.41 199.00 L 237.91 199.82 C 230.07 199.92 222.10 200.63 214.31 199.69 C 213.26 199.41 212.22 199.12 211.18 198.83 C 206.80 191.93 202.66 184.86 197.93 178.20 C 192.08 183.57 175.26 190.07 183.13 198.94 C 179.98 199.04 176.67 198.41 173.71 199.73 C 153.08 220.09 133.05 241.17 111.98 261.01 C 98.18 269.54 88.96 253.63 80.25 245.75 C 56.00 221.66 32.20 197.05 7.39 173.62 C -4.81 159.38 14.95 146.00 24.09 136.78 C 29.95 149.33 1.02 153.77 10.60 169.37 C 36.99 197.52 65.21 224.14 92.22 251.78 C 96.20 256.63 102.77 259.63 108.93 256.98 C 118.06 251.98 123.82 242.37 131.75 235.75 C 153.25 213.31 176.83 192.54 197.04 169.07 C 200.95 148.96 175.41 139.95 165.89 125.04 C 168.49 125.12 171.09 125.25 173.70 125.44 C 179.67 126.19 185.70 126.02 191.71 125.81 C 189.98 131.79 199.28 127.44 202.43 127.55 C 207.65 131.71 213.47 131.88 219.78 129.72 C 215.12 119.68 238.04 130.29 242.83 124.91 L 243.37 124.08 M 218.20 133.45 C 205.96 137.52 230.11 136.66 218.20 133.45 M 203.37 138.34 C 194.51 138.22 203.09 147.26 208.15 145.97 C 203.69 144.67 205.51 138.34 203.37 138.34 Z" />
</g>
<g id="#262117fe">
<path fill="#262117" opacity="1.00" d=" M 244.22 124.15 C 248.09 124.45 251.92 124.96 255.79 125.27 C 264.29 127.87 249.77 124.68 252.04 130.79 C 256.70 131.59 261.47 131.37 265.97 133.08 C 268.83 125.94 253.77 131.30 262.10 126.11 C 265.70 126.05 269.33 125.95 272.94 125.97 C 276.54 130.20 276.12 132.16 270.81 129.12 C 274.24 132.73 272.03 133.33 268.06 132.37 C 267.65 136.16 277.26 132.45 277.10 136.79 C 272.12 137.08 265.07 134.57 260.96 137.79 C 264.49 139.24 268.42 140.60 269.25 144.85 C 274.94 147.90 287.85 140.13 288.47 151.06 C 293.74 154.56 301.50 154.50 307.67 153.25 C 315.93 156.54 309.28 166.29 307.95 172.13 C 316.98 168.68 317.33 155.56 320.15 151.01 C 312.76 148.83 327.41 150.67 328.75 150.21 C 329.26 154.94 337.28 157.24 338.47 152.41 C 341.37 146.88 332.30 149.53 339.09 144.66 C 342.50 144.41 347.13 141.14 349.83 144.17 C 354.79 148.28 345.13 154.98 352.72 157.86 C 352.02 148.35 364.15 146.72 366.06 155.97 C 374.04 159.63 368.60 167.18 368.99 172.56 C 373.76 165.56 375.20 156.11 373.80 149.26 C 365.76 146.55 361.27 136.48 359.18 129.58 C 353.82 129.44 357.77 125.25 361.20 125.20 C 362.78 125.12 364.37 125.04 365.96 124.97 C 368.17 126.07 370.73 133.13 370.77 127.58 C 374.08 127.50 377.43 127.55 374.39 124.89 C 384.46 126.70 394.64 124.16 404.80 124.96 C 398.43 127.18 390.71 125.37 383.88 126.07 C 387.85 134.32 393.67 141.55 398.99 148.96 C 392.26 154.05 383.67 148.97 375.95 150.03 C 376.02 155.29 384.65 151.09 386.90 155.81 C 390.24 152.16 395.42 152.46 398.96 155.63 C 404.35 153.96 411.68 150.71 415.87 156.17 C 423.03 160.24 416.91 149.10 422.58 146.49 C 421.54 138.44 415.10 134.30 411.04 126.17 C 414.09 126.06 417.38 127.07 420.23 125.60 L 420.93 125.52 C 426.81 126.08 432.71 126.11 438.62 125.69 C 439.64 129.24 445.21 133.22 442.33 136.69 C 445.06 138.77 448.81 139.67 450.31 143.11 C 446.77 145.20 442.43 144.63 438.50 144.56 C 440.01 146.11 446.29 146.71 442.06 148.98 C 438.26 147.17 437.39 152.29 435.43 154.47 C 433.28 162.30 447.92 152.15 441.25 152.71 C 438.36 152.67 441.63 150.25 442.06 148.98 C 445.48 153.16 450.22 150.47 454.66 150.17 C 459.29 152.37 446.14 152.78 453.31 154.68 C 457.09 152.18 458.62 155.62 460.68 158.99 C 460.24 153.10 467.22 147.72 472.22 151.78 C 477.31 163.00 471.12 178.66 480.65 188.35 C 476.85 194.66 466.61 197.82 459.17 199.01 C 456.67 195.72 450.91 189.34 460.85 191.82 C 466.54 189.22 450.17 191.56 449.96 185.06 C 453.73 184.71 457.81 184.73 459.99 181.03 C 445.29 180.38 430.09 178.96 415.70 181.76 C 412.80 185.65 416.85 185.10 419.31 186.50 C 415.14 183.89 407.27 194.37 414.61 193.48 C 420.10 196.15 426.01 188.55 429.33 193.92 C 422.69 196.63 430.41 195.13 432.27 198.88 C 422.90 198.04 413.53 198.84 404.16 198.97 C 397.59 193.03 393.28 185.86 401.08 179.96 C 392.68 184.48 384.94 177.36 376.06 180.65 C 367.00 179.75 359.20 187.02 349.72 182.71 C 344.60 183.82 338.14 187.02 336.04 180.04 C 329.42 179.27 321.32 183.22 314.33 180.67 C 311.51 179.50 307.44 180.60 308.16 184.28 C 304.86 186.93 300.84 188.33 296.66 188.70 C 299.41 195.63 308.03 183.00 307.47 189.30 C 311.49 189.15 311.18 186.45 308.89 183.99 C 315.29 183.21 316.96 195.22 322.18 199.00 C 312.73 199.59 303.10 196.56 293.88 198.64 C 296.75 192.05 314.22 199.54 305.96 192.00 C 304.45 188.33 301.36 193.68 298.85 193.95 C 286.08 202.86 287.75 177.57 276.23 180.06 C 271.01 182.05 252.47 177.19 258.90 187.92 C 260.47 191.96 264.24 194.59 266.20 198.45 C 256.94 198.87 247.66 198.40 238.41 199.00 C 233.87 192.75 231.29 185.31 225.66 179.98 C 230.89 179.92 233.01 173.79 226.38 175.42 C 219.58 175.59 226.67 172.25 230.16 173.46 C 230.30 167.21 221.27 176.27 219.36 170.67 C 214.33 163.09 227.06 173.32 230.59 169.87 C 236.35 166.50 231.88 162.71 227.01 163.08 C 227.81 161.89 228.76 160.64 228.19 159.14 C 231.16 158.90 235.60 161.68 237.09 158.03 C 241.77 148.14 250.91 142.08 259.94 136.77 C 263.17 129.13 253.50 141.78 251.69 136.37 C 250.00 131.78 246.04 128.67 244.22 124.15 M 377.27 134.30 C 366.71 136.50 376.89 142.67 382.98 139.88 C 380.93 138.46 378.65 135.80 377.27 134.30 M 426.40 136.31 C 423.68 137.27 422.16 139.08 425.28 140.83 C 429.31 143.12 430.56 135.06 426.40 136.31 M 259.34 141.31 C 248.18 144.76 240.97 155.36 236.55 165.62 C 233.88 172.52 229.76 186.15 240.88 186.18 C 248.37 188.27 252.93 179.50 258.23 175.96 C 252.94 170.37 249.85 186.65 242.32 183.75 C 233.16 180.11 239.49 168.01 242.42 161.40 C 246.99 154.28 252.02 143.41 262.00 145.00 C 267.48 153.16 251.43 153.61 255.11 159.00 C 262.61 158.32 271.50 140.79 259.34 141.31 M 339.65 157.64 C 330.63 159.17 341.35 161.88 336.69 167.67 C 337.87 173.81 323.23 177.11 333.82 175.65 C 338.42 177.32 346.85 180.56 349.75 175.84 C 355.01 172.20 355.93 165.00 359.99 160.82 C 366.02 164.15 356.13 171.15 359.00 176.12 C 365.92 175.80 362.12 166.81 365.89 162.85 C 369.99 158.20 358.49 159.14 361.62 153.35 C 358.28 149.55 353.94 155.69 356.49 159.21 C 354.64 166.25 350.55 177.97 341.40 173.96 C 341.29 169.82 341.79 164.67 344.34 161.35 C 348.16 164.34 354.58 153.29 344.95 157.81 C 345.02 154.20 347.53 151.23 347.85 147.66 C 343.16 141.21 340.60 153.05 339.65 157.64 M 434.47 147.52 C 430.34 150.56 422.56 145.79 421.93 153.08 C 425.59 150.69 438.60 149.99 434.47 147.52 M 324.32 153.25 C 318.19 159.33 317.76 175.48 304.81 175.21 C 313.52 176.61 332.45 178.94 327.64 163.41 C 320.13 159.96 332.71 152.69 324.32 153.25 M 467.32 153.25 C 461.20 159.63 460.31 176.27 446.73 175.32 C 451.37 179.50 456.88 173.46 462.04 175.88 C 470.25 178.73 473.35 166.42 469.27 161.73 C 464.33 158.31 475.79 152.62 467.32 153.25 M 274.35 156.32 C 263.70 159.41 266.29 172.64 260.88 177.97 C 267.54 172.36 279.52 179.58 280.81 167.88 C 285.08 160.00 281.88 155.62 274.35 156.32 M 292.23 156.03 C 289.19 160.48 290.03 166.58 287.23 171.23 C 284.83 173.76 278.17 179.52 285.66 176.64 C 291.83 173.46 301.66 155.02 292.23 156.03 M 304.95 156.15 C 302.49 156.10 293.58 162.58 298.86 162.86 C 308.46 157.76 295.73 171.69 299.00 176.13 C 306.78 175.55 301.79 164.41 306.32 160.30 C 308.58 158.46 308.84 154.49 304.95 156.15 M 378.37 156.15 C 373.00 162.74 377.22 177.88 364.71 175.32 C 372.28 180.65 382.05 169.97 389.62 175.41 C 393.55 178.05 397.46 176.12 401.05 173.99 C 404.88 175.48 405.13 179.69 403.21 182.84 C 411.01 182.57 406.41 188.83 400.07 185.33 C 396.47 194.15 420.05 182.18 406.13 179.66 C 413.33 170.86 428.54 182.37 431.63 168.67 C 431.04 165.27 437.55 155.63 429.86 157.37 C 421.53 152.57 414.17 165.98 415.74 173.68 C 409.33 179.43 395.88 169.57 403.02 162.03 C 404.61 156.57 418.47 161.41 411.71 156.19 C 401.92 153.37 394.26 165.37 397.67 173.94 C 383.88 179.12 390.51 161.38 395.19 156.05 C 385.83 154.24 389.15 168.64 382.34 172.32 C 378.20 177.67 375.79 169.28 378.05 166.08 C 377.20 160.83 389.88 154.93 378.37 156.15 M 444.38 156.25 C 436.77 158.88 436.78 168.22 437.30 174.26 C 425.85 179.34 441.84 175.43 446.15 173.01 C 450.62 168.72 457.23 152.00 444.38 156.25 M 250.46 158.36 C 243.17 163.51 246.52 181.89 255.12 170.98 C 264.42 176.71 261.39 162.81 266.20 157.97 C 262.46 159.22 259.42 163.36 255.31 162.77 C 252.67 162.64 252.43 157.28 250.46 158.36 M 352.57 160.53 C 351.21 164.65 344.56 162.91 345.14 167.80 C 349.17 170.83 354.20 161.26 352.57 160.53 M 407.25 165.12 C 404.15 167.60 406.78 173.72 410.99 172.12 C 410.41 169.99 401.56 169.95 412.97 169.81 C 414.34 166.06 410.39 164.30 407.25 165.12 Z" />
</g>
<g id="#c1a918ff">
<path fill="#c1a918" opacity="1.00" d=" M 255.79 125.27 C 257.50 125.01 259.21 124.70 260.92 124.37 L 261.33 124.94 C 261.52 125.23 261.91 125.82 262.10 126.11 C 253.77 131.30 268.83 125.94 265.97 133.08 C 261.47 131.37 256.70 131.59 252.04 130.79 C 249.77 124.68 264.29 127.87 255.79 125.27 Z" />
</g>
<g id="#f3d006ff">
<path fill="#f3d006" opacity="1.00" d=" M 311.36 124.39 C 315.01 124.85 318.64 125.10 322.33 125.16 C 318.69 125.96 314.25 128.51 318.51 132.06 C 319.58 126.34 325.51 130.97 329.20 127.74 C 324.57 125.26 324.10 124.20 330.75 124.40 L 331.27 124.99 C 338.70 126.76 348.29 126.73 355.72 125.03 L 356.20 124.45 C 357.87 124.71 359.52 124.98 361.20 125.20 C 357.77 125.25 353.82 129.44 359.18 129.58 C 361.27 136.48 365.76 146.55 373.80 149.26 C 375.20 156.11 373.76 165.56 368.99 172.56 C 368.60 167.18 374.04 159.63 366.06 155.97 C 364.15 146.72 352.02 148.35 352.72 157.86 C 345.13 154.98 354.79 148.28 349.83 144.17 C 347.13 141.14 342.50 144.41 339.09 144.66 C 336.58 140.25 330.39 144.55 326.03 143.91 C 321.66 145.81 312.98 138.52 313.19 146.66 C 318.27 151.15 326.76 144.71 333.24 145.58 C 338.83 145.87 331.78 151.61 328.75 150.21 C 327.41 150.67 312.76 148.83 320.15 151.01 C 317.33 155.56 316.98 168.68 307.95 172.13 C 309.28 166.29 315.93 156.54 307.67 153.25 C 301.50 154.50 293.74 154.56 288.47 151.06 C 287.85 140.13 274.94 147.90 269.25 144.85 C 268.42 140.60 264.49 139.24 260.96 137.79 C 265.07 134.57 272.12 137.08 277.10 136.79 C 277.26 132.45 267.65 136.16 268.06 132.37 C 272.03 133.33 274.24 132.73 270.81 129.12 C 276.12 132.16 276.54 130.20 272.94 125.97 C 285.34 125.01 299.02 127.83 310.83 125.01 L 311.36 124.39 M 329.54 134.52 C 318.80 138.02 331.96 140.70 337.04 138.94 C 335.14 136.53 333.95 131.66 329.54 134.52 Z" />
</g>
<g id="#dec52bff">
<path fill="#dec52b" opacity="1.00" d=" M 365.96 124.97 C 368.60 124.81 371.24 124.60 373.90 124.40 L 374.39 124.89 C 377.43 127.55 374.08 127.50 370.77 127.58 C 370.73 133.13 368.17 126.07 365.96 124.97 Z" />
</g>
<g id="#f3d007ff">
<path fill="#f3d007" opacity="1.00" d=" M 405.35 124.37 C 410.30 124.93 415.25 125.19 420.23 125.60 C 417.38 127.07 414.09 126.06 411.04 126.17 C 415.10 134.30 421.54 138.44 422.58 146.49 C 416.91 149.10 423.03 160.24 415.87 156.17 C 411.68 150.71 404.35 153.96 398.96 155.63 C 395.42 152.46 390.24 152.16 386.90 155.81 C 384.65 151.09 376.02 155.29 375.95 150.03 C 383.67 148.97 392.26 154.05 398.99 148.96 C 393.67 141.55 387.85 134.32 383.88 126.07 C 390.71 125.37 398.43 127.18 404.80 124.96 L 405.35 124.37 Z" />
</g>
<g id="#b79e1afa">
<path fill="#b79e1a" opacity="0.98" d=" M 488.31 124.31 C 490.87 124.51 493.38 124.77 495.98 125.03 C 495.97 126.77 495.95 130.27 495.93 132.02 C 490.12 132.24 482.38 128.17 481.01 126.01 C 483.46 125.56 486.87 126.90 488.31 124.31 Z" />
</g>
<g id="#61593072">
<path fill="#615930" opacity="0.45" d=" M 261.33 124.94 C 277.83 125.11 294.33 124.95 310.83 125.01 C 299.02 127.83 285.34 125.01 272.94 125.97 C 269.33 125.95 265.70 126.05 262.10 126.11 C 261.91 125.82 261.52 125.23 261.33 124.94 Z" />
</g>
<g id="#72683177">
<path fill="#726831" opacity="0.47" d=" M 331.27 124.99 C 339.42 125.07 347.56 124.98 355.72 125.03 C 348.29 126.73 338.70 126.76 331.27 124.99 Z" />
</g>
<g id="#f2cf06fe">
<path fill="#f2cf06" opacity="1.00" d=" M 438.62 125.69 C 440.13 125.38 441.64 125.08 443.17 124.83 C 447.26 124.94 451.34 125.05 455.45 125.23 C 458.81 126.11 462.25 126.14 465.73 126.13 C 469.80 133.14 473.44 139.86 482.43 139.70 C 470.17 135.16 477.03 148.40 483.83 146.32 C 485.01 149.20 481.21 147.21 479.71 147.41 C 481.67 150.81 484.08 153.90 486.46 157.03 C 486.63 152.19 491.83 155.24 494.82 155.12 C 495.28 156.75 494.58 158.32 493.79 159.71 C 488.44 159.85 489.08 162.90 492.03 166.20 C 489.75 173.98 487.06 182.82 480.65 188.35 C 471.12 178.66 477.31 163.00 472.22 151.78 C 467.22 147.72 460.24 153.10 460.68 158.99 C 458.62 155.62 457.09 152.18 453.31 154.68 C 446.14 152.78 459.29 152.37 454.66 150.17 C 450.22 150.47 445.48 153.16 442.06 148.98 C 446.29 146.71 440.01 146.11 438.50 144.56 C 442.43 144.63 446.77 145.20 450.31 143.11 C 448.81 139.67 445.06 138.77 442.33 136.69 C 445.21 133.22 439.64 129.24 438.62 125.69 Z" />
</g>
<g id="#44391bfd">
<path fill="#44391b" opacity="1.00" d=" M 465.73 126.13 C 470.82 125.98 475.90 126.01 481.01 126.01 C 482.38 128.17 490.12 132.24 495.93 132.02 C 495.77 139.68 497.12 147.65 494.82 155.12 C 491.83 155.24 486.63 152.19 486.46 157.03 C 484.08 153.90 481.67 150.81 479.71 147.41 C 481.21 147.21 485.01 149.20 483.83 146.32 C 477.03 148.40 470.17 135.16 482.43 139.70 C 473.44 139.86 469.80 133.14 465.73 126.13 Z" />
</g>
<g id="#e4c805ff">
<path fill="#e4c805" opacity="1.00" d=" M 82.39 127.32 C 82.95 129.47 78.27 139.58 72.97 139.02 C 73.28 133.85 77.20 128.44 82.39 127.32 Z" />
</g>
<g id="#4c411aff">
<path fill="#4c411a" opacity="1.00" d=" M 218.20 133.45 C 230.11 136.66 205.96 137.52 218.20 133.45 Z" />
</g>
<g id="#4c401bff">
<path fill="#4c401b" opacity="1.00" d=" M 223.51 134.20 C 227.75 140.72 231.87 147.32 236.28 153.73 C 232.18 149.83 219.50 157.46 228.19 159.14 C 228.76 160.64 227.81 161.89 227.01 163.08 C 224.66 160.16 221.48 161.27 220.99 164.92 C 217.97 165.86 213.47 165.95 218.71 162.48 C 212.56 159.16 206.35 154.27 204.82 147.08 C 211.44 150.06 217.87 145.99 224.52 146.24 C 219.45 142.48 213.36 139.91 207.13 142.85 C 205.14 136.22 222.02 142.11 223.51 134.20 M 217.38 150.28 C 210.06 152.75 220.80 153.59 215.88 156.12 C 219.80 157.86 221.59 149.16 217.38 150.28 Z" />
</g>
<g id="#382d1bff">
<path fill="#382d1b" opacity="1.00" d=" M 329.54 134.52 C 333.95 131.66 335.14 136.53 337.04 138.94 C 331.96 140.70 318.80 138.02 329.54 134.52 Z" />
</g>
<g id="#e0c209ff">
<path fill="#e0c209" opacity="1.00" d=" M 377.27 134.30 C 378.65 135.80 380.93 138.46 382.98 139.88 C 376.89 142.67 366.71 136.50 377.27 134.30 Z" />
</g>
<g id="#e3c409ff">
<path fill="#e3c409" opacity="1.00" d=" M 426.40 136.31 C 430.56 135.06 429.31 143.12 425.28 140.83 C 422.16 139.08 423.68 137.27 426.40 136.31 Z" />
</g>
<g id="#e8ca06ff">
<path fill="#e8ca06" opacity="1.00" d=" M 96.28 138.28 C 98.28 141.23 96.89 149.40 99.88 154.25 C 96.52 152.65 93.37 150.65 90.22 148.69 C 92.69 145.47 94.35 141.79 96.28 138.28 Z" />
</g>
<g id="#53441cff">
<path fill="#53441c" opacity="1.00" d=" M 203.37 138.34 C 205.51 138.34 203.69 144.67 208.15 145.97 C 203.09 147.26 194.51 138.22 203.37 138.34 Z" />
</g>
<g id="#e5e1e1ff">
<path fill="#e5e1e1" opacity="1.00" d=" M 259.34 141.31 C 271.50 140.79 262.61 158.32 255.11 159.00 C 251.43 153.61 267.48 153.16 262.00 145.00 C 252.02 143.41 246.99 154.28 242.42 161.40 C 239.49 168.01 233.16 180.11 242.32 183.75 C 249.85 186.65 252.94 170.37 258.23 175.96 C 252.93 179.50 248.37 188.27 240.88 186.18 C 229.76 186.15 233.88 172.52 236.55 165.62 C 240.97 155.36 248.18 144.76 259.34 141.31 Z" />
</g>
<g id="#7c6917ff">
<path fill="#7c6917" opacity="1.00" d=" M 313.19 146.66 C 312.98 138.52 321.66 145.81 326.03 143.91 C 330.39 144.55 336.58 140.25 339.09 144.66 C 332.30 149.53 341.37 146.88 338.47 152.41 C 337.28 157.24 329.26 154.94 328.75 150.21 C 331.78 151.61 338.83 145.87 333.24 145.58 C 326.76 144.71 318.27 151.15 313.19 146.66 Z" />
</g>
<g id="#ece8e8ff">
<path fill="#ece8e8" opacity="1.00" d=" M 339.65 157.64 C 340.60 153.05 343.16 141.21 347.85 147.66 C 339.41 154.77 344.54 171.96 333.82 175.65 C 323.23 177.11 337.87 173.81 336.69 167.67 C 341.35 161.88 330.63 159.17 339.65 157.64 Z" />
</g>
<g id="#d8d5d5ff">
<path fill="#d8d5d5" opacity="1.00" d=" M 434.47 147.52 C 438.60 149.99 425.59 150.69 421.93 153.08 C 422.56 145.79 430.34 150.56 434.47 147.52 Z" />
</g>
<g id="#545252ff">
<path fill="#545252" opacity="1.00" d=" M 333.82 175.65 C 344.54 171.96 339.41 154.77 347.85 147.66 C 347.53 151.23 345.02 154.20 344.95 157.81 C 354.58 153.29 348.16 164.34 344.34 161.35 C 341.79 164.67 341.29 169.82 341.40 173.96 C 342.06 177.78 347.09 176.88 349.75 175.84 C 346.85 180.56 338.42 177.32 333.82 175.65 Z" />
</g>
<g id="#ddbe06ff">
<path fill="#ddbe06" opacity="1.00" d=" M 435.43 154.47 C 437.39 152.29 438.26 147.17 442.06 148.98 C 441.63 150.25 438.36 152.67 441.25 152.71 C 447.92 152.15 433.28 162.30 435.43 154.47 Z" />
</g>
<g id="#dbbe0aff">
<path fill="#dbbe0a" opacity="1.00" d=" M 217.38 150.28 C 221.59 149.16 219.80 157.86 215.88 156.12 C 220.80 153.59 210.06 152.75 217.38 150.28 Z" />
</g>
<g id="#dad6d6ff">
<path fill="#dad6d6" opacity="1.00" d=" M 356.49 159.21 C 353.94 155.69 358.28 149.55 361.62 153.35 C 358.49 159.14 369.99 158.20 365.89 162.85 C 362.12 166.81 365.92 175.80 359.00 176.12 C 356.13 171.15 366.02 164.15 359.99 160.82 C 355.93 165.00 355.01 172.20 349.75 175.84 C 347.09 176.88 342.06 177.78 341.40 173.96 C 350.55 177.97 354.64 166.25 356.49 159.21 Z" />
<path fill="#dad6d6" opacity="1.00" d=" M 467.32 153.25 C 475.79 152.62 464.33 158.31 469.27 161.73 C 473.35 166.42 470.25 178.73 462.04 175.88 C 456.88 173.46 451.37 179.50 446.73 175.32 C 460.31 176.27 461.20 159.63 467.32 153.25 M 465.33 164.42 C 463.99 167.20 457.93 170.74 461.18 173.82 C 465.72 178.67 469.26 164.01 465.33 164.42 Z" />
</g>
<g id="#dad7d7ff">
<path fill="#dad7d7" opacity="1.00" d=" M 324.32 153.25 C 332.71 152.69 320.13 159.96 327.64 163.41 C 332.45 178.94 313.52 176.61 304.81 175.21 C 317.76 175.48 318.19 159.33 324.32 153.25 M 322.33 164.42 C 320.99 167.20 314.93 170.74 318.18 173.82 C 322.72 178.67 326.26 164.01 322.33 164.42 Z" />
</g>
<g id="#dfdcdcff">
<path fill="#dfdcdc" opacity="1.00" d=" M 274.35 156.32 C 281.88 155.62 285.08 160.00 280.81 167.88 C 279.52 179.58 267.54 172.36 260.88 177.97 C 266.29 172.64 263.70 159.41 274.35 156.32 M 276.13 159.38 C 269.39 160.39 264.66 171.82 272.08 175.03 C 278.55 173.77 280.80 163.01 276.13 159.38 Z" />
</g>
<g id="#e6e2e2ff">
<path fill="#e6e2e2" opacity="1.00" d=" M 292.23 156.03 C 301.66 155.02 291.83 173.46 285.66 176.64 C 278.17 179.52 284.83 173.76 287.23 171.23 C 290.03 166.58 289.19 160.48 292.23 156.03 Z" />
</g>
<g id="#dfdbdbff">
<path fill="#dfdbdb" opacity="1.00" d=" M 304.95 156.15 C 308.84 154.49 308.58 158.46 306.32 160.30 C 301.79 164.41 306.78 175.55 299.00 176.13 C 295.73 171.69 308.46 157.76 298.86 162.86 C 293.58 162.58 302.49 156.10 304.95 156.15 Z" />
</g>
<g id="#dbd7d7ff">
<path fill="#dbd7d7" opacity="1.00" d=" M 378.37 156.15 C 389.88 154.93 377.20 160.83 378.05 166.08 C 375.79 169.28 378.20 177.67 382.34 172.32 C 389.15 168.64 385.83 154.24 395.19 156.05 C 390.51 161.38 383.88 179.12 397.67 173.94 C 394.26 165.37 401.92 153.37 411.71 156.19 C 418.47 161.41 404.61 156.57 403.02 162.03 C 395.88 169.57 409.33 179.43 415.74 173.68 C 414.17 165.98 421.53 152.57 429.86 157.37 C 437.55 155.63 431.04 165.27 431.63 168.67 C 428.54 182.37 413.33 170.86 406.13 179.66 C 420.05 182.18 396.47 194.15 400.07 185.33 C 406.41 188.83 411.01 182.57 403.21 182.84 C 405.13 179.69 404.88 175.48 401.05 173.99 C 397.46 176.12 393.55 178.05 389.62 175.41 C 382.05 169.97 372.28 180.65 364.71 175.32 C 377.22 177.88 373.00 162.74 378.37 156.15 M 427.13 159.38 C 420.39 160.39 415.65 171.82 423.08 175.03 C 429.55 173.77 431.80 163.01 427.13 159.38 Z" />
</g>
<g id="#dcd9d9ff">
<path fill="#dcd9d9" opacity="1.00" d=" M 444.38 156.25 C 457.23 152.00 450.62 168.72 446.15 173.01 C 441.84 175.43 425.85 179.34 437.30 174.26 C 436.78 168.22 436.77 158.88 444.38 156.25 M 446.18 159.29 C 441.26 160.36 438.32 169.48 444.87 170.01 C 447.63 167.67 452.85 159.86 446.18 159.29 Z" />
</g>
<g id="#efcc04ff">
<path fill="#efcc04" opacity="1.00" d=" M 250.46 158.36 C 252.43 157.28 252.67 162.64 255.31 162.77 C 259.42 163.36 262.46 159.22 266.20 157.97 C 261.39 162.81 264.42 176.71 255.12 170.98 C 246.52 181.89 243.17 163.51 250.46 158.36 Z" />
</g>
<g id="#1f1d1aff">
<path fill="#1f1d1a" opacity="1.00" d=" M 276.13 159.38 C 280.80 163.01 278.55 173.77 272.08 175.03 C 264.66 171.82 269.39 160.39 276.13 159.38 Z" />
</g>
<g id="#2a2718ff">
<path fill="#2a2718" opacity="1.00" d=" M 427.13 159.38 C 431.80 163.01 429.55 173.77 423.08 175.03 C 415.65 171.82 420.39 160.39 427.13 159.38 Z" />
</g>
<g id="#1a1919ff">
<path fill="#1a1919" opacity="1.00" d=" M 446.18 159.29 C 452.85 159.86 447.63 167.67 444.87 170.01 C 438.32 169.48 441.26 160.36 446.18 159.29 Z" />
</g>
<g id="#ddbf05ff">
<path fill="#ddbf05" opacity="1.00" d=" M 352.57 160.53 C 354.20 161.26 349.17 170.83 345.14 167.80 C 344.56 162.91 351.21 164.65 352.57 160.53 Z" />
</g>
<g id="#5c4d1ce1">
<path fill="#5c4d1c" opacity="0.88" d=" M 492.03 166.20 C 489.08 162.90 488.44 159.85 493.79 159.71 C 494.22 161.90 494.10 164.89 492.03 166.20 Z" />
</g>
<g id="#1f1f1fff">
<path fill="#1f1f1f" opacity="1.00" d=" M 322.33 164.42 C 326.26 164.01 322.72 178.67 318.18 173.82 C 314.93 170.74 320.99 167.20 322.33 164.42 Z" />
<path fill="#1f1f1f" opacity="1.00" d=" M 465.33 164.42 C 469.26 164.01 465.72 178.67 461.18 173.82 C 457.93 170.74 463.99 167.20 465.33 164.42 Z" />
</g>
<g id="#eecc04ff">
<path fill="#eecc04" opacity="1.00" d=" M 407.25 165.12 C 410.39 164.30 414.34 166.06 412.97 169.81 C 401.56 169.95 410.41 169.99 410.99 172.12 C 406.78 173.72 404.15 167.60 407.25 165.12 Z" />
</g>
<g id="#352c1cff">
<path fill="#352c1c" opacity="1.00" d=" M 183.13 198.94 C 175.26 190.07 192.08 183.57 197.93 178.20 C 202.66 184.86 206.80 191.93 211.18 198.83 C 201.83 198.95 192.48 199.14 183.13 198.94 Z" />
</g>
<g id="#f4d105ff">
<path fill="#f4d105" opacity="1.00" d=" M 276.23 180.06 C 287.75 177.57 286.08 202.86 298.85 193.95 C 301.36 193.68 304.45 188.33 305.96 192.00 C 314.22 199.54 296.75 192.05 293.88 198.64 C 284.66 199.07 275.39 199.41 266.20 198.45 C 264.24 194.59 260.47 191.96 258.90 187.92 C 252.47 177.19 271.01 182.05 276.23 180.06 Z" />
</g>
<g id="#f5d104ff">
<path fill="#f5d104" opacity="1.00" d=" M 314.33 180.67 C 321.32 183.22 329.42 179.27 336.04 180.04 C 338.14 187.02 344.60 183.82 349.72 182.71 C 359.20 187.02 367.00 179.75 376.06 180.65 C 384.94 177.36 392.68 184.48 401.08 179.96 C 393.28 185.86 397.59 193.03 404.16 198.97 C 394.48 199.12 384.81 199.09 375.15 198.57 C 369.63 196.90 363.90 196.50 358.20 196.04 C 361.88 191.67 356.35 195.44 354.17 195.57 C 349.69 193.22 363.20 192.22 356.67 190.36 C 351.70 188.87 356.11 188.93 359.01 188.87 C 361.18 192.19 371.16 193.92 368.33 188.76 C 366.54 184.38 362.11 188.33 359.01 188.87 C 354.45 184.81 351.50 190.48 346.60 190.62 C 359.40 190.62 348.99 195.37 343.96 191.88 C 345.61 194.51 347.53 197.02 350.08 198.85 C 340.78 198.99 331.48 199.13 322.18 199.00 C 316.96 195.22 315.29 183.21 308.89 183.99 L 308.16 184.28 C 307.44 180.60 311.51 179.50 314.33 180.67 Z" />
</g>
<g id="#f1ce05fc">
<path fill="#f1ce05" opacity="1.00" d=" M 415.70 181.76 C 430.09 178.96 445.29 180.38 459.99 181.03 C 457.81 184.73 453.73 184.71 449.96 185.06 C 450.17 191.56 466.54 189.22 460.85 191.82 C 450.91 189.34 456.67 195.72 459.17 199.01 C 451.21 200.76 442.48 200.32 434.30 199.72 C 433.79 199.51 432.77 199.09 432.27 198.88 C 430.41 195.13 422.69 196.63 429.33 193.92 C 426.01 188.55 420.10 196.15 414.61 193.48 C 407.27 194.37 415.14 183.89 419.31 186.50 C 416.85 185.10 412.80 185.65 415.70 181.76 Z" />
</g>
<g id="#ac9512ff">
<path fill="#ac9512" opacity="1.00" d=" M 308.16 184.28 L 308.89 183.99 C 311.18 186.45 311.49 189.15 307.47 189.30 C 308.03 183.00 299.41 195.63 296.66 188.70 C 300.84 188.33 304.86 186.93 308.16 184.28 Z" />
</g>
<g id="#4a3f1cff">
<path fill="#4a3f1c" opacity="1.00" d=" M 359.01 188.87 C 362.11 188.33 366.54 184.38 368.33 188.76 C 371.16 193.92 361.18 192.19 359.01 188.87 Z" />
</g>
<g id="#4a3d1cff">
<path fill="#4a3d1c" opacity="1.00" d=" M 346.60 190.62 C 351.50 190.48 354.45 184.81 359.01 188.87 C 356.11 188.93 351.70 188.87 356.67 190.36 C 363.20 192.22 349.69 193.22 354.17 195.57 C 356.35 195.44 361.88 191.67 358.20 196.04 C 363.90 196.50 369.63 196.90 375.15 198.57 C 366.78 198.70 358.45 198.50 350.08 198.85 C 347.53 197.02 345.61 194.51 343.96 191.88 C 348.99 195.37 359.40 190.62 346.60 190.62 Z" />
</g>
<g id="#6b612b92">
<path fill="#6b612b" opacity="0.57" d=" M 293.88 198.64 C 303.10 196.56 312.73 199.59 322.18 199.00 C 331.48 199.13 340.78 198.99 350.08 198.85 C 358.45 198.50 366.78 198.70 375.15 198.57 C 384.81 199.09 394.48 199.12 404.16 198.97 C 413.53 198.84 422.90 198.04 432.27 198.88 C 432.77 199.09 433.79 199.51 434.30 199.72 C 368.85 200.23 303.35 200.08 237.91 199.82 L 238.41 199.00 C 247.66 198.40 256.94 198.87 266.20 198.45 C 275.39 199.41 284.66 199.07 293.88 198.64 Z" />
</g>
<g id="#524c2f7f">
<path fill="#524c2f" opacity="0.50" d=" M 173.71 199.73 C 176.67 198.41 179.98 199.04 183.13 198.94 C 192.48 199.14 201.83 198.95 211.18 198.83 C 212.22 199.12 213.26 199.41 214.31 199.69 C 200.79 200.04 187.22 200.40 173.71 199.73 Z" />
</g>
</svg>
